<?xml version="1.0" encoding="utf-8"?>
<!-- Generator: Adobe Illustrator 25.2.1, SVG Export Plug-In . SVG Version: 6.00 Build 0)  -->
<svg version="1.1" id="레이어_1" xmlns="http://www.w3.org/2000/svg" xmlns:xlink="http://www.w3.org/1999/xlink" x="0px"
	 y="0px" viewBox="0 0 1052.4 201.8" style="enable-background:new 0 0 1052.4 201.8;" xml:space="preserve">
<style type="text/css">
	.st0{fill:#304E15;}
	.st1{fill:#4B7E1D;}
	.st2{fill:url(#SVGID_1_);}
	.st3{fill:url(#SVGID_2_);}
	.st4{fill:url(#SVGID_3_);}
	.st5{fill:url(#SVGID_4_);}
	.st6{fill:url(#SVGID_5_);}
	.st7{fill:url(#SVGID_6_);}
	.st8{fill:url(#SVGID_7_);}
	.st9{fill:url(#SVGID_8_);}
	.st10{fill:url(#SVGID_9_);}
	.st11{fill:url(#SVGID_10_);}
	.st12{fill:url(#SVGID_11_);}
	.st13{fill:url(#SVGID_12_);}
	.st14{fill:url(#SVGID_13_);}
	.st15{fill:url(#SVGID_14_);}
	.st16{fill:url(#SVGID_15_);}
	.st17{fill:url(#SVGID_16_);}
	.st18{fill:url(#SVGID_17_);}
	.st19{fill:url(#SVGID_18_);}
	.st20{fill:url(#SVGID_19_);}
	.st21{fill:url(#SVGID_20_);}
	.st22{fill:url(#SVGID_21_);}
	.st23{fill:url(#SVGID_22_);}
	.st24{fill:url(#SVGID_23_);}
	.st25{fill:url(#SVGID_24_);}
	.st26{fill:url(#SVGID_25_);}
	.st27{fill:url(#SVGID_26_);}
	.st28{fill:url(#SVGID_27_);}
	.st29{fill:url(#SVGID_28_);}
	.st30{fill:url(#SVGID_29_);}
	.st31{fill:url(#SVGID_30_);}
	.st32{fill:url(#SVGID_31_);}
	.st33{fill:url(#SVGID_32_);}
	.st34{fill:url(#SVGID_33_);}
	.st35{fill:url(#SVGID_34_);}
	.st36{fill:url(#SVGID_35_);}
	.st37{fill:url(#SVGID_36_);}
	.st38{fill:url(#SVGID_37_);}
	.st39{fill:url(#SVGID_38_);}
	.st40{fill:url(#SVGID_39_);}
	.st41{fill:url(#SVGID_40_);}
	.st42{fill:url(#SVGID_41_);}
	.st43{fill:url(#SVGID_42_);}
	.st44{fill:url(#SVGID_43_);}
	.st45{fill:url(#SVGID_44_);}
	.st46{fill:url(#SVGID_45_);}
	.st47{fill:url(#SVGID_46_);}
	.st48{fill:url(#SVGID_47_);}
	.st49{fill:url(#SVGID_48_);}
	.st50{fill:url(#SVGID_49_);}
	.st51{fill:url(#SVGID_50_);}
	.st52{fill:url(#SVGID_51_);}
	.st53{fill:url(#SVGID_52_);}
	.st54{fill:url(#SVGID_53_);}
	.st55{fill:url(#SVGID_54_);}
	.st56{fill:url(#SVGID_55_);}
	.st57{fill:url(#SVGID_56_);}
	.st58{fill:url(#SVGID_57_);}
	.st59{fill:url(#SVGID_58_);}
	.st60{fill:url(#SVGID_59_);}
	.st61{fill:url(#SVGID_60_);}
	.st62{fill:url(#SVGID_61_);}
	.st63{fill:url(#SVGID_62_);}
	.st64{fill:url(#SVGID_63_);}
	.st65{fill:url(#SVGID_64_);}
	.st66{fill:url(#SVGID_65_);}
	.st67{fill:url(#SVGID_66_);}
	.st68{fill:url(#SVGID_67_);}
	.st69{fill:url(#SVGID_68_);}
	.st70{fill:url(#SVGID_69_);}
	.st71{fill:url(#SVGID_70_);}
	.st72{fill:url(#SVGID_71_);}
	.st73{fill:url(#SVGID_72_);}
	.st74{fill:url(#SVGID_73_);}
	.st75{fill:url(#SVGID_74_);}
	.st76{fill:url(#SVGID_75_);}
	.st77{fill:url(#SVGID_76_);}
	.st78{fill:url(#SVGID_77_);}
	.st79{fill:url(#SVGID_78_);}
	.st80{fill:url(#SVGID_79_);}
	.st81{fill:url(#SVGID_80_);}
	.st82{fill:url(#SVGID_81_);}
	.st83{fill:url(#SVGID_82_);}
	.st84{fill:url(#SVGID_83_);}
	.st85{fill:url(#SVGID_84_);}
	.st86{fill:url(#SVGID_85_);}
	.st87{fill:url(#SVGID_86_);}
	.st88{fill:url(#SVGID_87_);}
	.st89{fill:url(#SVGID_88_);}
	.st90{fill:url(#SVGID_89_);}
	.st91{fill:url(#SVGID_90_);}
	.st92{fill:url(#SVGID_91_);}
	.st93{fill:url(#SVGID_92_);}
	.st94{fill:url(#SVGID_93_);}
	.st95{fill:url(#SVGID_94_);}
	.st96{fill:url(#SVGID_95_);}
	.st97{fill:url(#SVGID_96_);}
	.st98{fill:url(#SVGID_97_);}
	.st99{fill:url(#SVGID_98_);}
	.st100{fill:url(#SVGID_99_);}
	.st101{fill:url(#SVGID_100_);}
	.st102{fill:url(#SVGID_101_);}
	.st103{fill:url(#SVGID_102_);}
	.st104{fill:url(#SVGID_103_);}
	.st105{fill:url(#SVGID_104_);}
	.st106{fill:url(#SVGID_105_);}
	.st107{fill:url(#SVGID_106_);}
	.st108{fill:url(#SVGID_107_);}
	.st109{fill:url(#SVGID_108_);}
	.st110{fill:url(#SVGID_109_);}
	.st111{fill:url(#SVGID_110_);}
	.st112{fill:url(#SVGID_111_);}
	.st113{fill:url(#SVGID_112_);}
	.st114{fill:url(#SVGID_113_);}
	.st115{fill:url(#SVGID_114_);}
	.st116{fill:url(#SVGID_115_);}
	.st117{fill:url(#SVGID_116_);}
	.st118{fill:url(#SVGID_117_);}
	.st119{fill:url(#SVGID_118_);}
	.st120{fill:url(#SVGID_119_);}
	.st121{fill:url(#SVGID_120_);}
	.st122{fill:url(#SVGID_121_);}
	.st123{fill:url(#SVGID_122_);}
	.st124{fill:url(#SVGID_123_);}
	.st125{fill:url(#SVGID_124_);}
	.st126{fill:url(#SVGID_125_);}
	.st127{fill:url(#SVGID_126_);}
</style>
<g transform="translate(0 -854.83)">
	<path class="st0" d="M983.6,856.8c5.4,12.5,5.6,52.4,4.8,85.8c2.6-13.2,7.3-27.7,15.7-40.7c-0.7-0.7-1.3-1.4-2-2.1
		c0.8,0.6,1.5,1.1,2.2,1.7c5.5-8.5,12.5-16.3,21.4-22.9c-6.7,6.4-12.2,16.1-16.5,27c17.9,16.4,26.4,38.5,30.2,58.1
		c-0.9-33.4-0.6-73.3,4.8-85.8c-0.1,15.8,1.3,44,3.4,70.6c1-6.1,2.5-12.2,4.8-18.2v128.2H6v-68.5c2.7-15.9,4.7-40.2,0-60.2v-7.6
		c2.1,3.6,3.8,7.4,5.3,11.2c5.5,14.8,6.4,30.8,6,44.3c2-22.5,2.9-50.9,2.8-65.2c1.2,2,2.2,5.1,3.1,8.9c0.3,1.2-1,4-0.7,5.3
		c0.3,1.4,1.6-3.3,1.8-1.8c1.5,10.9,2.3,25.8,2.6,40.1c2.9-9.8,7.9-20.3,16.1-30.4c1-1.3-0.1,2.9,1.1,1.7c0.9-0.9,4-7.3,4.9-8.3
		c3.7-3.8,8-7.5,12.9-11c-21.4,20.4-29,59.8-27.5,79.7l-1.6,25.3l20.7,32.2l3.8-27.8l11.7,28c-1.2-27,3.9-143.1,11.4-157.5
		c-1.1,12.9-0.7,35.2,0.5,56.7c1.9-11.4,4.6-21.2,8.4-25c-2.2,14.9-2.7,49.5-1.2,68.1h7.1c0.9-15.3,0.4-40.2-1.2-51.3
		c3.2,3.3,5.4,12,7,21.9c1-13,1.5-26.5,1.3-37c-0.1-3.7-4.3-4.6-4.5-7.4c0.8,1.6,7.1,1.9,7.6,4.7c1.3,6.4,1.9,15.4,2.2,25.1
		c1.4,4.1,2.5,9.3,3.4,15c0.9-12.3,1.4-25,1.3-35.3c-0.1-0.7-0.2-1.4-0.3-2.1c0.1,0.1,0.1,0.2,0.2,0.3c-0.2-3.6-4.3-4.5-4.5-7.3
		c0.8,1.6,7.1,1.9,7.7,4.7c0.7,3.4,1.2,7.6,1.6,12.2c1.4,4.5,2.6,10,3.6,15.9c0.5-10.4,0.8-20.7,0.7-29.9c-0.3-1.1-0.7-2.2-1-3.3
		c-0.7-2-1.3-2.3-2.1-4.1c-1.8-3.8-2.2-5.5-4.1-7.8c2.7,3,5.1,6.1,7.1,9.4c-0.1-3.2-0.3-6.2-0.5-8.9c1.9,3.7,3.4,9.4,4.5,16.4
		c0.8,1.8,1.6,3.6,2.3,5.5c5.5,14.9,6.4,31.1,6,44.6c2-22.6,2.9-51.1,2.8-65.5c1.2,2,2.3,5.1,3.1,8.9c0.3,1.2-0.9,4-0.7,5.3
		c0.3,1.4,1.6-3.3,1.8-1.7c1.5,10.8,2.3,25.8,2.5,40.1c2.9-9.8,7.9-20.2,16.1-30.3c1-1.3-0.1,2.9,1.1,1.6c0.5-0.6,1.8-2.9,2.9-5
		c-0.1-0.5-0.1-1.2-0.2-1.7c0.2,0.2,0.5,0.5,0.7,0.8c0.6-1.1,1.2-2,1.5-2.3c2.1-2.2,4.4-4.3,6.9-6.4c-0.1-4-0.3-7.7-0.6-11
		c1.1,2.2,2.1,5.1,2.9,8.6c0.2-0.6,0.5-1.1,0.8-1.6c1.7-2.1,3.4-0.4,4.7,1.5c4.6,3.4,8.7,7,12.3,10.6c0.2,0.2,0.5,0.7,0.9,1.3
		c0.1-5.7,0.2-11.3,0.2-16.3c0-1.6-0.1-5.9-0.6-6.2c-1.5-0.7-4.7,6.1-5,2.7c0.7,1.4,3.1-5.4,5.8-5.2c0.5,0,1,0.3,1.5,1
		c1.3,1.6,1.4,4.4,2,8.4c0.9,6.5,1.6,14,2.1,22c7.7,9.7,12.4,19.8,15.2,29.2c0.3-14.3,1-29.3,2.6-40.1c0.2-1.6,1.6,3.2,1.8,1.7
		c0.2-1.3-1-4.1-0.7-5.3c0.9-3.8,1.9-6.8,3.1-8.9c-0.1,14.3,0.7,42.7,2.7,65.2c-0.5-13.5,0.5-29.5,6-44.3c3-8.2,7.5-16,13.9-22.9
		c-2.3,2.5-2.7,4.2-4.6,8.3c-0.9,1.9-1.4,2.1-2.1,4.1c-7.8,23.1-2.7,66,0.7,83.1l13.9-11c-0.4-21.3,0.2-52.2,3.1-72.4
		c0.6-4,0.7-6.8,2-8.4c0.6-0.8,1.2-1,1.8-0.9c2.5,0.2,4.8,6.5,5.5,5.2c-0.3,3.3-3.5-3.5-5-2.8c-0.5,0.3-0.6,4.6-0.6,6.2
		c-0.1,11.9,0.3,26.3,1.1,40.3c0.3-1.9,0.6-3.7,1-5.5c1-8.9,2.6-16.3,5-19.6c-0.1,1.2-0.2,2.5-0.2,3.8c0.8-1.6,1.7-2.9,2.6-3.9
		c-1.2,8.4-1.9,23.1-2.1,37.6c0.3,7.1,0.8,14.1,1.3,20.3l15.6,28c0.7-17.2-1.3-78-12.2-102.2c-3.9-8.7-9.4-4.6-15-10
		c7.6,5.6,14.6,0.4,19.6,7.5c10.5,14.6,16,31.4,18.8,46.5c-0.1-15.1,0.3-31.2,1.9-47.1c0.8-8.2-6-35.7-4.3-39.6
		c0,5.1,8.6,10.7,8.8,17.9c0.3,7.7-1.4,13.7-1,22.6c0.4,10.1,1.2,20.8,2.1,31.4c1.7-12.2,5.6-24.7,13.2-35.8
		c4.1-6,15.6-1.7,22.2-6.5c-5.2,5-15.4,2.1-18.3,10c-9,24.9-7.8,59.9-5.1,77.1l25.6,32.3c-1.5-21.1-1.4-83.4-19.1-100.3
		c20.1,14.8,30.1,31.9,34.8,47.5c0.4-21.6,2.2-44.3,6.9-52.1c-0.1,8.6,0.2,22.2,0.9,36.5c2.1-15,8.4-30.2,23.4-42.3
		c0-0.1-0.1-0.3-0.1-0.4c-2.9-7.9-13-5-18.3-10c6.6,4.8,18.1,0.6,22.2,6.5c7.6,11.1,11.5,23.6,13.2,35.8c0.9-10.6,1.6-21.4,2.1-31.4
		c0.4-9-1.3-14.9-1-22.6c8.9-36.1,11.3,5,4.6,21.7c1.5,15.9,2,32.1,1.9,47.1c1.7-9.4,4.5-19.5,9-29.3c0.4-4.7,0.9-9.1,1.5-13.1
		c0.6-4,0.7-6.8,2-8.4c2.5-3.2,5,2.3,6.4,3.9c-2.8-7.2-6.5-13.5-11.4-18.2c6.2,4.5,11.2,9.7,15.2,15.3c4.5-2,9.9,0,15.7-4.3
		c-5,4.7-9.8,2.1-13.6,7.4c6.3,9.8,9.7,20.7,11.4,31.4c2-26.6,3.5-54.8,3.4-70.6c5.4,12.4,5.6,52.3,4.8,85.7
		c2.6-13.3,7.4-27.7,15.7-40.8c-3.9-8.6-8.6-16.1-14.1-21.4c6.8,5,12.5,10.7,17.2,16.9c5-6.9,11.1-13.2,18.6-18.7
		c-6,5.7-11,14-15.1,23.5c9,13.4,14,28.5,16.7,42.2c-0.5-19.1-0.6-40.2,0.4-57.2c-0.2-0.1-0.3-0.3-0.5-0.4l0.5,0.3
		c0.7-12.7,2.1-23.1,4.4-28.4c-0.1,7.8,0.3,18.6,0.9,30.7c5.3,1.2,10.1-0.3,13.9,4.9c0.4,0.6,0.8,1.2,1.2,1.8c0.6-0.9,1.3-1.8,2-2.7
		c-0.1-4.9-0.3-9.3-0.6-12.9c1.2,2.3,2.2,5.7,3,9.9c3-3.5,6.4-6.8,10.3-9.8c-0.3-10.2-5.9-33.6-4.3-37.2c0,5.1,8.6,10.8,8.8,18
		c0.3,7.7-1.4,13.6-1,22.6c0.6,14.2,2.9,32.3,5.4,49.3c0.2,0.4,0.3,0.8,0.5,1.2c0.5-7.6,1.8-15.5,4.1-23.2c-1.3-1.6-3.2-2.5-3.4-4.4
		c0.4,0.8,2.3,1.3,4.1,2c1-3,2.3-6.1,3.7-9c-1.1-1.2-2.2-2.3-3.3-3.4c1.2,0.9,2.5,1.8,3.6,2.8c1.5-3,3.2-5.9,5.1-8.7
		c0.1-0.2,0.2-0.3,0.4-0.5c0-0.1-0.1-0.2-0.2-0.3c-1.5-0.7-4.7,6.1-5,2.8c0.9,1.6,4-8.2,7.2-4.2c0,0,0,0,0,0
		c5.2-2.7,14.2-0.3,19.7-4.4c-5.1,4.9-15.1,2.2-18.1,9.7c0.1,0.9,0.3,1.9,0.4,3c0.6,3.8,1,8.1,1.4,12.6
		c10.7,11.4,16.8,23.4,20.2,34.7c0.4-21.6,2.2-44.3,6.9-52.1c-0.1,8.6,0.2,22.2,0.9,36.6c1.3-9,4-18.1,9.2-26.5
		c-1.2-1.4-2.5-2.8-3.9-4.1c1.5,1.1,3,2.2,4.4,3.4c4-6.2,9.3-12.1,16.4-17.2c-4.5,4.3-7.8,9.9-10.2,16.1c1.4,2.2,2.5,5.6,3.4,9.9
		c1.1,1.2,2.2,2.4,3.3,3.6c0-5.6-0.2-10.7-0.6-14.6c2.4,3.8,4.1,11.3,5.3,20.5c0.2,0.3,0.4,0.6,0.6,0.9c0.4-5,0.9-9.4,1.6-13.1
		c0.2-1.2,1.4-1.9,2.8-2.5c-2.2-4.6-5-8.8-8.5-12.1c4.6,3.4,8.5,7.1,11.7,10.9c0.8-0.3,1.4-0.7,1.6-1.1c-0.1,0.7-0.4,1.4-0.9,1.9
		c2.3,2.8,4.3,5.8,5.9,8.7c1.1-8.9,2.7-16.1,4.9-19.9c-0.1,8,0.2,20.5,0.8,33.9c0.1,0.4,0.2,0.8,0.3,1.2c0.5-3.5,1.3-7,2.4-10.4
		c0.2-6.8,0.2-12.9,0.2-17.5c1.2,2,2.2,5.1,3.1,8.9c1.7-3.6,3.8-7.2,6.3-10.5c-2.4-6.8-5.9-12.8-10.7-17.3
		c5.6,4.1,10.2,8.7,13.8,13.5c3-3.4,6.6-6.7,10.7-9.8c-3.6,3.5-6.5,7.7-8.7,12.6c4.9,7.4,7.9,15.4,9.5,23.4c0.3-0.4,0.7-0.8,1.1-1.2
		c0.5-12.1,0.7-23.3,0.6-30.6c2.6,4.4,4.3,13.4,5.4,24.3c1.3-1.2,2.6-2.4,4-3.6c-0.1-0.7-0.2-1.4-0.3-2.1c0.4,0.4,0.7,0.8,1.1,1.3
		c1.8-1.5,3.7-3,5.7-4.5c-1.8,1.7-3.5,3.5-5.1,5.5c1.7,2.8,3.2,7,4.4,11.9c0.4-0.7,0.9-1.4,1.4-2.2c-0.3-5-0.7-9.4-1.2-12.8
		c0.9,0.9,1.8,2.3,2.6,3.9c0-1.4-0.1-2.7-0.2-3.8c0.2,0.3,0.5,0.7,0.7,1.1c0-0.4,0-0.9,0-1.3c-1.9-2.5-4-4.8-6.2-6.9
		c2.2,1.6,4.3,3.3,6.2,4.9c0.1-7.2,0.1-13.9-0.1-19.7c-2.7-4.3-5.6-8.2-8.8-11.2c3.1,2.3,6,4.7,8.7,7.3c-0.1-1.9-0.2-3.6-0.4-5.2
		c0.9,1.8,1.8,4.3,2.5,7.3c0.6,0.6,1.2,1.2,1.7,1.9c1.3-1.7,2.8-3,4.4-1.1c1.3,1.6,1.4,4.4,2,8.4c0,0.3,0.1,0.5,0.1,0.8
		c0.2,0.3,0.4,0.6,0.7,0.9c-0.1-0.8-0.1-1.6-0.2-2.3c0.7,1.4,1.4,3.1,2,5c0.7,1.1,1.4,2.3,2.1,3.4c2.6-2.3,5.4-4.6,8.4-6.8
		c-2.7,2.6-5.2,5.4-7.4,8.5c6.5,11.7,10.4,24.2,12.7,35.8c-0.9-33.4-0.6-73.3,4.8-85.8c-0.1,10.7,0.6,27,1.6,44.7
		c0.2-0.5,0.5-0.9,0.7-1.3c0,1.5,0,3.3,0,5.1c1.9,1.6,3.8,3.2,5.5,4.8c4.5-12.1,12-23.6,24.3-32.6c-7.7,7.3-12.5,18.8-15.4,31.6
		c2.2-3.6,4.7-7.1,7.7-10.4c-1.9,2.3-2.4,4-4.1,7.8c-0.9,1.9-1.4,2.1-2.1,4.1c-0.9,2.6-1.6,5.4-2.3,8.3c0.1,0,0.2,0.1,0.3,0.2
		c8.3,10.1,13.2,20.5,16.2,30.3c0.3-14.3,1-29.3,2.5-40.1c0.2-1.6,1.6,3.1,1.8,1.7c0.2-1.3-1-4.1-0.7-5.3c0.5-2.2,1.1-4.1,1.7-5.7
		c-1.5-2.2-3.1-4.2-5-5.9c2,1.5,3.8,3,5.6,4.5c0.3-0.6,0.6-1.2,0.9-1.7c0,0.8,0,1.7,0,2.5c4.5,4.2,8,8.7,10.9,13.3
		c2.8-6.2,6.5-12,11.4-17.3c-1.9,2.3-2.4,4-4.1,7.8c-0.9,1.9-1.4,2.1-2.1,4.1c-1.1,3.2-2,6.5-2.6,9.9c3.4,6.9,5.3,14.1,6.3,21.3
		c0.7-14.4,1-28,0.9-36.6c4.7,7.8,6.5,30.5,6.9,52.1c3.2-10.7,8.9-22.1,18.6-33c1.1-8.6,2.8-15.6,5-19.5
		c-2.9-7.9-6.7-14.8-11.9-19.7c10,7.3,16.8,16.3,21.5,25.9c0.6-0.4,1.1-0.8,1.7-1.3c-0.5,0.5-1,1-1.6,1.6c3.7,7.7,5.9,15.8,7.2,23.7
		c2-26.6,3.5-54.8,3.4-70.6c2.3,5.3,3.7,15.7,4.4,28.4c6.6,2.2,15.5-0.2,19,4.9c0.9,1.3,1.8,2.7,2.6,4c2.5-3.2,5.3-6.3,8.4-9.1
		c-0.3-1.2-0.7-2.5-1.1-3.7c-0.7-2-1.3-2.3-2.1-4.1c-1.9-4.1-2.3-5.8-4.6-8.3c4.1,4.4,7.4,9.2,10,14.2c0.5-0.4,1-0.9,1.5-1.3
		c-0.3-3.2-0.6-6.4-0.5-9.9c0.3-7.2,8.9-12.9,8.8-18c1.7,3.9-5.1,31.4-4.3,39.6c0.2,1.7,0.3,3.3,0.4,5c2.9,10.5,3.9,21.4,3.9,31.3
		c0.2-0.7,0.4-1.5,0.6-2.2c1.5-20.8,2.2-44.2,2.1-56.8c1.2,2,2.3,5.1,3.1,8.9c0.3,1.2-0.9,4-0.7,5.3c0.3,1.4,1.6-3.3,1.8-1.8
		c0.9,6.6,1.6,14.6,2,23.1c2.2-4.2,4.6-8.3,7.4-12.2c3.6-5.1,8.3-3.8,13.5-4.8c0.7-1.3,1.3-2.4,1.7-2.8c-1.1-0.5-2.2-1.1-3.1-1.9
		c1,0.7,2.2,1.3,3.4,1.6c2.4-2.4,5-4.8,7.9-7.1c-0.1-1.2-0.2-2.5-0.3-3.6c0.4,0.8,0.8,1.8,1.2,2.8c1.2-1,2.5-2,3.8-2.9
		c-1.2,1.2-2.4,2.4-3.6,3.7c0,0.1,0.1,0.3,0.1,0.5c0.1-0.3,0.3-0.5,0.4-0.8c0,0.5-0.1,1.1-0.1,1.6c0.6,2.1,1.1,4.5,1.6,7.2
		c3.2,0.3,6.1,1.1,7.7,3.5c7.6,11.1,11.5,23.6,13.2,35.8c0.9-10.6,1.6-21.4,2.1-31.4c0.4-9-1.3-14.9-1-22.6
		c0.3-7.2,8.9-12.8,8.8-17.9c1.7,3.9-5.1,31.4-4.3,39.6c1.5,15.9,2,32.1,1.9,47.2c2.7-14.5,7.9-30.6,17.6-44.8
		c1-7.7,2.2-14.1,3.8-18.3c-2.9-9.5-7.2-17.7-13.2-23.4c13.1,9.6,20.8,22,25.1,34.9c1.6-0.4,3.2-1.1,4.8-2.2
		C982.8,889.3,983.6,869.3,983.6,856.8L983.6,856.8z M911.7,902.9c-1.7,2-3.3,4.2-4.8,6.5c0.2,0,0.4,0.1,0.6,0.1l0.4-0.3
		c-0.1,0.1-0.2,0.2-0.3,0.3c1,0.1,2,0.2,3,0.3c0.4-1.7,0.8-3.2,1.2-4.6C911.8,904.4,911.8,903.7,911.7,902.9L911.7,902.9z
		 M965.3,903.2c-0.2,3.5-0.3,7.4-0.3,11.7c0.9-0.5,1.8-0.9,2.8-1.1C967.1,910.1,966.2,906.6,965.3,903.2L965.3,903.2z M529.1,903.2
		c-3.8,4.1-6.9,9.3-9.3,15.1c0.6,3.7,1,7.7,1.5,12c0.3,0.6,0.6,1.2,0.9,1.8c2.1-1.2,5.3-1.6,5.9-2.8c-0.2,2.5-3.6,3.5-4.4,6.3
		c2.3,5.3,4.1,10.6,5.5,15.8c-1-15.9-1.5-32.3-0.1-46.2C529.2,904.7,529.2,904,529.1,903.2L529.1,903.2z M863.6,905.4
		c-0.3,0.4-0.7,0.8-1,1.3c0.5,1,0.9,1.9,1.4,2.9C863.9,908.2,863.8,906.8,863.6,905.4L863.6,905.4z M1008.5,907.4
		c-6.7,17.8-10.5,51.5-11.5,76.7l10.2,44.9l23.7-32.2C1032.2,976.6,1025.4,931.5,1008.5,907.4L1008.5,907.4z M829.8,908.2
		c1,16.9,0.8,38,0.3,56.9c2.7-13.8,7.7-28.9,16.8-42.4c-0.6-2.3-1.3-4.4-2.1-6.6C842.6,909.7,835.3,910.5,829.8,908.2L829.8,908.2z
		 M687.4,908.3c0,0-0.1,0-0.2,0c-0.3,0-0.6,0.3-1,0.6c0.6,0.7,1.2,1.4,1.8,2.1c-0.1-1.3-0.2-2.5-0.5-2.6
		C687.4,908.4,687.4,908.3,687.4,908.3L687.4,908.3z M860.4,909.8c-2.4,3.5-4.5,7.4-6.5,11.6c4.3,8.7,6.8,18,8.1,27
		c0.5-5.7,0.9-11.5,1.3-17.2C863,923.9,862.1,916.6,860.4,909.8L860.4,909.8z M906.5,910c0,0-0.1,0.1-0.1,0.1l0.2-0.1L906.5,910
		L906.5,910z M906.9,910.1c-0.3,0.2-0.5,0.4-0.8,0.5c-15.7,24.8-19.8,60.5-16.1,73.8l5.8,28.9l8-16.4c1.4-18.8,0.8-52.5-1.3-67.1
		c1.7,1.8,3.2,4.8,4.5,8.6c0.7-10.5,1.8-20.1,3.3-27.3C909.2,910.7,908,910.4,906.9,910.1L906.9,910.1z M981.4,910.3
		c-1.6,1.4-3.2,2.2-4.7,2.6c1.6,4.8,2.7,9.7,3.5,14.5C980.7,921.7,981,916,981.4,910.3L981.4,910.3z M499.2,912.3
		c0.6,12.4,1.5,26.1,2.5,39.4c1.5-9.2,4.2-18.6,9-27.3c-0.7-1.8-1.5-3.6-2.2-5.3C505.9,913.5,502.7,913.3,499.2,912.3L499.2,912.3z
		 M901.4,912.5c-3.2,0.8-6.1,1.4-8.4,6.7c-1.1,2.3-2.1,4.8-3,7.2c2.2-3.6,4.7-7.3,7.6-10.8c1-1.3-0.1,2.9,1.1,1.6
		C899.1,916.7,900.3,914.5,901.4,912.5L901.4,912.5z M915.3,912.9c1.3,7.8,2.2,17.5,2.7,27.7c1.2-3.4,2.6-6,4.2-7.6
		c-2,13.9-2.6,44.7-1.5,63.9h2.6c2.9-16,4.8-53.6-4.7-79.8C917.9,915.1,916.8,913.8,915.3,912.9L915.3,912.9z M685.2,914.4
		c0.7,4.7,1.3,10,1.8,15.7c0.3-1.5,0.7-2.9,1-4.3c0-1.8,0-3.5,0-5.2C687.2,918.5,686.2,916.4,685.2,914.4L685.2,914.4z M425.2,915.7
		c-0.1,0-0.2,0-0.3,0.1c-0.5,0.3-0.5,4.6-0.6,6.2c0,1.2,0,2.5,0,3.8c1.3-2.3,2.8-4.5,4.4-6.7C427.6,918.1,426.2,915.8,425.2,915.7
		L425.2,915.7z M968.3,917.2c-0.6,0.8-1.1,1.7-1.6,2.9c-0.6,1.3-1.2,2.7-1.7,4c0,0.2,0,0.5,0,0.7c1.3-0.7,3-1.1,4.2-1.6
		C968.9,921.2,968.6,919.2,968.3,917.2L968.3,917.2z M385.9,919.1c-15.7,18.5-14.5,54.5-11.2,77.8h4.5c1-15.6,0.3-39.2-1.6-50
		c3.8,3.1,6.4,11,8.4,20.2c1.2-17.4,1.6-35.4,0.5-45.8c0.1,0.2,0.3,0.5,0.4,0.7C386.6,921,386.3,920.1,385.9,919.1L385.9,919.1z
		 M177.2,919.2c0,0-0.1,0-0.1,0c-0.5,0.3-0.6,4.6-0.6,6.2c0,2.6,0,5.4,0,8.2c1,8.2,1.7,17.5,2.1,26.9c0-0.1,0-0.2,0-0.2
		c1-8.9,2.6-16.2,5-19.6c-0.1,1.2-0.2,2.4-0.2,3.8c0.3-0.7,0.7-1.3,1.1-1.9c-0.3-4.9-0.7-9.2-1.2-12.5c0.9,0.9,1.8,2.3,2.6,3.9
		c0-1.4-0.1-2.7-0.2-3.8c2.4,3.4,4,10.7,5,19.6c0.4,1.8,0.7,3.6,1,5.5c0.3-6,0.6-12,0.8-17.9c-3-5.5-6.4-10.7-10.5-15.2
		c-0.3,2.9-3.1-2.7-4.7-2.9C177.3,919.2,177.3,919.2,177.2,919.2L177.2,919.2z M179.9,919.8c1,1.5,1.8,2.9,2.2,2.3
		C181.3,921.3,180.6,920.5,179.9,919.8z M805.4,920.3c-0.4,3.9-0.5,8.7-0.5,14.1c1.2-1.1,2.4-2.2,3.6-3.4
		C807.6,927.3,806.6,923.7,805.4,920.3L805.4,920.3z M754.1,920.4c0.1,15.3,1,40,2.8,60.1c-0.4-12.2,0.2-26.4,4.4-40
		C759.9,933.1,757.6,926.3,754.1,920.4L754.1,920.4z M602.2,922.6c-0.6,1.5-1.1,3.1-1.6,4.7c0.7,0.6,1.4,1.3,2,1.9
		C602.6,926.7,602.4,924.5,602.2,922.6L602.2,922.6z M171.7,923.7c-2.4,3.1-4.6,6.4-6.6,9.8c2.2,4.4,4,11,5.4,18.5
		c0.3-5.9,0.7-11.5,1.3-16.8C171.8,931.2,171.8,927.3,171.7,923.7L171.7,923.7z M969.3,924.4c-1.3,1.4-3.3,2.6-3.4,5.2
		c-0.1,7,0,15.4,0.5,24c1.1-5.9,2.4-11.3,3.9-15.5C970.1,933.6,969.8,929,969.3,924.4L969.3,924.4z M717.2,924.8
		c0,2.4,0,4.9,0.1,7.7c0.3,4.3,0.6,8.6,0.9,12.9c0.8-4.8,1.9-9.7,3.5-14.5C720.3,928.8,718.8,926.7,717.2,924.8L717.2,924.8z
		 M431.6,925.9c-2.7,6.8-5,14.1-6.8,21.5c0.2,4.9,0.4,9.9,0.7,14.8c0.3-1.9,0.6-3.7,1-5.4c1-8.9,2.6-16.2,5-19.6
		c-0.1,1.2-0.1,2.4-0.2,3.8c0.8-1.6,1.6-2.9,2.6-3.9c-1.2,8.4-1.9,23.1-2,37.6c0.4,7.8,0.9,15.5,1.5,22.1h1.5
		C437.3,981,438.4,950.1,431.6,925.9L431.6,925.9z M648.9,928.2c-4.1,13.4-4.6,29.4-3.7,43.7c1.7-4.8,3.8-9.8,6.7-14.8
		C651.9,947.4,651.1,937.3,648.9,928.2z M552.8,929.4c-1.2,5.5-2,11.3-2.5,17c0.3,2.1,0.7,4.3,0.9,6.6c0.4,1.8,0.7,3.6,1,5.4
		c0.5-9.6,0.9-19.4,1.1-28.4C553.2,929.8,553,929.6,552.8,929.4L552.8,929.4z M620,929.6c-0.5,0.7-0.8,1.5-0.8,2.5
		c-0.1,5.4,0,11.7,0.2,18.3c1.3,2.3,2.5,4.6,3.5,7c0.7-2.5,1.5-4.8,2.3-6.6C624.3,943.2,622.6,936,620,929.6L620,929.6z M600,929.6
		c-1.9,7.2-2.8,15.1-3.1,23c1.8,3.5,3.2,8.2,4.4,13.4c-0.3-7.7-0.9-14.7-1.7-19.3c1.1,0.9,2.1,2.3,3.1,4c0.2-6,0.3-11.8,0.2-16.9
		C601.9,932.4,601,931,600,929.6L600,929.6z M473.8,932.7c-8,22.6-11.4,49.3-10.7,64.2l28,31.4C491.4,1012.7,482,954.8,473.8,932.7
		L473.8,932.7z M849.3,932.9c-8,22.5-11.3,49.1-10.7,64h10.9C851.9,984.4,853.7,957.1,849.3,932.9L849.3,932.9z M809,933.2
		c-1.5,2-2.8,4.1-4.1,6.3c0.1,8,0.5,16.9,1.1,25.6c1.4-6.5,3.1-12.3,5.3-16.3C810.8,943.6,810,938.3,809,933.2L809,933.2z
		 M672.7,934.4c-1.4,1.8-2.7,3.6-3.9,5.5c0.6,7.6,1,15.8,1.1,23.9c1.1-3.5,2.4-7,4-10.6C673.7,946.2,673.3,939.6,672.7,934.4
		L672.7,934.4z M514.6,935.8c-0.8,3.9-1.4,7.9-1.9,12c0.9,3.6,1.8,7.6,2.5,11.8c0.4-6.3,0.6-12.6,0.8-18.8
		C515.6,939.1,515.1,937.4,514.6,935.8L514.6,935.8z M163.3,936.8c-10.5,20.4-14.3,45.5-13.2,60.1l10.4,26.3
		C161.8,1007,164.8,953.4,163.3,936.8L163.3,936.8z M730.7,937.8c-0.1,0.4-0.2,0.9-0.3,1.3C730.7,939.2,730.7,938.4,730.7,937.8z
		 M559.2,940.4c1.3,19.4,1.4,65.1,0.9,80.2l11.4-23.8C572.1,982.7,568.5,959.7,559.2,940.4L559.2,940.4z M958.8,942.4
		c-5.6,20.8-15.2,70.7-14.2,82.5l13.7-28C957.8,983,957.8,961.8,958.8,942.4L958.8,942.4z M607.5,942.6c0.5,3.5,0.8,7.2,1.1,11.1
		c0.1-2.7,0.2-5.3,0.3-7.9C608.5,944.7,608,943.7,607.5,942.6L607.5,942.6z M729.5,945.2c-2.4,18.2-0.3,38.2,2,51.7h8.6
		C740.5,983.6,737.3,963.2,729.5,945.2L729.5,945.2z M799,951.1c-6.7,15.6-9.9,32.9-10.2,45.8h9.4
		C797.7,984.8,797.7,966.9,799,951.1L799,951.1z M185,951.1c-0.6,7.9-0.9,17.5-1,27.2c0.1,2.1,0.2,4.2,0.4,6.3
		c0.4-5.3,0.8-11.1,1.1-16.9C185.3,962.1,185.2,956.4,185,951.1L185,951.1z M199.4,953.2c0.6,16.2,0.5,32.4,0,43.7h7.1
		C207.1,985.7,204.9,969.1,199.4,953.2L199.4,953.2z M626.1,964.2c0,0.4,0,0.9-0.1,1.3c0,0.1,0.1,0.1,0.1,0.2
		C626.1,965.3,626.1,964.7,626.1,964.2L626.1,964.2z M700.1,971.8c0.2,8.9,0.2,17.6,0,25h1.3c0.6-4.6,0.6-11.1,0-18.7
		C701,976.1,700.6,974,700.1,971.8L700.1,971.8z M974.7,981.3l-0.1,1.2l0-0.4c0,0,0,1,0,1.1l-0.1,0.9h0.1c0-0.2,0-0.8,0-0.9l0-0.7
		l0,0.6c0,0.5,0,0.5,0,1h0.1l-0.1-1C974.6,982.2,974.6,982.4,974.7,981.3L974.7,981.3z"/>
	<path class="st1" d="M69,875.8c-5.4,12.3-5.6,51.6-4.8,84.5c-2.6-13-7.4-27.2-15.8-40.1c0.7-0.7,1.3-1.4,2-2
		c-0.8,0.5-1.5,1.1-2.2,1.7c-5.5-8.3-12.6-16-21.5-22.5c6.8,6.3,12.3,15.8,16.6,26.6c-18,16.2-26.5,38-30.3,57.2
		c0.9-32.9,0.6-72.2-4.8-84.5c0.1,15.6-1.3,43.3-3.4,69.5c-1-6-2.5-12-4.8-17.9v108h987.5c-0.3-40.2-5-128.5-11.5-140.8
		c1.1,12.7,0.7,34.7-0.5,55.9c-1.9-11.2-4.7-20.9-8.4-24.7c2.2,14.7,2.7,48.8,1.2,67.1h-7.1c-0.9-15.1-0.4-39.6,1.2-50.5
		c-3.2,3.2-5.5,11.8-7,21.6c-1-12.8-1.5-26.1-1.3-36.5c0.1-3.7,4.3-4.5,4.6-7.2c-0.8,1.6-7.1,1.8-7.7,4.6
		c-1.3,6.3-1.9,15.1-2.2,24.7c-1.4,4-2.5,9.2-3.4,14.7c-0.9-12.1-1.4-24.6-1.3-34.7c0.1-0.7,0.2-1.4,0.2-2.1
		c-0.1,0.1-0.1,0.2-0.2,0.2c0.2-3.6,4.3-4.4,4.5-7.1c-0.8,1.6-7.1,1.8-7.7,4.6c-0.7,3.4-1.2,7.5-1.6,12c-1.4,4.4-2.6,9.9-3.6,15.7
		c-0.6-10.2-0.8-20.4-0.7-29.5c0.3-1.1,0.7-2.2,1-3.2c0.7-2,1.3-2.3,2.1-4.1c1.8-3.8,2.2-5.5,4.2-7.7c-2.7,2.9-5.1,6-7.2,9.2
		c0.1-3.1,0.3-6.1,0.5-8.8c-1.9,3.6-3.4,9.3-4.5,16.2c-0.8,1.8-1.6,3.6-2.3,5.4c-5.6,14.7-6.5,30.6-6,43.9c-2-22.2-3-50.4-2.8-64.5
		c-1.2,2-2.3,5-3.1,8.7c-0.3,1.2,1,3.9,0.7,5.2c-0.3,1.4-1.6-3.3-1.8-1.7c-1.5,10.7-2.3,25.4-2.6,39.5c-2.9-9.7-7.9-19.9-16.2-29.9
		c-1.1-1.3,0.1,2.8-1.1,1.6c-0.5-0.5-1.8-2.9-2.9-5c0.1-0.5,0.1-1.1,0.2-1.6c-0.2,0.2-0.5,0.5-0.7,0.8c-0.6-1.1-1.2-2-1.5-2.3
		c-2.1-2.1-4.5-4.2-7-6.3c0.1-3.9,0.3-7.6,0.6-10.8c-1.1,2.1-2.1,5-3,8.4c-0.2-0.6-0.5-1.1-0.8-1.5c-1.7-2.1-3.4-0.4-4.7,1.5
		c-4.6,3.4-8.7,6.9-12.3,10.5c-0.2,0.2-0.5,0.7-0.9,1.3c-0.1-5.7-0.2-11.1-0.2-16.1c0-1.6,0.1-5.8,0.6-6.1c1.5-0.7,4.7,6,5,2.7
		c-0.7,1.4-3.1-5.3-5.8-5.1c-0.5,0-1,0.3-1.5,0.9c-1.3,1.6-1.5,4.3-2.1,8.3c-0.9,6.4-1.6,13.8-2.1,21.7
		c-7.7,9.6-12.5,19.4-15.3,28.8c-0.3-14.1-1-28.8-2.6-39.5c-0.2-1.5-1.6,3.1-1.8,1.7c-0.2-1.3,1-4,0.8-5.2c-0.9-3.7-1.9-6.7-3.2-8.7
		c0.1,14.1-0.7,42.1-2.8,64.3c0.5-13.3-0.5-29-6-43.7c-3.1-8.1-7.5-15.8-13.9-22.6c2.3,2.5,2.7,4.2,4.6,8.2c0.9,1.8,1.4,2.1,2.1,4.1
		c7.9,22.8,2.7,65-0.7,81.8l-14-10.9c0.4-21-0.2-51.4-3.2-71.3c-0.6-4-0.7-6.7-2-8.3c-0.6-0.7-1.2-1-1.8-0.9
		c-2.5,0.2-4.8,6.4-5.5,5.1c0.3,3.3,3.5-3.4,5-2.7c0.5,0.3,0.6,4.5,0.6,6.1c0.1,11.7-0.4,25.9-1.2,39.8c-0.3-1.8-0.6-3.6-1-5.4
		c-1-8.8-2.6-16-5-19.3c0.1,1.1,0.2,2.4,0.2,3.8c-0.8-1.6-1.7-2.8-2.6-3.8c1.2,8.3,1.9,22.7,2.1,37c-0.3,7-0.8,13.9-1.3,20
		l-15.7,27.6c-0.7-16.9,1.3-76.8,12.3-100.6c3.9-8.6,9.4-4.5,15-9.8c-7.7,5.5-14.6,0.4-19.7,7.4c-10.5,14.4-16.1,30.9-18.9,45.8
		c0.1-14.8-0.4-30.7-1.9-46.4c-0.8-8.1,6-35.2,4.3-39.1c0,5-8.6,10.6-8.9,17.7c-0.3,7.6,1.4,13.5,1,22.3c-0.4,9.9-1.2,20.5-2.1,30.9
		c-1.7-12-5.6-24.4-13.2-35.2c-4.1-5.9-15.7-1.6-22.3-6.4c5.2,4.9,15.4,2,18.3,9.8c9,24.5,7.8,59,5.2,76l-25.7,31.8
		c1.5-20.8,1.4-82.1,19.2-98.8c-20.2,14.5-30.2,31.4-35,46.8c-0.4-21.2-2.2-43.6-6.9-51.3c0.1,8.4-0.2,21.8-0.9,36
		c-2.1-14.8-8.5-29.8-23.5-41.7c0-0.1,0.1-0.3,0.1-0.4c2.9-7.8,13.1-5,18.3-9.9c-6.6,4.7-18.2,0.6-22.3,6.4
		c-7.7,10.9-11.5,23.2-13.2,35.2c-0.9-10.4-1.7-21-2.1-30.9c-0.4-8.8,1.3-14.7,1.1-22.3c-8.9-35.6-11.3,4.9-4.6,21.3
		c-1.6,15.7-2,31.6-1.9,46.4c-1.7-9.3-4.6-19.2-9-28.9c-0.4-4.6-0.9-8.9-1.5-12.9c-0.6-4-0.7-6.7-2-8.3c-2.5-3.1-5,2.2-6.4,3.9
		c2.8-7.1,6.5-13.4,11.4-17.9c-6.2,4.5-11.3,9.6-15.3,15.1c-4.5-1.9-10,0-15.8-4.2c5,4.7,9.9,2,13.7,7.3
		c-6.3,9.7-9.7,20.4-11.4,30.9c-2-26.2-3.5-54-3.4-69.5c-5.4,12.3-5.7,51.6-4.8,84.5c-2.6-13.1-7.4-27.3-15.8-40.2
		c3.9-8.5,8.6-15.8,14.2-21.1c-6.8,4.9-12.5,10.6-17.2,16.7c-5-6.8-11.2-13-18.6-18.4c6,5.6,11,13.8,15.1,23.2
		c-9,13.2-14,28-16.8,41.6c0.5-18.8,0.6-39.6-0.4-56.4c0.2-0.1,0.3-0.3,0.5-0.4c-0.2,0.1-0.3,0.2-0.5,0.3c-0.7-12.5-2.1-22.8-4.4-28
		c0.1,7.7-0.3,18.3-0.9,30.2c-5.4,1.2-10.2-0.3-14,4.8c-0.4,0.6-0.8,1.1-1.2,1.7c-0.6-0.9-1.3-1.8-2-2.7c0.1-4.8,0.3-9.2,0.6-12.8
		c-1.2,2.2-2.2,5.6-3.1,9.7c-3-3.4-6.4-6.7-10.4-9.7c0.3-10.1,5.9-33.1,4.3-36.7c0,5-8.6,10.6-8.8,17.7c-0.3,7.6,1.4,13.4,1,22.3
		c-0.6,14-2.9,31.8-5.5,48.5c-0.2,0.4-0.3,0.8-0.5,1.2c-0.5-7.5-1.8-15.3-4.2-22.9c1.3-1.5,3.2-2.5,3.4-4.3
		c-0.4,0.8-2.3,1.3-4.2,1.9c-1-3-2.3-6-3.7-8.9c1.1-1.2,2.2-2.3,3.3-3.4c-1.3,0.9-2.5,1.8-3.7,2.8c-1.5-2.9-3.1-5.8-5.1-8.6
		c-0.1-0.2-0.2-0.3-0.4-0.5c0-0.1,0.1-0.2,0.2-0.2c1.5-0.7,4.7,6,5,2.7c-0.9,1.6-4.1-8.1-7.3-4.2c0,0,0,0,0,0
		c-5.2-2.6-14.2-0.3-19.8-4.3c5.2,4.8,15.2,2.1,18.2,9.6c-0.1,0.9-0.3,1.9-0.4,3c-0.6,3.8-1,8-1.4,12.4
		c-10.7,11.2-16.9,23.1-20.3,34.2c-0.4-21.2-2.2-43.6-6.9-51.3c0.1,8.4-0.2,21.9-0.9,36.1c-1.3-8.9-4-17.8-9.3-26.2
		c1.2-1.4,2.5-2.8,3.9-4c-1.5,1.1-3,2.2-4.4,3.3c-4-6.1-9.3-11.9-16.4-17c4.5,4.2,7.9,9.7,10.3,15.9c-1.4,2.2-2.5,5.6-3.4,9.8
		c-1.1,1.2-2.3,2.3-3.3,3.5c0-5.5,0.2-10.5,0.7-14.4c-2.4,3.7-4.1,11.1-5.3,20.2c-0.2,0.3-0.4,0.6-0.7,0.9
		c-0.4-4.9-0.9-9.3-1.6-12.9c-0.2-1.2-1.5-1.9-2.8-2.4c2.2-4.6,5-8.6,8.6-11.9c-4.6,3.3-8.5,7-11.8,10.8c-0.8-0.3-1.4-0.6-1.6-1.1
		c0.1,0.7,0.4,1.3,0.9,1.9c-2.3,2.8-4.3,5.6-5.9,8.6c-1.1-8.8-2.7-15.9-5-19.6c0.1,7.9-0.2,20.2-0.8,33.4c-0.1,0.4-0.2,0.8-0.3,1.2
		c-0.5-3.4-1.3-6.9-2.4-10.2c-0.2-6.7-0.2-12.7-0.2-17.2c-1.2,2-2.3,5-3.1,8.8c-1.7-3.6-3.8-7-6.4-10.4c2.4-6.7,5.9-12.6,10.7-17.1
		c-5.7,4.1-10.2,8.6-13.8,13.3c-3-3.4-6.6-6.6-10.8-9.6c3.6,3.4,6.5,7.6,8.8,12.4c-5,7.3-7.9,15.2-9.6,23.1
		c-0.3-0.4-0.7-0.8-1.1-1.2c-0.5-12-0.7-22.9-0.7-30.2c-2.6,4.3-4.3,13.2-5.4,24c-1.3-1.2-2.6-2.4-4-3.5c0.1-0.7,0.2-1.4,0.2-2
		c-0.4,0.4-0.7,0.8-1.1,1.3c-1.8-1.5-3.7-3-5.8-4.4c1.8,1.7,3.5,3.5,5.1,5.4c-1.7,2.8-3.2,6.9-4.4,11.7c-0.4-0.7-0.9-1.4-1.4-2.1
		c0.3-4.9,0.7-9.3,1.2-12.6c-0.9,0.9-1.8,2.2-2.6,3.8c0-1.4,0.1-2.6,0.2-3.8c-0.2,0.3-0.5,0.7-0.7,1.1c0-0.4,0-0.9,0-1.3
		c1.9-2.4,4-4.7,6.2-6.8c-2.2,1.6-4.3,3.2-6.3,4.8c-0.1-7.1-0.1-13.7,0.1-19.4c2.7-4.3,5.6-8,8.9-11.1c-3.1,2.3-6,4.7-8.7,7.2
		c0.1-1.8,0.2-3.5,0.3-5.1c-0.9,1.8-1.8,4.2-2.5,7.2c-0.6,0.6-1.2,1.2-1.8,1.8c-1.3-1.7-2.8-3-4.4-1.1c-1.3,1.6-1.4,4.3-2,8.3
		c0,0.2-0.1,0.5-0.1,0.8c-0.2,0.3-0.5,0.6-0.7,0.9c0.1-0.8,0.1-1.5,0.2-2.2c-0.7,1.4-1.4,3-2,4.9c-0.7,1.1-1.4,2.2-2.1,3.3
		c-2.6-2.3-5.4-4.5-8.4-6.7c2.7,2.5,5.2,5.4,7.4,8.4c-6.6,11.5-10.5,23.8-12.8,35.2c0.9-32.9,0.6-72.2-4.8-84.5
		c0.1,10.5-0.5,26.6-1.6,44.1c-0.2-0.5-0.5-0.9-0.7-1.3c0,1.5,0,3.2,0,5c-2,1.6-3.8,3.2-5.6,4.8c-4.5-11.9-12-23.3-24.4-32.2
		c7.7,7.2,12.6,18.5,15.4,31.1c-2.2-3.6-4.8-7-7.8-10.2c1.9,2.2,2.3,4,4.1,7.7c0.9,1.8,1.5,2.1,2.2,4.1c0.9,2.6,1.6,5.4,2.2,8.2
		c-0.1,0-0.2,0-0.3,0.2c-8.3,9.9-13.3,20.2-16.2,29.9c-0.3-14.1-1-28.8-2.6-39.5c-0.2-1.5-1.6,3.1-1.8,1.7c-0.2-1.3,1-4,0.7-5.2
		c-0.5-2.1-1-4-1.7-5.6c1.5-2.1,3.1-4.1,5-5.9c-2,1.4-3.8,2.9-5.6,4.5c-0.3-0.6-0.6-1.2-0.9-1.7c0,0.8,0,1.7,0,2.5
		c-4.5,4.1-8.1,8.5-10.9,13.2c-2.8-6.1-6.5-11.9-11.4-17.1c1.9,2.2,2.4,4,4.2,7.7c0.9,1.8,1.4,2.1,2.1,4.1c1.1,3.1,1.9,6.4,2.6,9.8
		c-3.4,6.8-5.3,13.9-6.3,20.9c-0.7-14.2-1-27.6-0.9-36.1c-4.7,7.7-6.5,30.1-6.9,51.3c-3.3-10.5-9-21.8-18.7-32.5
		c-1.1-8.4-2.7-15.4-5-19.2c2.9-7.8,6.8-14.6,12-19.4c-10,7.2-16.9,16-21.6,25.5c-0.6-0.4-1.1-0.8-1.7-1.2c0.5,0.5,1,1,1.6,1.6
		c-3.7,7.6-5.9,15.5-7.2,23.4c-2-26.3-3.5-54-3.4-69.5c-2.3,5.2-3.7,15.4-4.4,28c-6.6,2.2-15.6-0.2-19.1,4.8c-0.9,1.3-1.8,2.6-2.6,4
		c-2.6-3.1-5.3-6.2-8.4-9c0.4-1.2,0.7-2.4,1.1-3.6c0.7-2,1.3-2.2,2.1-4.1c1.9-4.1,2.3-5.7,4.6-8.2c-4.1,4.3-7.4,9-10,14
		c-0.5-0.4-1-0.8-1.6-1.2c0.3-3.2,0.6-6.4,0.5-9.8c-0.3-7.1-8.9-12.7-8.9-17.7c-1.7,3.8,5.1,30.9,4.3,39c-0.2,1.6-0.3,3.3-0.4,4.9
		c-2.9,10.4-3.9,21-3.9,30.8c-0.2-0.7-0.4-1.4-0.6-2.2c-1.5-20.5-2.2-43.5-2.1-55.9c-1.2,2-2.3,5-3.1,8.7c-0.3,1.2,0.9,3.9,0.7,5.2
		c-0.3,1.4-1.6-3.3-1.8-1.7c-0.9,6.5-1.6,14.4-2,22.8c-2.2-4.1-4.6-8.1-7.5-12c-3.7-5-8.4-3.8-13.5-4.8c-0.7-1.2-1.3-2.4-1.7-2.8
		c1.1-0.5,2.2-1.1,3.1-1.9c-1,0.7-2.2,1.2-3.4,1.6c-2.4-2.4-5.1-4.7-7.9-7c0.1-1.2,0.2-2.4,0.2-3.5c-0.4,0.8-0.8,1.7-1.2,2.8
		c-1.2-1-2.5-1.9-3.8-2.9c1.2,1.2,2.4,2.3,3.6,3.6c0,0.1-0.1,0.3-0.2,0.5c-0.1-0.3-0.2-0.5-0.4-0.8c0,0.5,0.1,1.1,0.1,1.6
		c-0.6,2-1.1,4.4-1.6,7.1c-3.2,0.3-6.1,1.1-7.8,3.4c-7.7,10.9-11.5,23.2-13.2,35.2c-0.9-10.4-1.7-21-2.1-30.9
		c-0.4-8.8,1.3-14.7,1-22.3c-0.3-7.1-8.9-12.7-8.9-17.7c-1.7,3.8,5.1,30.9,4.3,39c-1.6,15.7-2,31.6-1.9,46.5
		c-2.7-14.3-7.9-30.2-17.7-44.2c-1-7.6-2.2-13.9-3.8-18c3-9.3,7.2-17.5,13.2-23.1c-13.1,9.4-20.8,21.7-25.2,34.4
		c-1.6-0.4-3.2-1.1-4.8-2.2C69.8,907.8,68.9,888.1,69,875.8L69,875.8z M141.2,921.2c1.7,2,3.3,4.1,4.8,6.4c-0.2,0-0.4,0.1-0.6,0.1
		c-0.1-0.1-0.3-0.2-0.4-0.3c0.1,0.1,0.2,0.2,0.3,0.3c-1,0.1-2,0.2-3,0.2c-0.4-1.7-0.8-3.2-1.2-4.5
		C141.1,922.7,141.1,922,141.2,921.2L141.2,921.2z M87.4,921.5c0.2,3.4,0.3,7.3,0.3,11.5c-0.9-0.5-1.8-0.8-2.8-1.1
		C85.6,928.3,86.4,924.8,87.4,921.5L87.4,921.5z M525.2,921.5c3.8,4,6.9,9.1,9.4,14.9c-0.6,3.6-1,7.6-1.5,11.9
		c-0.3,0.6-0.6,1.2-0.9,1.8c-2.1-1.1-5.4-1.6-6-2.7c0.2,2.4,3.6,3.4,4.4,6.2c-2.3,5.2-4.1,10.4-5.5,15.6c1-15.6,1.5-31.8,0.1-45.5
		C525.2,923,525.2,922.3,525.2,921.5L525.2,921.5z M189.4,923.7c0.3,0.4,0.7,0.8,1,1.3c-0.5,1-1,1.9-1.4,2.9
		C189.2,926.4,189.3,925.1,189.4,923.7z M44,925.7c6.8,17.5,10.5,50.7,11.6,75.5l-10.3,44.2l-23.8-31.7
		C20.2,993.9,27,949.4,44,925.7L44,925.7z M223.4,926.4c-1,16.7-0.8,37.4-0.3,56.1c-2.7-13.6-7.8-28.5-16.9-41.7
		c0.6-2.2,1.3-4.4,2.1-6.5C210.6,927.9,217.9,928.7,223.4,926.4L223.4,926.4z M366.4,926.5c0,0,0.1,0,0.2,0c0.3,0,0.6,0.3,1,0.6
		c-0.6,0.7-1.2,1.3-1.8,2c0.1-1.3,0.2-2.5,0.5-2.6C366.3,926.6,366.4,926.6,366.4,926.5L366.4,926.5z M192.7,928
		c2.4,3.4,4.6,7.3,6.5,11.4c-4.4,8.6-6.8,17.7-8.1,26.7c-0.5-5.6-0.9-11.3-1.3-16.9C190.1,941.9,191,934.7,192.7,928L192.7,928z
		 M146.4,928.2c0,0,0.1,0.1,0.1,0.2L146.4,928.2L146.4,928.2L146.4,928.2z M146.1,928.3c0.3,0.2,0.5,0.3,0.8,0.5
		c15.8,24.4,19.8,59.6,16.2,72.7l-5.9,28.5l-8-16.2c-1.4-18.5-0.8-51.7,1.3-66.2c-1.7,1.7-3.2,4.7-4.5,8.5
		c-0.7-10.4-1.8-19.9-3.3-27C143.7,928.9,144.9,928.6,146.1,928.3L146.1,928.3z M71.2,928.5c1.6,1.4,3.1,2.1,4.7,2.6
		c-1.6,4.7-2.7,9.5-3.5,14.3C72,939.8,71.6,934.1,71.2,928.5L71.2,928.5z M555.2,930.5c-0.6,12.2-1.5,25.7-2.5,38.8
		c-1.5-9.1-4.3-18.3-9-26.9c0.7-1.8,1.5-3.5,2.2-5.2C548.5,931.7,551.8,931.5,555.2,930.5L555.2,930.5z M151.5,930.7
		c3.2,0.8,6.1,1.4,8.5,6.6c1.1,2.3,2.1,4.7,3,7.1c-2.2-3.6-4.7-7.2-7.6-10.7c-1.1-1.3,0.1,2.9-1.1,1.6
		C153.8,934.8,152.6,932.7,151.5,930.7L151.5,930.7z M1036.3,930.8c-1.2,2-2.2,5-3.1,8.8c-0.3,1.2,1,3.9,0.7,5.2
		c-0.3,1.4-1.6-3.3-1.8-1.8c-1.5,10.7-2.3,25.5-2.6,39.6c-2.9-9.7-7.9-20-16.2-29.9c-1.1-1.3,0.1,2.9-1.1,1.7
		c-0.9-0.9-4-7.2-4.9-8.2c-3.8-3.7-8.1-7.4-12.9-10.9c21.5,20.1,29.1,59,27.6,78.5l1.6,24.9l-11.6,17.7h38.3v-49.2
		c-2.7-15.7-4.7-39.7,0-59.3v-7.4c-2.1,3.6-3.9,7.3-5.3,11.1c-5.5,14.6-6.5,30.4-6,43.6C1037.1,972.9,1036.1,944.9,1036.3,930.8
		L1036.3,930.8z M137.5,931.1c-1.3,7.7-2.1,17.2-2.7,27.3c-1.2-3.3-2.6-5.9-4.2-7.5c2,13.7,2.6,44.1,1.5,63h-2.6
		c-2.9-15.8-4.8-52.8,4.8-78.6C135,933.2,136.1,932,137.5,931.1L137.5,931.1z M368.6,932.6c-0.7,4.6-1.3,9.8-1.8,15.4
		c-0.3-1.5-0.7-2.9-1-4.2c0-1.7,0-3.4,0-5.1C366.6,936.6,367.6,934.6,368.6,932.6L368.6,932.6z M629.5,933.8c0.1,0,0.2,0,0.3,0.1
		c0.5,0.3,0.5,4.5,0.6,6.1c0,1.2,0,2.5,0,3.7c-1.4-2.3-2.8-4.5-4.3-6.6C627.1,936.1,628.5,933.9,629.5,933.8L629.5,933.8z
		 M84.3,935.3c0.6,0.7,1.1,1.7,1.7,2.8c0.6,1.3,1.2,2.6,1.8,4c0,0.2,0,0.5,0,0.7c-1.4-0.6-3.1-1-4.2-1.5
		C83.7,939.2,84,937.2,84.3,935.3L84.3,935.3z M669,937.2c15.8,18.2,14.6,53.7,11.2,76.6h-4.5c-1-15.3-0.3-38.6,1.6-49.2
		c-3.8,3.1-6.4,10.9-8.4,19.9c-1.2-17.1-1.6-34.9-0.5-45.2c-0.1,0.2-0.3,0.4-0.4,0.7C668.3,939,668.6,938.1,669,937.2L669,937.2z
		 M878.4,937.3c0,0,0.1,0,0.2,0c0.5,0.3,0.6,4.5,0.6,6.1c0,2.6,0,5.3,0,8.1c-1,8.1-1.7,17.3-2.1,26.5c0-0.1,0-0.1-0.1-0.2
		c-1-8.8-2.6-16-5-19.3c0.1,1.1,0.1,2.4,0.2,3.8c-0.3-0.7-0.7-1.3-1.1-1.8c0.3-4.8,0.7-9.1,1.2-12.3c-0.9,0.9-1.8,2.2-2.6,3.8
		c0-1.4,0.1-2.6,0.2-3.8c-2.4,3.3-4,10.5-5,19.3c-0.4,1.7-0.7,3.5-1,5.4c-0.3-5.9-0.6-11.8-0.8-17.7c3-5.5,6.5-10.6,10.5-15
		c0.3,2.9,3.1-2.7,4.7-2.8C878.4,937.3,878.4,937.3,878.4,937.3L878.4,937.3z M875.8,937.8c-1,1.5-1.8,2.8-2.2,2.2
		C874.3,939.3,875.1,938.6,875.8,937.8z M247.9,938.4c0.4,3.8,0.5,8.6,0.5,13.9c-1.2-1.1-2.4-2.2-3.7-3.3
		C245.7,945.3,246.7,941.7,247.9,938.4L247.9,938.4z M299.4,938.5c-0.1,15.1-1,39.4-2.8,59.2c0.4-12-0.2-26-4.4-39.4
		C293.6,951,295.9,944.2,299.4,938.5L299.4,938.5z M451.8,940.6c0.6,1.5,1.1,3,1.6,4.6c-0.7,0.6-1.4,1.2-2.1,1.9
		C451.4,944.7,451.6,942.5,451.8,940.6L451.8,940.6z M884,941.7c2.4,3,4.6,6.2,6.6,9.7c-2.2,4.3-4,10.9-5.4,18.3
		c-0.3-5.8-0.7-11.4-1.3-16.6C883.9,949.1,883.9,945.3,884,941.7L884,941.7z M83.4,942.5c1.3,1.4,3.3,2.6,3.4,5.1
		c0.1,6.9,0,15.1-0.5,23.7c-1.1-5.8-2.4-11.1-3.9-15.3C82.5,951.5,82.8,947,83.4,942.5L83.4,942.5z M336.4,942.8
		c0,2.4-0.1,4.9-0.1,7.6c-0.3,4.3-0.6,8.5-0.9,12.8c-0.8-4.8-1.9-9.6-3.5-14.3C333.3,946.7,334.8,944.7,336.4,942.8L336.4,942.8z
		 M623.1,943.9c2.7,6.7,5,13.9,6.8,21.2c-0.2,4.8-0.4,9.8-0.7,14.6c-0.3-1.8-0.6-3.6-1-5.3c-1-8.8-2.6-16-5-19.3
		c0.1,1.1,0.1,2.4,0.2,3.8c-0.8-1.6-1.6-2.9-2.6-3.8c1.2,8.3,1.9,22.8,2.1,37.1c-0.4,7.7-0.9,15.3-1.5,21.8h-1.5
		C617.4,998.1,616.3,967.7,623.1,943.9L623.1,943.9z M405,946.1c4.1,13.2,4.6,29,3.7,43.1c-1.7-4.8-3.8-9.7-6.7-14.6
		C402,965,402.8,955.1,405,946.1z M501.4,947.3c1.2,5.4,2,11.1,2.6,16.8c-0.4,2-0.6,4.2-0.9,6.5c-0.4,1.7-0.7,3.5-1,5.4
		c-0.5-9.5-0.9-19.1-1.1-28L501.4,947.3L501.4,947.3z M434,947.5c0.5,0.7,0.8,1.5,0.8,2.5c0.1,5.4,0,11.5-0.2,18
		c-1.3,2.3-2.5,4.6-3.5,6.8c-0.7-2.5-1.4-4.7-2.3-6.5C429.7,961,431.4,953.8,434,947.5L434,947.5z M454,947.5
		c1.9,7.1,2.9,14.9,3.2,22.7c-1.8,3.5-3.2,8.1-4.4,13.2c0.3-7.6,0.9-14.4,1.8-19c-1.1,0.9-2.1,2.3-3.1,3.9c-0.2-6-0.3-11.6-0.2-16.7
		C452.1,950.3,453.1,948.9,454,947.5L454,947.5z M580.8,950.5c8.1,22.2,11.4,48.5,10.8,63.2l-28.1,30.9
		C563.1,1029.4,572.6,972.3,580.8,950.5L580.8,950.5z M203.9,950.8c8,22.2,11.3,48.4,10.7,63h-10.9
		C201.3,1001.5,199.4,974.6,203.9,950.8L203.9,950.8z M244.3,951.1c1.5,2,2.8,4,4.1,6.2c-0.1,7.9-0.5,16.6-1.1,25.2
		c-1.4-6.4-3.1-12.1-5.3-16C242.5,961.3,243.2,956.1,244.3,951.1L244.3,951.1z M381.1,952.3c1.4,1.7,2.7,3.6,3.9,5.4
		c-0.6,7.5-1,15.6-1.1,23.6c-1.1-3.4-2.4-6.9-4-10.4C380.1,963.9,380.5,957.4,381.1,952.3L381.1,952.3z M539.7,953.6
		c0.8,3.9,1.5,7.8,1.9,11.8c-0.9,3.5-1.8,7.5-2.5,11.6c-0.4-6.2-0.6-12.4-0.8-18.5C538.8,956.8,539.2,955.2,539.7,953.6L539.7,953.6
		z M892.4,954.6c10.6,20.1,14.4,44.9,13.3,59.2l-10.5,25.9C894,1023.8,890.9,971,892.4,954.6L892.4,954.6z M322.9,955.6
		c0.1,0.4,0.2,0.9,0.3,1.3C322.8,956.9,322.9,956.2,322.9,955.6z M495.1,958.2c-1.3,19.1-1.4,64.1-0.9,79l-11.4-23.4
		C482,999.8,485.6,977.2,495.1,958.2L495.1,958.2z M93.9,960.2c5.7,20.5,15.3,69.6,14.2,81.2l-13.7-27.6
		C94.9,1000.1,94.9,979.3,93.9,960.2L93.9,960.2z M446.5,960.4c-0.5,3.4-0.8,7.1-1.2,10.9c-0.1-2.6-0.2-5.2-0.3-7.8
		C445.5,962.4,446,961.4,446.5,960.4L446.5,960.4z M324.1,962.9c2.4,18,0.3,37.6-2,50.9h-8.6C313.1,1000.7,316.2,980.6,324.1,962.9
		L324.1,962.9z M254.3,968.7c6.7,15.4,9.9,32.5,10.2,45.1h-9.4C255.6,1001.9,255.6,984.3,254.3,968.7z M870.7,968.7
		c0.6,7.8,1,17.3,1,26.8c-0.1,2.1-0.3,4.2-0.4,6.2c-0.4-5.2-0.8-10.9-1.1-16.7C870.3,979.5,870.4,974,870.7,968.7L870.7,968.7z
		 M856.2,970.7c-0.6,16-0.4,31.9,0,43.1H849C848.5,1002.7,850.6,986.4,856.2,970.7z M427.9,981.6c0,0.4,0,0.9,0.1,1.3
		c0,0.1-0.1,0.1-0.1,0.2C427.8,982.7,427.8,982.1,427.9,981.6L427.9,981.6z M353.5,989.1c-0.2,8.8-0.2,17.4,0.1,24.7h-1.3
		c-0.6-4.5-0.6-11,0-18.5C352.7,993.3,353.1,991.2,353.5,989.1L353.5,989.1z M78,998.5l0.1,1.2l0,0.6c0,0.5,0,0.5,0,1H78l0.1-1
		C78,999.3,78,999.5,78,998.5z M78.1,1000.3l0.1,0.9h-0.1C78.1,1001.1,78.1,1000.4,78.1,1000.3z M999.1,1043.1l-5.6,13.3h7.4
		L999.1,1043.1z"/>
	<g transform="matrix(.1907 0 0 .15402 50.343 891.25)">
		
			<linearGradient id="SVGID_1_" gradientUnits="userSpaceOnUse" x1="10475.8555" y1="-20203.2168" x2="10468.5449" y2="-20523.1074" gradientTransform="matrix(0.1907 0 0 -0.154 -1787.2391 -2238.2065)">
			<stop  offset="0" style="stop-color:#80C93B"/>
			<stop  offset="1" style="stop-color:#2B4900"/>
		</linearGradient>
		<path class="st2" d="M175.9,678.3c13,87.8,15.4,304.1,3.6,390.5l65.7-8.9C241.3,970.2,226,728.7,175.9,678.3L175.9,678.3z"/>
		
			<linearGradient id="SVGID_2_" gradientUnits="userSpaceOnUse" x1="10545.5713" y1="-19647.2363" x2="10560.541" y2="-20052.9961" gradientTransform="matrix(0.1907 0 0 -0.154 -1787.2391 -2238.2065)">
			<stop  offset="0" style="stop-color:#80C93B"/>
			<stop  offset="1" style="stop-color:#2B4900"/>
		</linearGradient>
		<path class="st3" d="M224,509.9c11.1,129.2-5.6,435-28.8,555.4h66.3C269.6,937.3,266.9,591.3,224,509.9L224,509.9z"/>
	</g>
	<g transform="matrix(.1907 0 0 .1907 277.59 852.53)">
		
			<linearGradient id="SVGID_3_" gradientUnits="userSpaceOnUse" x1="9284.209" y1="-13232.8086" x2="9276.8984" y2="-13552.6992" gradientTransform="matrix(0.1907 0 0 -0.1907 -1559.9921 -1652.5013)">
			<stop  offset="0" style="stop-color:#80C93B"/>
			<stop  offset="1" style="stop-color:#2B4900"/>
		</linearGradient>
		<path class="st4" d="M175.9,675.8c13,87.8,15.4,304.1,3.6,390.5l65.7-8.9C241.3,967.8,226,726.2,175.9,675.8L175.9,675.8z"/>
		
			<linearGradient id="SVGID_4_" gradientUnits="userSpaceOnUse" x1="9353.9248" y1="-12783.7666" x2="9368.8945" y2="-13189.5273" gradientTransform="matrix(0.1907 0 0 -0.1907 -1559.9921 -1652.5013)">
			<stop  offset="0" style="stop-color:#80C93B"/>
			<stop  offset="1" style="stop-color:#2B4900"/>
		</linearGradient>
		<path class="st5" d="M224,507.4c11.1,129.2-5.6,435-28.8,555.4h66.3C269.6,934.8,266.9,588.8,224,507.4L224,507.4z"/>
	</g>
	<g transform="matrix(.1907 0 0 .1907 187.76 852.03)">
		
			<linearGradient id="SVGID_5_" gradientUnits="userSpaceOnUse" x1="13048.3984" y1="-12496.2988" x2="13077.7988" y2="-12949.0586" gradientTransform="matrix(0.1907 0 0 -0.1907 -1649.8221 -1652.0013)">
			<stop  offset="0" style="stop-color:#80C93B"/>
			<stop  offset="1" style="stop-color:#2B4900"/>
		</linearGradient>
		<path class="st6" d="M850,585.4c1.1,109.3-9.6,373.9-32.8,477.4h66.3C891.6,952.8,892.9,655.3,850,585.4L850,585.4z"/>
		
			<linearGradient id="SVGID_6_" gradientUnits="userSpaceOnUse" x1="12727.0752" y1="-12884.7842" x2="12728.0352" y2="-13270.5439" gradientTransform="matrix(0.1907 0 0 -0.1907 -1649.8221 -1652.0013)">
			<stop  offset="0" style="stop-color:#80C93B"/>
			<stop  offset="1" style="stop-color:#2B4900"/>
		</linearGradient>
		<path class="st7" d="M704,543.4c131.1,122.7,78.4,439.4,55.2,523.4h64.3C831.6,977.5,924.9,702.2,704,543.4L704,543.4z"/>
		
			<linearGradient id="SVGID_7_" gradientUnits="userSpaceOnUse" x1="13722.5107" y1="-13104.8691" x2="13694.8506" y2="-13456.6289" gradientTransform="matrix(0.1907 0 0 -0.1907 -1649.8221 -1652.0013)">
			<stop  offset="0" style="stop-color:#80C93B"/>
			<stop  offset="1" style="stop-color:#2B4900"/>
		</linearGradient>
		<path class="st8" d="M1076,609.4c-131.1,122.7-166.4,375.4-143.2,459.4h-64.3C860.4,979.5,855.1,768.2,1076,609.4L1076,609.4z"/>
	</g>
	<g transform="matrix(.1907 0 0 .1907 297.87 851.48)">
		
			<linearGradient id="SVGID_8_" gradientUnits="userSpaceOnUse" x1="8606.4004" y1="-13462.7529" x2="8600.5635" y2="-13718.043" gradientTransform="matrix(0.1907 0 0 -0.1907 -1539.712 -1651.4513)">
			<stop  offset="0" style="stop-color:#80C93B"/>
			<stop  offset="1" style="stop-color:#2B4900"/>
		</linearGradient>
		<path class="st9" d="M73.9,760c10.4,70.1,12.3,242.8,2.9,311.7l52.5-7.1C126.1,993.1,113.9,800.3,73.9,760L73.9,760z"/>
		
			<linearGradient id="SVGID_9_" gradientUnits="userSpaceOnUse" x1="8679.1396" y1="-13103.6543" x2="8691.0801" y2="-13427.4941" gradientTransform="matrix(0.1907 0 0 -0.1907 -1539.712 -1651.4513)">
			<stop  offset="0" style="stop-color:#80C93B"/>
			<stop  offset="1" style="stop-color:#2B4900"/>
		</linearGradient>
		<path class="st10" d="M94.3,640.6c1.3,14.8,24.1,19.4,24.5,39.2c2.5,117.9-13.6,306.9-29.5,389.2h53c5.6-88.6,13.7-305-6.6-403.3
			C132.6,650.6,98.9,649.3,94.3,640.6L94.3,640.6z"/>
	</g>
	<g transform="matrix(.1907 0 0 .1907 82.768 852.03)">
		
			<linearGradient id="SVGID_10_" gradientUnits="userSpaceOnUse" x1="11770.9951" y1="-11766.4395" x2="11676.9658" y2="-12356.2002" gradientTransform="matrix(0.1907 0 0 -0.1907 -1754.8141 -1652.0013)">
			<stop  offset="0" style="stop-color:#80C93B"/>
			<stop  offset="1" style="stop-color:#2B4900"/>
		</linearGradient>
		<path class="st11" d="M384,511.4c131.1,122.7,108.4,467.4,85.2,551.4h64.3C541.6,973.5,604.9,670.2,384,511.4L384,511.4z"/>
		
			<linearGradient id="SVGID_11_" gradientUnits="userSpaceOnUse" x1="12713.0586" y1="-12590.4453" x2="12605.9395" y2="-13030.4854" gradientTransform="matrix(0.1907 0 0 -0.1907 -1754.8141 -1652.0013)">
			<stop  offset="0" style="stop-color:#80C93B"/>
			<stop  offset="1" style="stop-color:#2B4900"/>
		</linearGradient>
		<path class="st12" d="M786,517.4c-131.1,122.7-174.4,467.4-151.2,551.4h-64.3C562.4,979.5,565.2,676.2,786,517.4L786,517.4z"/>
		
			<linearGradient id="SVGID_12_" gradientUnits="userSpaceOnUse" x1="12059.9443" y1="-12512.7178" x2="12068.2744" y2="-12969.4775" gradientTransform="matrix(0.1907 0 0 -0.1907 -1754.8141 -1652.0013)">
			<stop  offset="0" style="stop-color:#80C93B"/>
			<stop  offset="1" style="stop-color:#2B4900"/>
		</linearGradient>
		<path class="st13" d="M558,401.4c1.1,152.4-25.6,521.2-48.8,665.4h66.3C583.6,913.4,600.9,498.9,558,401.4L558,401.4z"/>
	</g>
	<g transform="matrix(-.1907 0 0 .1907 993.97 852.53)">
		
			<linearGradient id="SVGID_13_" gradientUnits="userSpaceOnUse" x1="18285.5039" y1="-13232.8086" x2="18278.1934" y2="-13552.6992" gradientTransform="matrix(-0.1907 0 0 -0.1907 3697.552 -1652.5013)">
			<stop  offset="0" style="stop-color:#80C93B"/>
			<stop  offset="1" style="stop-color:#2B4900"/>
		</linearGradient>
		<path class="st14" d="M175.9,675.8c13,87.8,15.4,304.1,3.6,390.5l65.7-8.9C241.3,967.8,226,726.2,175.9,675.8L175.9,675.8z"/>
		
			<linearGradient id="SVGID_14_" gradientUnits="userSpaceOnUse" x1="18220.6738" y1="-12783.9473" x2="18235.6426" y2="-13189.707" gradientTransform="matrix(-0.1907 0 0 -0.1907 3697.552 -1652.5013)">
			<stop  offset="0" style="stop-color:#80C93B"/>
			<stop  offset="1" style="stop-color:#2B4900"/>
		</linearGradient>
		<path class="st15" d="M222,575.4c11.1,129.2-3.6,367-26.8,487.4h66.3C269.6,934.8,264.9,656.8,222,575.4L222,575.4z"/>
	</g>
	<g transform="matrix(.1907 0 0 .1907 699.95 852.52)">
		
			<linearGradient id="SVGID_15_" gradientUnits="userSpaceOnUse" x1="10142.2598" y1="-14772.8184" x2="10134.9502" y2="-15092.7178" gradientTransform="matrix(0.1907 0 0 -0.1907 -1723.6321 -1946.2213)">
			<stop  offset="0" style="stop-color:#80C93B"/>
			<stop  offset="1" style="stop-color:#2B4900"/>
		</linearGradient>
		<path class="st16" d="M175.9,675.8c6.6,44.7,10.5,122.6,11.2,199.8c-3.5,72-9.4,142.7-16.2,183.3l9.8-0.8c-0.3,2.9-0.7,5.6-1,8.3
			l65.7-8.9c-2.6-59.1-10.2-184.4-29.4-277.3c-5.5-47.3-14.1-86.3-27-104.2c0.4,6.2,0.8,13,1,20.3
			C185.6,687.8,180.9,680.8,175.9,675.8L175.9,675.8z"/>
		
			<linearGradient id="SVGID_16_" gradientUnits="userSpaceOnUse" x1="7139.1533" y1="-12783.7139" x2="7154.123" y2="-13189.4736" gradientTransform="matrix(0.1907 0 0 -0.1907 -1137.6321 -1652.4913)">
			<stop  offset="0" style="stop-color:#80C93B"/>
			<stop  offset="1" style="stop-color:#2B4900"/>
		</linearGradient>
		<path class="st17" d="M197.3,576.6c1.5,17.8,18.9-18.6,27-14.6c2.8,1.3,3,24.3,3.1,32.9c1.3,148.5-13.3,369.8-32.2,468h66.3
			c6.2-98.8,6-327.3-14.1-463.9c-3.2-21.4-4-36.1-11-44.7C219.2,532.9,201.9,585.4,197.3,576.6L197.3,576.6z"/>
	</g>
	<g transform="matrix(.1907 0 0 .1907 25.563 852.03)">
		
			<linearGradient id="SVGID_17_" gradientUnits="userSpaceOnUse" x1="12005.2275" y1="-11755.958" x2="11911.1982" y2="-12345.7178" gradientTransform="matrix(0.1907 0 0 -0.1907 -1812.019 -1652.0013)">
			<stop  offset="0" style="stop-color:#80C93B"/>
			<stop  offset="1" style="stop-color:#2B4900"/>
		</linearGradient>
		<path class="st18" d="M350,563.4c28.2,26.4,83.3,11,98.8,53.2c56.6,153.8,38.7,380.3,20.4,446.3h64.3
			c6.8-74.9,52.3-300.4-63.5-464.9C447.8,566.4,385.6,589,350,563.4L350,563.4z"/>
		
			<linearGradient id="SVGID_18_" gradientUnits="userSpaceOnUse" x1="13060.2949" y1="-12601.9512" x2="12953.1748" y2="-13041.9912" gradientTransform="matrix(0.1907 0 0 -0.1907 -1812.019 -1652.0013)">
			<stop  offset="0" style="stop-color:#80C93B"/>
			<stop  offset="1" style="stop-color:#2B4900"/>
		</linearGradient>
		<path class="st19" d="M790,579.4c-30.4,28.4-60,6.7-81.2,52.9c-70.4,153.4-91.8,372-74,436.5h-64.3
			c-6.6-72.6-5.9-286.8,113.3-449.7C711.1,581.8,748.8,609.1,790,579.4L790,579.4z"/>
		
			<linearGradient id="SVGID_19_" gradientUnits="userSpaceOnUse" x1="12336.5996" y1="-12513.1426" x2="12344.9297" y2="-12969.9023" gradientTransform="matrix(0.1907 0 0 -0.1907 -1812.019 -1652.0013)">
			<stop  offset="0" style="stop-color:#80C93B"/>
			<stop  offset="1" style="stop-color:#2B4900"/>
		</linearGradient>
		<path class="st20" d="M544,392.6c0.2,27.1-46.5,57.1-47.9,95.4c-1.5,40.8,58.8,85.2,56.7,132.9c-7.1,159.4-28.8,354.6-43.5,445.9
			h66.3c6.3-120.8,12.4-288.6-3.7-450.9C567.5,572.2,553.1,413.4,544,392.6L544,392.6z"/>
	</g>
	<g transform="matrix(.1907 0 0 .1907 543.61 852.03)">
		
			<linearGradient id="SVGID_20_" gradientUnits="userSpaceOnUse" x1="11181.5244" y1="-12496.3545" x2="11210.9238" y2="-12949.1143" gradientTransform="matrix(0.1907 0 0 -0.1907 -1293.9722 -1652.0013)">
			<stop  offset="0" style="stop-color:#80C93B"/>
			<stop  offset="1" style="stop-color:#2B4900"/>
		</linearGradient>
		<path class="st21" d="M850,585.4c1.1,109.3-9.6,373.9-32.8,477.4h66.3c6-82,6.2-293.1-10.8-411.5c-1.2-8.3-8.5,16.8-9.9,9.2
			c-1.3-7,5.3-21.7,3.9-28.1C862.2,612.4,856.6,596.2,850,585.4L850,585.4z"/>
		
			<linearGradient id="SVGID_21_" gradientUnits="userSpaceOnUse" x1="10864.6748" y1="-12884.7754" x2="10865.6348" y2="-13270.5352" gradientTransform="matrix(0.1907 0 0 -0.1907 -1293.9722 -1652.0013)">
			<stop  offset="0" style="stop-color:#80C93B"/>
			<stop  offset="1" style="stop-color:#2B4900"/>
		</linearGradient>
		<path class="st22" d="M720,567.4c19.7,18.4,20.2,26.2,32.3,51.8c4.7,9.9,7.9,11.3,11.6,22c50.6,146.5,13.7,359.1-4.6,425.6h64.3
			c6.1-67.2,32.6-228.8-20.9-370.2C785,650,758.6,605.5,720,567.4L720,567.4z"/>
		
			<linearGradient id="SVGID_22_" gradientUnits="userSpaceOnUse" x1="11856.4912" y1="-13104.8691" x2="11828.8311" y2="-13456.6289" gradientTransform="matrix(0.1907 0 0 -0.1907 -1293.9722 -1652.0013)">
			<stop  offset="0" style="stop-color:#80C93B"/>
			<stop  offset="1" style="stop-color:#2B4900"/>
		</linearGradient>
		<path class="st23" d="M1076,609.4c-131.1,122.7-166.4,375.4-143.2,459.4h-64.3c-6.5-72.5-11.2-225.6,105.6-365.6
			c5.7-6.8-0.4,15.4,5.9,8.7c4.6-5,21.4-38.9,26.3-43.8C1026.5,648,1049.7,628.3,1076,609.4L1076,609.4z"/>
	</g>
	<g transform="matrix(-.1907 0 0 .1907 801.17 852.03)">
		
			<linearGradient id="SVGID_23_" gradientUnits="userSpaceOnUse" x1="15809.3203" y1="-11766.4395" x2="15715.29" y2="-12356.2002" gradientTransform="matrix(-0.1907 0 0 -0.1907 3504.752 -1652.0013)">
			<stop  offset="0" style="stop-color:#80C93B"/>
			<stop  offset="1" style="stop-color:#2B4900"/>
		</linearGradient>
		<path class="st24" d="M384,511.4c131.1,122.7,108.4,467.4,85.2,551.4h64.3C541.6,973.5,604.9,670.2,384,511.4L384,511.4z"/>
		
			<linearGradient id="SVGID_24_" gradientUnits="userSpaceOnUse" x1="14867.2568" y1="-12590.4453" x2="14760.1367" y2="-13030.4854" gradientTransform="matrix(-0.1907 0 0 -0.1907 3504.752 -1652.0013)">
			<stop  offset="0" style="stop-color:#80C93B"/>
			<stop  offset="1" style="stop-color:#2B4900"/>
		</linearGradient>
		<path class="st25" d="M786,517.4c-131.1,122.7-174.4,467.4-151.2,551.4h-64.3C562.4,979.5,565.2,676.2,786,517.4L786,517.4z"/>
		
			<linearGradient id="SVGID_25_" gradientUnits="userSpaceOnUse" x1="15520.3721" y1="-12512.7178" x2="15528.7021" y2="-12969.4775" gradientTransform="matrix(-0.1907 0 0 -0.1907 3504.752 -1652.0013)">
			<stop  offset="0" style="stop-color:#80C93B"/>
			<stop  offset="1" style="stop-color:#2B4900"/>
		</linearGradient>
		<path class="st26" d="M558,401.4c1.1,152.4-25.6,521.2-48.8,665.4h66.3C583.6,913.4,600.9,498.9,558,401.4L558,401.4z"/>
	</g>
	<g transform="matrix(-.1907 0 0 .15402 953.37 891.25)">
		
			<linearGradient id="SVGID_26_" gradientUnits="userSpaceOnUse" x1="18072.6035" y1="-20203.2168" x2="18065.2949" y2="-20523.1074" gradientTransform="matrix(-0.1907 0 0 -0.154 3656.9519 -2238.2065)">
			<stop  offset="0" style="stop-color:#80C93B"/>
			<stop  offset="1" style="stop-color:#2B4900"/>
		</linearGradient>
		<path class="st27" d="M175.9,678.3c13,87.8,15.4,304.1,3.6,390.5l65.7-8.9C241.3,970.2,226,728.7,175.9,678.3L175.9,678.3z"/>
		
			<linearGradient id="SVGID_27_" gradientUnits="userSpaceOnUse" x1="18002.8887" y1="-19647.2363" x2="18017.8594" y2="-20052.9961" gradientTransform="matrix(-0.1907 0 0 -0.154 3656.9519 -2238.2065)">
			<stop  offset="0" style="stop-color:#80C93B"/>
			<stop  offset="1" style="stop-color:#2B4900"/>
		</linearGradient>
		<path class="st28" d="M224,509.9c11.1,129.2-5.6,435-28.8,555.4h66.3C269.6,937.3,266.9,591.3,224,509.9L224,509.9z"/>
	</g>
	<g transform="matrix(-.1907 0 0 .1907 362.09 851.48)">
		
			<linearGradient id="SVGID_28_" gradientUnits="userSpaceOnUse" x1="15543.4902" y1="-13462.7529" x2="15537.6533" y2="-13718.043" gradientTransform="matrix(-0.1907 0 0 -0.1907 3065.6721 -1651.4513)">
			<stop  offset="0" style="stop-color:#80C93B"/>
			<stop  offset="1" style="stop-color:#2B4900"/>
		</linearGradient>
		<path class="st29" d="M73.9,760c10.4,70.1,12.3,242.8,2.9,311.7l52.5-7.1C126.1,993.1,113.9,800.3,73.9,760L73.9,760z"/>
		
			<linearGradient id="SVGID_29_" gradientUnits="userSpaceOnUse" x1="15470.752" y1="-13103.6543" x2="15482.6914" y2="-13427.4941" gradientTransform="matrix(-0.1907 0 0 -0.1907 3065.6721 -1651.4513)">
			<stop  offset="0" style="stop-color:#80C93B"/>
			<stop  offset="1" style="stop-color:#2B4900"/>
		</linearGradient>
		<path class="st30" d="M94.3,640.6c1.3,14.8,24.1,19.4,24.5,39.2c2.5,117.9-13.6,306.9-29.5,389.2h53c5.6-88.6,13.7-305-6.6-403.3
			C132.6,650.6,98.9,649.3,94.3,640.6L94.3,640.6z"/>
	</g>
	<g transform="matrix(-.1907 0 0 .1907 150.66 852.03)">
		
			<linearGradient id="SVGID_30_" gradientUnits="userSpaceOnUse" x1="12463.8926" y1="-11755.958" x2="12369.8623" y2="-12345.7178" gradientTransform="matrix(-0.1907 0 0 -0.1907 2854.2419 -1652.0013)">
			<stop  offset="0" style="stop-color:#80C93B"/>
			<stop  offset="1" style="stop-color:#2B4900"/>
		</linearGradient>
		<path class="st31" d="M350,563.4c28.2,26.4,83.3,11,98.8,53.2c56.6,153.8,38.7,380.3,20.4,446.3h64.3
			c6.8-74.9,52.3-300.4-63.5-464.9C447.8,566.4,385.6,589,350,563.4L350,563.4z"/>
		
			<linearGradient id="SVGID_31_" gradientUnits="userSpaceOnUse" x1="11408.8262" y1="-12601.9512" x2="11301.7061" y2="-13041.9912" gradientTransform="matrix(-0.1907 0 0 -0.1907 2854.2419 -1652.0013)">
			<stop  offset="0" style="stop-color:#80C93B"/>
			<stop  offset="1" style="stop-color:#2B4900"/>
		</linearGradient>
		<path class="st32" d="M790,579.4c-30.4,28.4-60,6.7-81.2,52.9c-70.4,153.4-91.8,372-74,436.5h-64.3
			c-6.6-72.6-5.9-286.8,113.3-449.7C711.1,581.8,748.8,609.1,790,579.4L790,579.4z"/>
		
			<linearGradient id="SVGID_32_" gradientUnits="userSpaceOnUse" x1="12068.8828" y1="-12511.9824" x2="12077.2129" y2="-12968.7422" gradientTransform="matrix(-0.1907 0 0 -0.1907 2854.2419 -1652.0013)">
			<stop  offset="0" style="stop-color:#80C93B"/>
			<stop  offset="1" style="stop-color:#2B4900"/>
		</linearGradient>
		<path class="st33" d="M595,405.4c0.2,27.1-46.5,57.1-47.9,95.4c-1.5,40.8,7.7,72.5,5.6,120.1c-7.1,159.4-28.8,354.6-43.5,445.9
			h66.3c6.3-120.8,12.4-288.6-3.7-450.9C567.5,572.2,604.1,426.1,595,405.4L595,405.4z"/>
	</g>
	<g transform="matrix(-.1907 0 0 .1907 180.86 852.52)">
		
			<linearGradient id="SVGID_33_" gradientUnits="userSpaceOnUse" x1="10948.8477" y1="-14772.8184" x2="10941.5371" y2="-15092.7178" gradientTransform="matrix(-0.1907 0 0 -0.1907 2298.4421 -1946.2213)">
			<stop  offset="0" style="stop-color:#80C93B"/>
			<stop  offset="1" style="stop-color:#2B4900"/>
		</linearGradient>
		<path class="st34" d="M175.9,675.8c6.6,44.7,10.5,122.6,11.2,199.8c-3.5,72-9.4,142.7-16.2,183.3l9.8-0.8c-0.3,2.9-0.7,5.6-1,8.3
			l65.7-8.9c-2.6-59.1-10.2-184.4-29.4-277.3c-5.5-47.3-14.1-86.3-27-104.2c0.4,6.2,0.8,13,1,20.3
			C185.6,687.8,180.9,680.8,175.9,675.8L175.9,675.8z"/>
		
			<linearGradient id="SVGID_34_" gradientUnits="userSpaceOnUse" x1="13951.9541" y1="-12783.7139" x2="13966.9248" y2="-13189.4736" gradientTransform="matrix(-0.1907 0 0 -0.1907 2884.4421 -1652.4913)">
			<stop  offset="0" style="stop-color:#80C93B"/>
			<stop  offset="1" style="stop-color:#2B4900"/>
		</linearGradient>
		<path class="st35" d="M197.3,576.6c1.5,17.8,18.9-18.6,27-14.6c2.8,1.3,3,24.3,3.1,32.9c1.3,148.5-13.3,369.8-32.2,468h66.3
			c6.2-98.8,6-327.3-14.1-463.9c-3.2-21.4-4-36.1-11-44.7C219.2,532.9,201.9,585.4,197.3,576.6L197.3,576.6z"/>
	</g>
	<g transform="matrix(-.1907 0 0 .1907 978.96 852.53)">
		
			<linearGradient id="SVGID_35_" gradientUnits="userSpaceOnUse" x1="18206.7949" y1="-13232.8086" x2="18199.4844" y2="-13552.6992" gradientTransform="matrix(-0.1907 0 0 -0.1907 3682.542 -1652.5013)">
			<stop  offset="0" style="stop-color:#80C93B"/>
			<stop  offset="1" style="stop-color:#2B4900"/>
		</linearGradient>
		<path class="st36" d="M175.9,675.8c13,87.8,15.4,304.1,3.6,390.5l65.7-8.9C241.3,967.8,226,726.2,175.9,675.8L175.9,675.8z"/>
		
			<linearGradient id="SVGID_36_" gradientUnits="userSpaceOnUse" x1="18137.0781" y1="-12783.7666" x2="18152.0488" y2="-13189.5273" gradientTransform="matrix(-0.1907 0 0 -0.1907 3682.542 -1652.5013)">
			<stop  offset="0" style="stop-color:#80C93B"/>
			<stop  offset="1" style="stop-color:#2B4900"/>
		</linearGradient>
		<path class="st37" d="M224,507.4c11.1,129.2-5.6,435-28.8,555.4h66.3C269.6,934.8,266.9,588.8,224,507.4L224,507.4z"/>
	</g>
	<g transform="matrix(-.1907 0 0 .1907 545.31 852.03)">
		
			<linearGradient id="SVGID_37_" gradientUnits="userSpaceOnUse" x1="12640.5225" y1="-12496.3545" x2="12669.9229" y2="-12949.1143" gradientTransform="matrix(-0.1907 0 0 -0.1907 3248.8921 -1652.0013)">
			<stop  offset="0" style="stop-color:#80C93B"/>
			<stop  offset="1" style="stop-color:#2B4900"/>
		</linearGradient>
		<path class="st38" d="M850,585.4c1.1,109.3-9.6,373.9-32.8,477.4h66.3c6-82,6.2-293.1-10.8-411.5c-1.2-8.3-8.5,16.8-9.9,9.2
			c-1.3-7,5.3-21.7,3.9-28.1C862.2,612.4,856.6,596.2,850,585.4L850,585.4z"/>
		
			<linearGradient id="SVGID_38_" gradientUnits="userSpaceOnUse" x1="12957.3721" y1="-12884.7754" x2="12958.332" y2="-13270.5352" gradientTransform="matrix(-0.1907 0 0 -0.1907 3248.8921 -1652.0013)">
			<stop  offset="0" style="stop-color:#80C93B"/>
			<stop  offset="1" style="stop-color:#2B4900"/>
		</linearGradient>
		<path class="st39" d="M720,567.4c19.7,18.4,20.2,26.2,32.3,51.8c4.7,9.9,7.9,11.3,11.6,22c50.6,146.5,13.7,359.1-4.6,425.6h64.3
			c6.1-67.2,32.6-228.8-20.9-370.2C785,650,758.6,605.5,720,567.4L720,567.4z"/>
		
			<linearGradient id="SVGID_39_" gradientUnits="userSpaceOnUse" x1="11965.5557" y1="-13104.8691" x2="11937.8955" y2="-13456.6289" gradientTransform="matrix(-0.1907 0 0 -0.1907 3248.8921 -1652.0013)">
			<stop  offset="0" style="stop-color:#80C93B"/>
			<stop  offset="1" style="stop-color:#2B4900"/>
		</linearGradient>
		<path class="st40" d="M1076,609.4c-131.1,122.7-166.4,375.4-143.2,459.4h-64.3c-6.5-72.5-11.2-225.6,105.6-365.6
			c5.7-6.8-0.4,15.4,5.9,8.7c4.6-5,21.4-38.9,26.3-43.8C1026.5,648,1049.7,628.3,1076,609.4L1076,609.4z"/>
	</g>
	<g transform="matrix(-.1907 0 0 .1907 812.14 852.03)">
		
			<linearGradient id="SVGID_40_" gradientUnits="userSpaceOnUse" x1="14038.8818" y1="-12496.2988" x2="14068.2812" y2="-12949.0586" gradientTransform="matrix(-0.1907 0 0 -0.1907 3515.7222 -1652.0013)">
			<stop  offset="0" style="stop-color:#80C93B"/>
			<stop  offset="1" style="stop-color:#2B4900"/>
		</linearGradient>
		<path class="st41" d="M850,585.4c1.1,109.3-9.6,373.9-32.8,477.4h66.3C891.6,952.8,892.9,655.3,850,585.4L850,585.4z"/>
		
			<linearGradient id="SVGID_41_" gradientUnits="userSpaceOnUse" x1="14360.2051" y1="-12884.7842" x2="14361.165" y2="-13270.5439" gradientTransform="matrix(-0.1907 0 0 -0.1907 3515.7222 -1652.0013)">
			<stop  offset="0" style="stop-color:#80C93B"/>
			<stop  offset="1" style="stop-color:#2B4900"/>
		</linearGradient>
		<path class="st42" d="M704,543.4c131.1,122.7,78.4,439.4,55.2,523.4h64.3C831.6,977.5,924.9,702.2,704,543.4L704,543.4z"/>
		
			<linearGradient id="SVGID_42_" gradientUnits="userSpaceOnUse" x1="13364.7686" y1="-13104.8691" x2="13337.1084" y2="-13456.6289" gradientTransform="matrix(-0.1907 0 0 -0.1907 3515.7222 -1652.0013)">
			<stop  offset="0" style="stop-color:#80C93B"/>
			<stop  offset="1" style="stop-color:#2B4900"/>
		</linearGradient>
		<path class="st43" d="M1076,609.4c-131.1,122.7-166.4,375.4-143.2,459.4h-64.3C860.4,979.5,855.1,768.2,1076,609.4L1076,609.4z"/>
	</g>
	<g transform="matrix(.1907 0 0 .15402 719.59 891.25)">
		
			<linearGradient id="SVGID_43_" gradientUnits="userSpaceOnUse" x1="6966.4321" y1="-20203.2168" x2="6959.1221" y2="-20523.1074" gradientTransform="matrix(0.1907 0 0 -0.154 -1117.9921 -2238.2065)">
			<stop  offset="0" style="stop-color:#80C93B"/>
			<stop  offset="1" style="stop-color:#2B4900"/>
		</linearGradient>
		<path class="st44" d="M175.9,678.3c13,87.8,15.4,304.1,3.6,390.5l65.7-8.9C241.3,970.2,226,728.7,175.9,678.3L175.9,678.3z"/>
		
			<linearGradient id="SVGID_44_" gradientUnits="userSpaceOnUse" x1="7036.1479" y1="-19647.2363" x2="7051.1182" y2="-20052.9961" gradientTransform="matrix(0.1907 0 0 -0.154 -1117.9921 -2238.2065)">
			<stop  offset="0" style="stop-color:#80C93B"/>
			<stop  offset="1" style="stop-color:#2B4900"/>
		</linearGradient>
		<path class="st45" d="M224,509.9c11.1,129.2-5.6,435-28.8,555.4h66.3C269.6,937.3,266.9,591.3,224,509.9L224,509.9z"/>
	</g>
	<g transform="matrix(.1907 0 0 .1907 66.961 852.53)">
		
			<linearGradient id="SVGID_45_" gradientUnits="userSpaceOnUse" x1="10388.7129" y1="-13232.8086" x2="10381.4033" y2="-13552.6992" gradientTransform="matrix(0.1907 0 0 -0.1907 -1770.6211 -1652.5013)">
			<stop  offset="0" style="stop-color:#80C93B"/>
			<stop  offset="1" style="stop-color:#2B4900"/>
		</linearGradient>
		<path class="st46" d="M175.9,675.8c13,87.8,15.4,304.1,3.6,390.5l65.7-8.9C241.3,967.8,226,726.2,175.9,675.8L175.9,675.8z"/>
		
			<linearGradient id="SVGID_46_" gradientUnits="userSpaceOnUse" x1="10458.4287" y1="-12783.7666" x2="10473.3994" y2="-13189.5273" gradientTransform="matrix(0.1907 0 0 -0.1907 -1770.6211 -1652.5013)">
			<stop  offset="0" style="stop-color:#80C93B"/>
			<stop  offset="1" style="stop-color:#2B4900"/>
		</linearGradient>
		<path class="st47" d="M224,507.4c11.1,129.2-5.6,435-28.8,555.4h66.3C269.6,934.8,266.9,588.8,224,507.4L224,507.4z"/>
	</g>
	<g transform="matrix(.1907 0 0 .1907 -93.649 852.03)">
		
			<linearGradient id="SVGID_47_" gradientUnits="userSpaceOnUse" x1="14524.0615" y1="-12496.2988" x2="14553.4619" y2="-12949.0586" gradientTransform="matrix(0.1907 0 0 -0.1907 -1931.2311 -1652.0013)">
			<stop  offset="0" style="stop-color:#80C93B"/>
			<stop  offset="1" style="stop-color:#2B4900"/>
		</linearGradient>
		<path class="st48" d="M850,585.4c1.1,109.3-9.6,373.9-32.8,477.4h66.3C891.6,952.8,892.9,655.3,850,585.4L850,585.4z"/>
		
			<linearGradient id="SVGID_48_" gradientUnits="userSpaceOnUse" x1="14202.7383" y1="-12884.7842" x2="14203.6982" y2="-13270.5439" gradientTransform="matrix(0.1907 0 0 -0.1907 -1931.2311 -1652.0013)">
			<stop  offset="0" style="stop-color:#80C93B"/>
			<stop  offset="1" style="stop-color:#2B4900"/>
		</linearGradient>
		<path class="st49" d="M704,543.4c131.1,122.7,78.4,439.4,55.2,523.4h64.3C831.6,977.5,924.9,702.2,704,543.4L704,543.4z"/>
		
			<linearGradient id="SVGID_49_" gradientUnits="userSpaceOnUse" x1="15198.1748" y1="-13104.8691" x2="15170.5146" y2="-13456.6289" gradientTransform="matrix(0.1907 0 0 -0.1907 -1931.2311 -1652.0013)">
			<stop  offset="0" style="stop-color:#80C93B"/>
			<stop  offset="1" style="stop-color:#2B4900"/>
		</linearGradient>
		<path class="st50" d="M1076,609.4c-131.1,122.7-166.4,375.4-143.2,459.4h-64.3C860.4,979.5,855.1,768.2,1076,609.4L1076,609.4z"/>
	</g>
	<g transform="matrix(.1907 0 0 .1907 952.7 851.48)">
		
			<linearGradient id="SVGID_50_" gradientUnits="userSpaceOnUse" x1="5172.5776" y1="-13462.7529" x2="5166.7407" y2="-13718.043" gradientTransform="matrix(0.1907 0 0 -0.1907 -884.8821 -1651.4513)">
			<stop  offset="0" style="stop-color:#80C93B"/>
			<stop  offset="1" style="stop-color:#2B4900"/>
		</linearGradient>
		<path class="st51" d="M73.9,760c10.4,70.1,12.3,242.8,2.9,311.7l52.5-7.1C126.1,993.1,113.9,800.3,73.9,760L73.9,760z"/>
		
			<linearGradient id="SVGID_51_" gradientUnits="userSpaceOnUse" x1="5245.3169" y1="-13103.6543" x2="5257.2568" y2="-13427.4941" gradientTransform="matrix(0.1907 0 0 -0.1907 -884.8821 -1651.4513)">
			<stop  offset="0" style="stop-color:#80C93B"/>
			<stop  offset="1" style="stop-color:#2B4900"/>
		</linearGradient>
		<path class="st52" d="M94.3,640.6c1.3,14.8,24.1,19.4,24.5,39.2c2.5,117.9-13.6,306.9-29.5,389.2h53c5.6-88.6,13.7-305-6.6-403.3
			C132.6,650.6,98.9,649.3,94.3,640.6L94.3,640.6z"/>
	</g>
	<g transform="matrix(.1907 0 0 .1907 319.15 852.03)">
		
			<linearGradient id="SVGID_52_" gradientUnits="userSpaceOnUse" x1="10531.4463" y1="-11766.4395" x2="10437.417" y2="-12356.2002" gradientTransform="matrix(0.1907 0 0 -0.1907 -1518.4321 -1652.0013)">
			<stop  offset="0" style="stop-color:#80C93B"/>
			<stop  offset="1" style="stop-color:#2B4900"/>
		</linearGradient>
		<path class="st53" d="M384,511.4c131.1,122.7,108.4,467.4,85.2,551.4h64.3C541.6,973.5,604.9,670.2,384,511.4L384,511.4z"/>
		
			<linearGradient id="SVGID_53_" gradientUnits="userSpaceOnUse" x1="11473.5098" y1="-12590.4453" x2="11366.3896" y2="-13030.4854" gradientTransform="matrix(0.1907 0 0 -0.1907 -1518.4321 -1652.0013)">
			<stop  offset="0" style="stop-color:#80C93B"/>
			<stop  offset="1" style="stop-color:#2B4900"/>
		</linearGradient>
		<path class="st54" d="M786,517.4c-131.1,122.7-174.4,467.4-151.2,551.4h-64.3C562.4,979.5,565.2,676.2,786,517.4L786,517.4z"/>
		
			<linearGradient id="SVGID_54_" gradientUnits="userSpaceOnUse" x1="10820.3945" y1="-12512.7178" x2="10828.7246" y2="-12969.4775" gradientTransform="matrix(0.1907 0 0 -0.1907 -1518.4321 -1652.0013)">
			<stop  offset="0" style="stop-color:#80C93B"/>
			<stop  offset="1" style="stop-color:#2B4900"/>
		</linearGradient>
		<path class="st55" d="M558,401.4c1.1,152.4-25.6,521.2-48.8,665.4h66.3C583.6,913.4,600.9,498.9,558,401.4L558,401.4z"/>
	</g>
	<g transform="matrix(-.1907 0 0 .1907 203.01 852.53)">
		
			<linearGradient id="SVGID_55_" gradientUnits="userSpaceOnUse" x1="14137.8379" y1="-13232.8086" x2="14130.5273" y2="-13552.6992" gradientTransform="matrix(-0.1907 0 0 -0.1907 2906.592 -1652.5013)">
			<stop  offset="0" style="stop-color:#80C93B"/>
			<stop  offset="1" style="stop-color:#2B4900"/>
		</linearGradient>
		<path class="st56" d="M175.9,675.8c13,87.8,15.4,304.1,3.6,390.5l65.7-8.9C241.3,967.8,226,726.2,175.9,675.8L175.9,675.8z"/>
		
			<linearGradient id="SVGID_56_" gradientUnits="userSpaceOnUse" x1="14073.0068" y1="-12783.9473" x2="14087.9766" y2="-13189.707" gradientTransform="matrix(-0.1907 0 0 -0.1907 2906.592 -1652.5013)">
			<stop  offset="0" style="stop-color:#80C93B"/>
			<stop  offset="1" style="stop-color:#2B4900"/>
		</linearGradient>
		<path class="st57" d="M222,575.4c11.1,129.2-3.6,367-26.8,487.4h66.3C269.6,934.8,264.9,656.8,222,575.4L222,575.4z"/>
	</g>
	<g transform="matrix(.1907 0 0 .1907 770.9 852.52)">
		
			<linearGradient id="SVGID_57_" gradientUnits="userSpaceOnUse" x1="9770.21" y1="-14772.8184" x2="9762.8994" y2="-15092.7178" gradientTransform="matrix(0.1907 0 0 -0.1907 -1652.682 -1946.2213)">
			<stop  offset="0" style="stop-color:#80C93B"/>
			<stop  offset="1" style="stop-color:#2B4900"/>
		</linearGradient>
		<path class="st58" d="M175.9,675.8c6.6,44.7,10.5,122.6,11.2,199.8c-3.5,72-9.4,142.7-16.2,183.3l9.8-0.8c-0.3,2.9-0.7,5.6-1,8.3
			l65.7-8.9c-2.6-59.1-10.2-184.4-29.4-277.3c-5.5-47.3-14.1-86.3-27-104.2c0.4,6.2,0.8,13,1,20.3
			C185.6,687.8,180.9,680.8,175.9,675.8L175.9,675.8z"/>
		
			<linearGradient id="SVGID_58_" gradientUnits="userSpaceOnUse" x1="6767.103" y1="-12783.7139" x2="6782.0728" y2="-13189.4736" gradientTransform="matrix(0.1907 0 0 -0.1907 -1066.6821 -1652.4913)">
			<stop  offset="0" style="stop-color:#80C93B"/>
			<stop  offset="1" style="stop-color:#2B4900"/>
		</linearGradient>
		<path class="st59" d="M197.3,576.6c1.5,17.8,18.9-18.6,27-14.6c2.8,1.3,3,24.3,3.1,32.9c1.3,148.5-13.3,369.8-32.2,468h66.3
			c6.2-98.8,6-327.3-14.1-463.9c-3.2-21.4-4-36.1-11-44.7C219.2,532.9,201.9,585.4,197.3,576.6L197.3,576.6z"/>
	</g>
	<g transform="matrix(.1907 0 0 .1907 781.97 852.03)">
		
			<linearGradient id="SVGID_59_" gradientUnits="userSpaceOnUse" x1="8038.752" y1="-11755.958" x2="7944.7222" y2="-12345.7178" gradientTransform="matrix(0.1907 0 0 -0.1907 -1055.6122 -1652.0013)">
			<stop  offset="0" style="stop-color:#80C93B"/>
			<stop  offset="1" style="stop-color:#2B4900"/>
		</linearGradient>
		<path class="st60" d="M350,563.4c28.2,26.4,83.3,11,98.8,53.2c56.6,153.8,38.7,380.3,20.4,446.3h64.3
			c6.8-74.9,52.3-300.4-63.5-464.9C447.8,566.4,385.6,589,350,563.4L350,563.4z"/>
		
			<linearGradient id="SVGID_60_" gradientUnits="userSpaceOnUse" x1="9093.8184" y1="-12601.9512" x2="8986.6982" y2="-13041.9912" gradientTransform="matrix(0.1907 0 0 -0.1907 -1055.6122 -1652.0013)">
			<stop  offset="0" style="stop-color:#80C93B"/>
			<stop  offset="1" style="stop-color:#2B4900"/>
		</linearGradient>
		<path class="st61" d="M790,579.4c-30.4,28.4-60,6.7-81.2,52.9c-70.4,153.4-91.8,372-74,436.5h-64.3
			c-6.6-72.6-5.9-286.8,113.3-449.7C711.1,581.8,748.8,609.1,790,579.4L790,579.4z"/>
		
			<linearGradient id="SVGID_61_" gradientUnits="userSpaceOnUse" x1="8433.7617" y1="-12511.9824" x2="8442.0918" y2="-12968.7422" gradientTransform="matrix(0.1907 0 0 -0.1907 -1055.6122 -1652.0013)">
			<stop  offset="0" style="stop-color:#80C93B"/>
			<stop  offset="1" style="stop-color:#2B4900"/>
		</linearGradient>
		<path class="st62" d="M595,405.4c0.2,27.1-46.5,57.1-47.9,95.4c-1.5,40.8,7.7,72.5,5.6,120.1c-7.1,159.4-28.8,354.6-43.5,445.9
			h66.3c6.3-120.8,12.4-288.6-3.7-450.9C567.5,572.2,604.1,426.1,595,405.4L595,405.4z"/>
	</g>
	<g transform="matrix(.1907 0 0 .1907 73.294 852.03)">
		
			<linearGradient id="SVGID_62_" gradientUnits="userSpaceOnUse" x1="13647.7852" y1="-12496.3545" x2="13677.1855" y2="-12949.1143" gradientTransform="matrix(0.1907 0 0 -0.1907 -1764.2881 -1652.0013)">
			<stop  offset="0" style="stop-color:#80C93B"/>
			<stop  offset="1" style="stop-color:#2B4900"/>
		</linearGradient>
		<path class="st63" d="M850,585.4c1.1,109.3-9.6,373.9-32.8,477.4h66.3c6-82,6.2-293.1-10.8-411.5c-1.2-8.3-8.5,16.8-9.9,9.2
			c-1.3-7,5.3-21.7,3.9-28.1C862.2,612.4,856.6,596.2,850,585.4L850,585.4z"/>
		
			<linearGradient id="SVGID_63_" gradientUnits="userSpaceOnUse" x1="13330.9355" y1="-12884.7754" x2="13331.8955" y2="-13270.5352" gradientTransform="matrix(0.1907 0 0 -0.1907 -1764.2881 -1652.0013)">
			<stop  offset="0" style="stop-color:#80C93B"/>
			<stop  offset="1" style="stop-color:#2B4900"/>
		</linearGradient>
		<path class="st64" d="M720,567.4c19.7,18.4,20.2,26.2,32.3,51.8c4.7,9.9,7.9,11.3,11.6,22c50.6,146.5,13.7,359.1-4.6,425.6h64.3
			c6.1-67.2,32.6-228.8-20.9-370.2C785,650,758.6,605.5,720,567.4L720,567.4z"/>
		
			<linearGradient id="SVGID_64_" gradientUnits="userSpaceOnUse" x1="14322.752" y1="-13104.8691" x2="14295.0918" y2="-13456.6289" gradientTransform="matrix(0.1907 0 0 -0.1907 -1764.2881 -1652.0013)">
			<stop  offset="0" style="stop-color:#80C93B"/>
			<stop  offset="1" style="stop-color:#2B4900"/>
		</linearGradient>
		<path class="st65" d="M1076,609.4c-131.1,122.7-166.4,375.4-143.2,459.4h-64.3c-6.5-72.5-11.2-225.6,105.6-365.6
			c5.7-6.8-0.4,15.4,5.9,8.7c4.6-5,21.4-38.9,26.3-43.8C1026.5,648,1049.7,628.3,1076,609.4L1076,609.4z"/>
	</g>
	<g transform="matrix(-.1907 0 0 .1907 1125.6 852.03)">
		
			<linearGradient id="SVGID_65_" gradientUnits="userSpaceOnUse" x1="17510.5781" y1="-11766.4395" x2="17416.5488" y2="-12356.2002" gradientTransform="matrix(-0.1907 0 0 -0.1907 3829.1819 -1652.0013)">
			<stop  offset="0" style="stop-color:#80C93B"/>
			<stop  offset="1" style="stop-color:#2B4900"/>
		</linearGradient>
		<path class="st66" d="M384,511.4c131.1,122.7,108.4,467.4,85.2,551.4h64.3C541.6,973.5,604.9,670.2,384,511.4L384,511.4z"/>
		
			<linearGradient id="SVGID_66_" gradientUnits="userSpaceOnUse" x1="16568.5156" y1="-12590.4453" x2="16461.3945" y2="-13030.4854" gradientTransform="matrix(-0.1907 0 0 -0.1907 3829.1819 -1652.0013)">
			<stop  offset="0" style="stop-color:#80C93B"/>
			<stop  offset="1" style="stop-color:#2B4900"/>
		</linearGradient>
		<path class="st67" d="M786,517.4c-131.1,122.7-174.4,467.4-151.2,551.4h-64.3C562.4,979.5,565.2,676.2,786,517.4L786,517.4z"/>
		
			<linearGradient id="SVGID_67_" gradientUnits="userSpaceOnUse" x1="17221.6309" y1="-12512.7178" x2="17229.9609" y2="-12969.4775" gradientTransform="matrix(-0.1907 0 0 -0.1907 3829.1819 -1652.0013)">
			<stop  offset="0" style="stop-color:#80C93B"/>
			<stop  offset="1" style="stop-color:#2B4900"/>
		</linearGradient>
		<path class="st68" d="M558,401.4c1.1,152.4-25.6,521.2-48.8,665.4h66.3C583.6,913.4,600.9,498.9,558,401.4L558,401.4z"/>
	</g>
	<g transform="matrix(-.1907 0 0 .15402 110.01 891.25)">
		
			<linearGradient id="SVGID_68_" gradientUnits="userSpaceOnUse" x1="13650.1611" y1="-20203.2168" x2="13642.8506" y2="-20523.1074" gradientTransform="matrix(-0.1907 0 0 -0.154 2813.592 -2238.2065)">
			<stop  offset="0" style="stop-color:#80C93B"/>
			<stop  offset="1" style="stop-color:#2B4900"/>
		</linearGradient>
		<path class="st69" d="M175.9,678.3c13,87.8,15.4,304.1,3.6,390.5l65.7-8.9C241.3,970.2,226,728.7,175.9,678.3L175.9,678.3z"/>
		
			<linearGradient id="SVGID_69_" gradientUnits="userSpaceOnUse" x1="13580.4453" y1="-19647.2363" x2="13595.415" y2="-20052.9961" gradientTransform="matrix(-0.1907 0 0 -0.154 2813.592 -2238.2065)">
			<stop  offset="0" style="stop-color:#80C93B"/>
			<stop  offset="1" style="stop-color:#2B4900"/>
		</linearGradient>
		<path class="st70" d="M224,509.9c11.1,129.2-5.6,435-28.8,555.4h66.3C269.6,937.3,266.9,591.3,224,509.9L224,509.9z"/>
	</g>
	<g transform="matrix(-.1907 0 0 .1907 353.53 851.48)">
		
			<linearGradient id="SVGID_70_" gradientUnits="userSpaceOnUse" x1="15498.6035" y1="-13462.7529" x2="15492.7666" y2="-13718.043" gradientTransform="matrix(-0.1907 0 0 -0.1907 3057.1121 -1651.4513)">
			<stop  offset="0" style="stop-color:#80C93B"/>
			<stop  offset="1" style="stop-color:#2B4900"/>
		</linearGradient>
		<path class="st71" d="M73.9,760c10.4,70.1,12.3,242.8,2.9,311.7l52.5-7.1C126.1,993.1,113.9,800.3,73.9,760L73.9,760z"/>
		
			<linearGradient id="SVGID_71_" gradientUnits="userSpaceOnUse" x1="15425.8643" y1="-13103.6543" x2="15437.8047" y2="-13427.4941" gradientTransform="matrix(-0.1907 0 0 -0.1907 3057.1121 -1651.4513)">
			<stop  offset="0" style="stop-color:#80C93B"/>
			<stop  offset="1" style="stop-color:#2B4900"/>
		</linearGradient>
		<path class="st72" d="M94.3,640.6c1.3,14.8,24.1,19.4,24.5,39.2c2.5,117.9-13.6,306.9-29.5,389.2h53c5.6-88.6,13.7-305-6.6-403.3
			C132.6,650.6,98.9,649.3,94.3,640.6L94.3,640.6z"/>
	</g>
	<g transform="matrix(-.1907 0 0 .1907 652.96 852.03)">
		
			<linearGradient id="SVGID_72_" gradientUnits="userSpaceOnUse" x1="15097.873" y1="-11755.958" x2="15003.8428" y2="-12345.7178" gradientTransform="matrix(-0.1907 0 0 -0.1907 3356.542 -1652.0013)">
			<stop  offset="0" style="stop-color:#80C93B"/>
			<stop  offset="1" style="stop-color:#2B4900"/>
		</linearGradient>
		<path class="st73" d="M350,563.4c28.2,26.4,83.3,11,98.8,53.2c56.6,153.8,38.7,380.3,20.4,446.3h64.3
			c6.8-74.9,52.3-300.4-63.5-464.9C447.8,566.4,385.6,589,350,563.4L350,563.4z"/>
		
			<linearGradient id="SVGID_73_" gradientUnits="userSpaceOnUse" x1="14042.8057" y1="-12601.9512" x2="13935.6855" y2="-13041.9912" gradientTransform="matrix(-0.1907 0 0 -0.1907 3356.542 -1652.0013)">
			<stop  offset="0" style="stop-color:#80C93B"/>
			<stop  offset="1" style="stop-color:#2B4900"/>
		</linearGradient>
		<path class="st74" d="M790,579.4c-30.4,28.4-60,6.7-81.2,52.9c-70.4,153.4-91.8,372-74,436.5h-64.3
			c-6.6-72.6-5.9-286.8,113.3-449.7C711.1,581.8,748.8,609.1,790,579.4L790,579.4z"/>
		
			<linearGradient id="SVGID_74_" gradientUnits="userSpaceOnUse" x1="14715.8926" y1="-12512.2197" x2="14724.2227" y2="-12968.9795" gradientTransform="matrix(-0.1907 0 0 -0.1907 3356.542 -1652.0013)">
			<stop  offset="0" style="stop-color:#80C93B"/>
			<stop  offset="1" style="stop-color:#2B4900"/>
		</linearGradient>
		<path class="st75" d="M547.1,500.9c-1.5,40.8,7.7,72.5,5.6,120.1c-7.1,159.4-28.8,354.6-43.5,445.9h66.3
			c6.3-120.8,12.4-288.6-3.7-450.9C608.1,527.2,595.3,309,547.1,500.9L547.1,500.9z"/>
	</g>
	<g transform="matrix(-.1907 0 0 .1907 558.46 852.52)">
		
			<linearGradient id="SVGID_75_" gradientUnits="userSpaceOnUse" x1="12928.9209" y1="-14772.8184" x2="12921.6113" y2="-15092.7178" gradientTransform="matrix(-0.1907 0 0 -0.1907 2676.042 -1946.2213)">
			<stop  offset="0" style="stop-color:#80C93B"/>
			<stop  offset="1" style="stop-color:#2B4900"/>
		</linearGradient>
		<path class="st76" d="M175.9,675.8c6.6,44.7,10.5,122.6,11.2,199.8c-3.5,72-9.4,142.7-16.2,183.3l9.8-0.8c-0.3,2.9-0.7,5.6-1,8.3
			l65.7-8.9c-2.6-59.1-10.2-184.4-29.4-277.3c-5.5-47.3-14.1-86.3-27-104.2c0.4,6.2,0.8,13,1,20.3
			C185.6,687.8,180.9,680.8,175.9,675.8L175.9,675.8z"/>
		
			<linearGradient id="SVGID_76_" gradientUnits="userSpaceOnUse" x1="15932.0283" y1="-12783.7139" x2="15946.998" y2="-13189.4736" gradientTransform="matrix(-0.1907 0 0 -0.1907 3262.042 -1652.4913)">
			<stop  offset="0" style="stop-color:#80C93B"/>
			<stop  offset="1" style="stop-color:#2B4900"/>
		</linearGradient>
		<path class="st77" d="M197.3,576.6c1.5,17.8,18.9-18.6,27-14.6c2.8,1.3,3,24.3,3.1,32.9c1.3,148.5-13.3,369.8-32.2,468h66.3
			c6.2-98.8,6-327.3-14.1-463.9c-3.2-21.4-4-36.1-11-44.7C219.2,532.9,201.9,585.4,197.3,576.6L197.3,576.6z"/>
	</g>
	<g transform="matrix(-.1907 0 0 .1907 877.9 852.53)">
		
			<linearGradient id="SVGID_77_" gradientUnits="userSpaceOnUse" x1="17676.8516" y1="-13232.8086" x2="17669.543" y2="-13552.6992" gradientTransform="matrix(-0.1907 0 0 -0.1907 3581.4819 -1652.5013)">
			<stop  offset="0" style="stop-color:#80C93B"/>
			<stop  offset="1" style="stop-color:#2B4900"/>
		</linearGradient>
		<path class="st78" d="M175.9,675.8c13,87.8,15.4,304.1,3.6,390.5l65.7-8.9C241.3,967.8,226,726.2,175.9,675.8L175.9,675.8z"/>
		
			<linearGradient id="SVGID_78_" gradientUnits="userSpaceOnUse" x1="17607.1367" y1="-12783.7666" x2="17622.1055" y2="-13189.5273" gradientTransform="matrix(-0.1907 0 0 -0.1907 3581.4819 -1652.5013)">
			<stop  offset="0" style="stop-color:#80C93B"/>
			<stop  offset="1" style="stop-color:#2B4900"/>
		</linearGradient>
		<path class="st79" d="M224,507.4c11.1,129.2-5.6,435-28.8,555.4h66.3C269.6,934.8,266.9,588.8,224,507.4L224,507.4z"/>
	</g>
	<g transform="matrix(-.1907 0 0 .1907 742.58 852.03)">
		
			<linearGradient id="SVGID_79_" gradientUnits="userSpaceOnUse" x1="13674.9746" y1="-12496.3545" x2="13704.375" y2="-12949.1143" gradientTransform="matrix(-0.1907 0 0 -0.1907 3446.1621 -1652.0013)">
			<stop  offset="0" style="stop-color:#80C93B"/>
			<stop  offset="1" style="stop-color:#2B4900"/>
		</linearGradient>
		<path class="st80" d="M850,585.4c1.1,109.3-9.6,373.9-32.8,477.4h66.3c6-82,6.2-293.1-10.8-411.5c-1.2-8.3-8.5,16.8-9.9,9.2
			c-1.3-7,5.3-21.7,3.9-28.1C862.2,612.4,856.6,596.2,850,585.4L850,585.4z"/>
		
			<linearGradient id="SVGID_80_" gradientUnits="userSpaceOnUse" x1="13991.8242" y1="-12884.7754" x2="13992.7842" y2="-13270.5352" gradientTransform="matrix(-0.1907 0 0 -0.1907 3446.1621 -1652.0013)">
			<stop  offset="0" style="stop-color:#80C93B"/>
			<stop  offset="1" style="stop-color:#2B4900"/>
		</linearGradient>
		<path class="st81" d="M720,567.4c19.7,18.4,20.2,26.2,32.3,51.8c4.7,9.9,7.9,11.3,11.6,22c50.6,146.5,13.7,359.1-4.6,425.6h64.3
			c6.1-67.2,32.6-228.8-20.9-370.2C785,650,758.6,605.5,720,567.4L720,567.4z"/>
		
			<linearGradient id="SVGID_81_" gradientUnits="userSpaceOnUse" x1="13000.0078" y1="-13104.8691" x2="12972.3477" y2="-13456.6289" gradientTransform="matrix(-0.1907 0 0 -0.1907 3446.1621 -1652.0013)">
			<stop  offset="0" style="stop-color:#80C93B"/>
			<stop  offset="1" style="stop-color:#2B4900"/>
		</linearGradient>
		<path class="st82" d="M1076,609.4c-131.1,122.7-166.4,375.4-143.2,459.4h-64.3c-6.5-72.5-11.2-225.6,105.6-365.6
			c5.7-6.8-0.4,15.4,5.9,8.7c4.6-5,21.4-38.9,26.3-43.8C1026.5,648,1049.7,628.3,1076,609.4L1076,609.4z"/>
	</g>
	<g transform="matrix(-.1907 0 0 .1907 216.95 852.03)">
		
			<linearGradient id="SVGID_82_" gradientUnits="userSpaceOnUse" x1="10917.8008" y1="-12496.2988" x2="10947.2012" y2="-12949.0586" gradientTransform="matrix(-0.1907 0 0 -0.1907 2920.532 -1652.0013)">
			<stop  offset="0" style="stop-color:#80C93B"/>
			<stop  offset="1" style="stop-color:#2B4900"/>
		</linearGradient>
		<path class="st83" d="M850,585.4c1.1,109.3-9.6,373.9-32.8,477.4h66.3C891.6,952.8,892.9,655.3,850,585.4L850,585.4z"/>
		
			<linearGradient id="SVGID_83_" gradientUnits="userSpaceOnUse" x1="11239.125" y1="-12884.7842" x2="11240.085" y2="-13270.5439" gradientTransform="matrix(-0.1907 0 0 -0.1907 2920.532 -1652.0013)">
			<stop  offset="0" style="stop-color:#80C93B"/>
			<stop  offset="1" style="stop-color:#2B4900"/>
		</linearGradient>
		<path class="st84" d="M704,543.4c131.1,122.7,78.4,439.4,55.2,523.4h64.3C831.6,977.5,924.9,702.2,704,543.4L704,543.4z"/>
		
			<linearGradient id="SVGID_84_" gradientUnits="userSpaceOnUse" x1="10243.6885" y1="-13104.8691" x2="10216.0283" y2="-13456.6289" gradientTransform="matrix(-0.1907 0 0 -0.1907 2920.532 -1652.0013)">
			<stop  offset="0" style="stop-color:#80C93B"/>
			<stop  offset="1" style="stop-color:#2B4900"/>
		</linearGradient>
		<path class="st85" d="M1076,609.4c-131.1,122.7-166.4,375.4-143.2,459.4h-64.3C860.4,979.5,855.1,768.2,1076,609.4L1076,609.4z"/>
	</g>
	<g transform="matrix(.1907 0 0 .15402 332.7 891.25)">
		
			<linearGradient id="SVGID_85_" gradientUnits="userSpaceOnUse" x1="8995.2207" y1="-20203.2168" x2="8987.9111" y2="-20523.1074" gradientTransform="matrix(0.1907 0 0 -0.154 -1504.8821 -2238.2065)">
			<stop  offset="0" style="stop-color:#80C93B"/>
			<stop  offset="1" style="stop-color:#2B4900"/>
		</linearGradient>
		<path class="st86" d="M175.9,678.3c13,87.8,15.4,304.1,3.6,390.5l65.7-8.9C241.3,970.2,226,728.7,175.9,678.3L175.9,678.3z"/>
		
			<linearGradient id="SVGID_86_" gradientUnits="userSpaceOnUse" x1="9064.9365" y1="-19647.2363" x2="9079.9062" y2="-20052.9961" gradientTransform="matrix(0.1907 0 0 -0.154 -1504.8821 -2238.2065)">
			<stop  offset="0" style="stop-color:#80C93B"/>
			<stop  offset="1" style="stop-color:#2B4900"/>
		</linearGradient>
		<path class="st87" d="M224,509.9c11.1,129.2-5.6,435-28.8,555.4h66.3C269.6,937.3,266.9,591.3,224,509.9L224,509.9z"/>
	</g>
	<g transform="matrix(.1907 0 0 .1907 887.09 852.53)">
		
			<linearGradient id="SVGID_87_" gradientUnits="userSpaceOnUse" x1="6088.0889" y1="-13232.8086" x2="6080.7788" y2="-13552.6992" gradientTransform="matrix(0.1907 0 0 -0.1907 -950.4921 -1652.5013)">
			<stop  offset="0" style="stop-color:#80C93B"/>
			<stop  offset="1" style="stop-color:#2B4900"/>
		</linearGradient>
		<path class="st88" d="M175.9,675.8c13,87.8,15.4,304.1,3.6,390.5l65.7-8.9C241.3,967.8,226,726.2,175.9,675.8L175.9,675.8z"/>
		
			<linearGradient id="SVGID_88_" gradientUnits="userSpaceOnUse" x1="6157.8052" y1="-12783.7666" x2="6172.7749" y2="-13189.5273" gradientTransform="matrix(0.1907 0 0 -0.1907 -950.4921 -1652.5013)">
			<stop  offset="0" style="stop-color:#80C93B"/>
			<stop  offset="1" style="stop-color:#2B4900"/>
		</linearGradient>
		<path class="st89" d="M224,507.4c11.1,129.2-5.6,435-28.8,555.4h66.3C269.6,934.8,266.9,588.8,224,507.4L224,507.4z"/>
	</g>
	<g transform="matrix(.1907 0 0 .1907 623.43 852.03)">
		
			<linearGradient id="SVGID_89_" gradientUnits="userSpaceOnUse" x1="10763.8154" y1="-12496.2988" x2="10793.2158" y2="-12949.0586" gradientTransform="matrix(0.1907 0 0 -0.1907 -1214.1521 -1652.0013)">
			<stop  offset="0" style="stop-color:#80C93B"/>
			<stop  offset="1" style="stop-color:#2B4900"/>
		</linearGradient>
		<path class="st90" d="M850,585.4c1.1,109.3-9.6,373.9-32.8,477.4h66.3C891.6,952.8,892.9,655.3,850,585.4L850,585.4z"/>
		
			<linearGradient id="SVGID_90_" gradientUnits="userSpaceOnUse" x1="10442.4912" y1="-12884.7842" x2="10443.4512" y2="-13270.5439" gradientTransform="matrix(0.1907 0 0 -0.1907 -1214.1521 -1652.0013)">
			<stop  offset="0" style="stop-color:#80C93B"/>
			<stop  offset="1" style="stop-color:#2B4900"/>
		</linearGradient>
		<path class="st91" d="M704,543.4c131.1,122.7,78.4,439.4,55.2,523.4h64.3C831.6,977.5,924.9,702.2,704,543.4L704,543.4z"/>
		
			<linearGradient id="SVGID_91_" gradientUnits="userSpaceOnUse" x1="11437.9277" y1="-13104.8691" x2="11410.2676" y2="-13456.6289" gradientTransform="matrix(0.1907 0 0 -0.1907 -1214.1521 -1652.0013)">
			<stop  offset="0" style="stop-color:#80C93B"/>
			<stop  offset="1" style="stop-color:#2B4900"/>
		</linearGradient>
		<path class="st92" d="M1076,609.4c-131.1,122.7-166.4,375.4-143.2,459.4h-64.3C860.4,979.5,855.1,768.2,1076,609.4L1076,609.4z"/>
	</g>
	<g transform="matrix(.1907 0 0 .1907 530.27 851.48)">
		
			<linearGradient id="SVGID_92_" gradientUnits="userSpaceOnUse" x1="7387.7324" y1="-13462.7529" x2="7381.8955" y2="-13718.043" gradientTransform="matrix(0.1907 0 0 -0.1907 -1307.3121 -1651.4513)">
			<stop  offset="0" style="stop-color:#80C93B"/>
			<stop  offset="1" style="stop-color:#2B4900"/>
		</linearGradient>
		<path class="st93" d="M73.9,760c10.4,70.1,12.3,242.8,2.9,311.7l52.5-7.1C126.1,993.1,113.9,800.3,73.9,760L73.9,760z"/>
		
			<linearGradient id="SVGID_93_" gradientUnits="userSpaceOnUse" x1="7460.4717" y1="-13103.6543" x2="7472.4116" y2="-13427.4941" gradientTransform="matrix(0.1907 0 0 -0.1907 -1307.3121 -1651.4513)">
			<stop  offset="0" style="stop-color:#80C93B"/>
			<stop  offset="1" style="stop-color:#2B4900"/>
		</linearGradient>
		<path class="st94" d="M94.3,640.6c1.3,14.8,24.1,19.4,24.5,39.2c2.5,117.9-13.6,306.9-29.5,389.2h53c5.6-88.6,13.7-305-6.6-403.3
			C132.6,650.6,98.9,649.3,94.3,640.6L94.3,640.6z"/>
	</g>
	<g transform="matrix(.1907 0 0 .1907 334.13 852.03)">
		
			<linearGradient id="SVGID_94_" gradientUnits="userSpaceOnUse" x1="10452.8936" y1="-11766.4395" x2="10358.8643" y2="-12356.2002" gradientTransform="matrix(0.1907 0 0 -0.1907 -1503.452 -1652.0013)">
			<stop  offset="0" style="stop-color:#80C93B"/>
			<stop  offset="1" style="stop-color:#2B4900"/>
		</linearGradient>
		<path class="st95" d="M384,511.4c131.1,122.7,108.4,467.4,85.2,551.4h64.3C541.6,973.5,604.9,670.2,384,511.4L384,511.4z"/>
		
			<linearGradient id="SVGID_95_" gradientUnits="userSpaceOnUse" x1="11394.957" y1="-12590.4453" x2="11287.8369" y2="-13030.4854" gradientTransform="matrix(0.1907 0 0 -0.1907 -1503.452 -1652.0013)">
			<stop  offset="0" style="stop-color:#80C93B"/>
			<stop  offset="1" style="stop-color:#2B4900"/>
		</linearGradient>
		<path class="st96" d="M786,517.4c-131.1,122.7-174.4,467.4-151.2,551.4h-64.3C562.4,979.5,565.2,676.2,786,517.4L786,517.4z"/>
		
			<linearGradient id="SVGID_96_" gradientUnits="userSpaceOnUse" x1="10741.8418" y1="-12512.7178" x2="10750.1719" y2="-12969.4775" gradientTransform="matrix(0.1907 0 0 -0.1907 -1503.452 -1652.0013)">
			<stop  offset="0" style="stop-color:#80C93B"/>
			<stop  offset="1" style="stop-color:#2B4900"/>
		</linearGradient>
		<path class="st97" d="M558,401.4c1.1,152.4-25.6,521.2-48.8,665.4h66.3C583.6,913.4,600.9,498.9,558,401.4L558,401.4z"/>
	</g>
	<g transform="matrix(-.1907 0 0 .1907 348.75 852.53)">
		
			<linearGradient id="SVGID_97_" gradientUnits="userSpaceOnUse" x1="14902.0752" y1="-13232.8086" x2="14894.7646" y2="-13552.6992" gradientTransform="matrix(-0.1907 0 0 -0.1907 3052.332 -1652.5013)">
			<stop  offset="0" style="stop-color:#80C93B"/>
			<stop  offset="1" style="stop-color:#2B4900"/>
		</linearGradient>
		<path class="st98" d="M175.9,675.8c13,87.8,15.4,304.1,3.6,390.5l65.7-8.9C241.3,967.8,226,726.2,175.9,675.8L175.9,675.8z"/>
		
			<linearGradient id="SVGID_98_" gradientUnits="userSpaceOnUse" x1="14837.2441" y1="-12783.9473" x2="14852.2139" y2="-13189.707" gradientTransform="matrix(-0.1907 0 0 -0.1907 3052.332 -1652.5013)">
			<stop  offset="0" style="stop-color:#80C93B"/>
			<stop  offset="1" style="stop-color:#2B4900"/>
		</linearGradient>
		<path class="st99" d="M222,575.4c11.1,129.2-3.6,367-26.8,487.4h66.3C269.6,934.8,264.9,656.8,222,575.4L222,575.4z"/>
	</g>
	<g transform="matrix(.1907 0 0 .1907 944.9 852.52)">
		
			<linearGradient id="SVGID_99_" gradientUnits="userSpaceOnUse" x1="8857.7822" y1="-14772.8184" x2="8850.4717" y2="-15092.7178" gradientTransform="matrix(0.1907 0 0 -0.1907 -1478.682 -1946.2213)">
			<stop  offset="0" style="stop-color:#80C93B"/>
			<stop  offset="1" style="stop-color:#2B4900"/>
		</linearGradient>
		<path class="st100" d="M175.9,675.8c6.6,44.7,10.5,122.6,11.2,199.8c-3.5,72-9.4,142.7-16.2,183.3l9.8-0.8c-0.3,2.9-0.7,5.6-1,8.3
			l65.7-8.9c-2.6-59.1-10.2-184.4-29.4-277.3c-5.5-47.3-14.1-86.3-27-104.2c0.4,6.2,0.8,13,1,20.3
			C185.6,687.8,180.9,680.8,175.9,675.8L175.9,675.8z"/>
		
			<linearGradient id="SVGID_100_" gradientUnits="userSpaceOnUse" x1="5854.6748" y1="-12783.7139" x2="5869.645" y2="-13189.4736" gradientTransform="matrix(0.1907 0 0 -0.1907 -892.6821 -1652.4913)">
			<stop  offset="0" style="stop-color:#80C93B"/>
			<stop  offset="1" style="stop-color:#2B4900"/>
		</linearGradient>
		<path class="st101" d="M197.3,576.6c1.5,17.8,18.9-18.6,27-14.6c2.8,1.3,3,24.3,3.1,32.9c1.3,148.5-13.3,369.8-32.2,468h66.3
			c6.2-98.8,6-327.3-14.1-463.9c-3.2-21.4-4-36.1-11-44.7C219.2,532.9,201.9,585.4,197.3,576.6L197.3,576.6z"/>
	</g>
	<g transform="matrix(.1907 0 0 .1907 163.56 852.03)">
		
			<linearGradient id="SVGID_101_" gradientUnits="userSpaceOnUse" x1="11281.5938" y1="-11755.958" x2="11187.5645" y2="-12345.7178" gradientTransform="matrix(0.1907 0 0 -0.1907 -1674.0221 -1652.0013)">
			<stop  offset="0" style="stop-color:#80C93B"/>
			<stop  offset="1" style="stop-color:#2B4900"/>
		</linearGradient>
		<path class="st102" d="M350,563.4c28.2,26.4,83.3,11,98.8,53.2c56.6,153.8,38.7,380.3,20.4,446.3h64.3
			c6.8-74.9,52.3-300.4-63.5-464.9C447.8,566.4,385.6,589,350,563.4L350,563.4z"/>
		
			<linearGradient id="SVGID_102_" gradientUnits="userSpaceOnUse" x1="12336.6611" y1="-12601.9512" x2="12229.541" y2="-13041.9912" gradientTransform="matrix(0.1907 0 0 -0.1907 -1674.0221 -1652.0013)">
			<stop  offset="0" style="stop-color:#80C93B"/>
			<stop  offset="1" style="stop-color:#2B4900"/>
		</linearGradient>
		<path class="st103" d="M790,579.4c-30.4,28.4-60,6.7-81.2,52.9c-70.4,153.4-91.8,372-74,436.5h-64.3
			c-6.6-72.6-5.9-286.8,113.3-449.7C711.1,581.8,748.8,609.1,790,579.4L790,579.4z"/>
		
			<linearGradient id="SVGID_103_" gradientUnits="userSpaceOnUse" x1="11746.2402" y1="-12510.7119" x2="11754.5703" y2="-12967.4727" gradientTransform="matrix(0.1907 0 0 -0.1907 -1674.0221 -1652.0013)">
			<stop  offset="0" style="stop-color:#80C93B"/>
			<stop  offset="1" style="stop-color:#2B4900"/>
		</linearGradient>
		<path class="st104" d="M620.5,348c0.2,27.1-46.5,57.1-47.9,95.4c-1.5,40.8,7.7,72.5,5.6,120.1c-7.1,159.4-54.4,412-69.1,503.3
			h66.3c6.3-120.8,37.9-346,21.8-508.3C593,514.7,629.6,368.7,620.5,348L620.5,348z"/>
	</g>
	<g transform="matrix(.1907 0 0 .1907 311.64 852.03)">
		
			<linearGradient id="SVGID_104_" gradientUnits="userSpaceOnUse" x1="12397.9375" y1="-12496.3545" x2="12427.3369" y2="-12949.1143" gradientTransform="matrix(0.1907 0 0 -0.1907 -1525.942 -1652.0013)">
			<stop  offset="0" style="stop-color:#80C93B"/>
			<stop  offset="1" style="stop-color:#2B4900"/>
		</linearGradient>
		<path class="st105" d="M850,585.4c1.1,109.3-9.6,373.9-32.8,477.4h66.3c6-82,6.2-293.1-10.8-411.5c-1.2-8.3-8.5,16.8-9.9,9.2
			c-1.3-7,5.3-21.7,3.9-28.1C862.2,612.4,856.6,596.2,850,585.4L850,585.4z"/>
		
			<linearGradient id="SVGID_105_" gradientUnits="userSpaceOnUse" x1="12081.0879" y1="-12884.7754" x2="12082.0479" y2="-13270.5352" gradientTransform="matrix(0.1907 0 0 -0.1907 -1525.942 -1652.0013)">
			<stop  offset="0" style="stop-color:#80C93B"/>
			<stop  offset="1" style="stop-color:#2B4900"/>
		</linearGradient>
		<path class="st106" d="M720,567.4c19.7,18.4,20.2,26.2,32.3,51.8c4.7,9.9,7.9,11.3,11.6,22c50.6,146.5,13.7,359.1-4.6,425.6h64.3
			c6.1-67.2,32.6-228.8-20.9-370.2C785,650,758.6,605.5,720,567.4L720,567.4z"/>
		
			<linearGradient id="SVGID_106_" gradientUnits="userSpaceOnUse" x1="13072.9043" y1="-13104.8691" x2="13045.2441" y2="-13456.6289" gradientTransform="matrix(0.1907 0 0 -0.1907 -1525.942 -1652.0013)">
			<stop  offset="0" style="stop-color:#80C93B"/>
			<stop  offset="1" style="stop-color:#2B4900"/>
		</linearGradient>
		<path class="st107" d="M1076,609.4c-131.1,122.7-166.4,375.4-143.2,459.4h-64.3c-6.5-72.5-11.2-225.6,105.6-365.6
			c5.7-6.8-0.4,15.4,5.9,8.7c4.6-5,21.4-38.9,26.3-43.8C1026.5,648,1049.7,628.3,1076,609.4L1076,609.4z"/>
	</g>
	<g transform="matrix(-.1907 0 0 .1907 972.15 852.03)">
		
			<linearGradient id="SVGID_107_" gradientUnits="userSpaceOnUse" x1="16705.9121" y1="-11766.4395" x2="16611.8828" y2="-12356.2002" gradientTransform="matrix(-0.1907 0 0 -0.1907 3675.7319 -1652.0013)">
			<stop  offset="0" style="stop-color:#80C93B"/>
			<stop  offset="1" style="stop-color:#2B4900"/>
		</linearGradient>
		<path class="st108" d="M384,511.4c131.1,122.7,108.4,467.4,85.2,551.4h64.3C541.6,973.5,604.9,670.2,384,511.4L384,511.4z"/>
		
			<linearGradient id="SVGID_108_" gradientUnits="userSpaceOnUse" x1="15763.8486" y1="-12590.4453" x2="15656.7285" y2="-13030.4854" gradientTransform="matrix(-0.1907 0 0 -0.1907 3675.7319 -1652.0013)">
			<stop  offset="0" style="stop-color:#80C93B"/>
			<stop  offset="1" style="stop-color:#2B4900"/>
		</linearGradient>
		<path class="st109" d="M786,517.4c-131.1,122.7-174.4,467.4-151.2,551.4h-64.3C562.4,979.5,565.2,676.2,786,517.4L786,517.4z"/>
		
			<linearGradient id="SVGID_109_" gradientUnits="userSpaceOnUse" x1="16416.9629" y1="-12512.7178" x2="16425.293" y2="-12969.4775" gradientTransform="matrix(-0.1907 0 0 -0.1907 3675.7319 -1652.0013)">
			<stop  offset="0" style="stop-color:#80C93B"/>
			<stop  offset="1" style="stop-color:#2B4900"/>
		</linearGradient>
		<path class="st110" d="M558,401.4c1.1,152.4-25.6,521.2-48.8,665.4h66.3C583.6,913.4,600.9,498.9,558,401.4L558,401.4z"/>
	</g>
	<g transform="matrix(-.1907 0 0 .15402 669.72 891.25)">
		
			<linearGradient id="SVGID_110_" gradientUnits="userSpaceOnUse" x1="16585.1895" y1="-20203.2168" x2="16577.8789" y2="-20523.1074" gradientTransform="matrix(-0.1907 0 0 -0.154 3373.302 -2238.2065)">
			<stop  offset="0" style="stop-color:#80C93B"/>
			<stop  offset="1" style="stop-color:#2B4900"/>
		</linearGradient>
		<path class="st111" d="M175.9,678.3c13,87.8,15.4,304.1,3.6,390.5l65.7-8.9C241.3,970.2,226,728.7,175.9,678.3L175.9,678.3z"/>
		
			<linearGradient id="SVGID_111_" gradientUnits="userSpaceOnUse" x1="16515.4727" y1="-19647.2363" x2="16530.4434" y2="-20052.9961" gradientTransform="matrix(-0.1907 0 0 -0.154 3373.302 -2238.2065)">
			<stop  offset="0" style="stop-color:#80C93B"/>
			<stop  offset="1" style="stop-color:#2B4900"/>
		</linearGradient>
		<path class="st112" d="M224,509.9c11.1,129.2-5.6,435-28.8,555.4h66.3C269.6,937.3,266.9,591.3,224,509.9L224,509.9z"/>
	</g>
	<g transform="matrix(-.1907 0 0 .1907 806.3 851.48)">
		
			<linearGradient id="SVGID_112_" gradientUnits="userSpaceOnUse" x1="17872.8555" y1="-13462.7529" x2="17867.0195" y2="-13718.043" gradientTransform="matrix(-0.1907 0 0 -0.1907 3509.8821 -1651.4513)">
			<stop  offset="0" style="stop-color:#80C93B"/>
			<stop  offset="1" style="stop-color:#2B4900"/>
		</linearGradient>
		<path class="st113" d="M73.9,760c10.4,70.1,12.3,242.8,2.9,311.7l52.5-7.1C126.1,993.1,113.9,800.3,73.9,760L73.9,760z"/>
		
			<linearGradient id="SVGID_113_" gradientUnits="userSpaceOnUse" x1="17800.1172" y1="-13103.6543" x2="17812.0566" y2="-13427.4941" gradientTransform="matrix(-0.1907 0 0 -0.1907 3509.8821 -1651.4513)">
			<stop  offset="0" style="stop-color:#80C93B"/>
			<stop  offset="1" style="stop-color:#2B4900"/>
		</linearGradient>
		<path class="st114" d="M94.3,640.6c1.3,14.8,24.1,19.4,24.5,39.2c2.5,117.9-13.6,306.9-29.5,389.2h53c5.6-88.6,13.7-305-6.6-403.3
			C132.6,650.6,98.9,649.3,94.3,640.6L94.3,640.6z"/>
	</g>
	<g transform="matrix(-.1907 0 0 .1907 620.07 852.03)">
		
			<linearGradient id="SVGID_114_" gradientUnits="userSpaceOnUse" x1="14925.4023" y1="-11755.958" x2="14831.373" y2="-12345.7178" gradientTransform="matrix(-0.1907 0 0 -0.1907 3323.6521 -1652.0013)">
			<stop  offset="0" style="stop-color:#80C93B"/>
			<stop  offset="1" style="stop-color:#2B4900"/>
		</linearGradient>
		<path class="st115" d="M350,563.4c28.2,26.4,83.3,11,98.8,53.2c56.6,153.8,38.7,380.3,20.4,446.3h64.3
			c6.8-74.9,52.3-300.4-63.5-464.9C447.8,566.4,385.6,589,350,563.4L350,563.4z"/>
		
			<linearGradient id="SVGID_115_" gradientUnits="userSpaceOnUse" x1="13870.3359" y1="-12601.9512" x2="13763.2158" y2="-13041.9912" gradientTransform="matrix(-0.1907 0 0 -0.1907 3323.6521 -1652.0013)">
			<stop  offset="0" style="stop-color:#80C93B"/>
			<stop  offset="1" style="stop-color:#2B4900"/>
		</linearGradient>
		<path class="st116" d="M790,579.4c-30.4,28.4-60,6.7-81.2,52.9c-70.4,153.4-91.8,372-74,436.5h-64.3
			c-6.6-72.6-5.9-286.8,113.3-449.7C711.1,581.8,748.8,609.1,790,579.4L790,579.4z"/>
		
			<linearGradient id="SVGID_116_" gradientUnits="userSpaceOnUse" x1="14530.3926" y1="-12511.9824" x2="14538.7227" y2="-12968.7422" gradientTransform="matrix(-0.1907 0 0 -0.1907 3323.6521 -1652.0013)">
			<stop  offset="0" style="stop-color:#80C93B"/>
			<stop  offset="1" style="stop-color:#2B4900"/>
		</linearGradient>
		<path class="st117" d="M595,405.4c0.2,27.1-46.5,57.1-47.9,95.4c-1.5,40.8,7.7,72.5,5.6,120.1c-7.1,159.4-28.8,354.6-43.5,445.9
			h66.3c6.3-120.8,12.4-288.6-3.7-450.9C567.5,572.2,604.1,426.1,595,405.4L595,405.4z"/>
	</g>
	<g transform="matrix(-.1907 0 0 .1907 203.52 852.52)">
		
			<linearGradient id="SVGID_117_" gradientUnits="userSpaceOnUse" x1="11067.6729" y1="-14772.8184" x2="11060.3633" y2="-15092.7178" gradientTransform="matrix(-0.1907 0 0 -0.1907 2321.1021 -1946.2213)">
			<stop  offset="0" style="stop-color:#80C93B"/>
			<stop  offset="1" style="stop-color:#2B4900"/>
		</linearGradient>
		<path class="st118" d="M175.9,675.8c6.6,44.7,10.5,122.6,11.2,199.8c-3.5,72-9.4,142.7-16.2,183.3l9.8-0.8c-0.3,2.9-0.7,5.6-1,8.3
			l65.7-8.9c-2.6-59.1-10.2-184.4-29.4-277.3c-5.5-47.3-14.1-86.3-27-104.2c0.4,6.2,0.8,13,1,20.3
			C185.6,687.8,180.9,680.8,175.9,675.8L175.9,675.8z"/>
		
			<linearGradient id="SVGID_118_" gradientUnits="userSpaceOnUse" x1="14070.7803" y1="-12783.7139" x2="14085.75" y2="-13189.4736" gradientTransform="matrix(-0.1907 0 0 -0.1907 2907.1021 -1652.4913)">
			<stop  offset="0" style="stop-color:#80C93B"/>
			<stop  offset="1" style="stop-color:#2B4900"/>
		</linearGradient>
		<path class="st119" d="M197.3,576.6c1.5,17.8,18.9-18.6,27-14.6c2.8,1.3,3,24.3,3.1,32.9c1.3,148.5-13.3,369.8-32.2,468h66.3
			c6.2-98.8,6-327.3-14.1-463.9c-3.2-21.4-4-36.1-11-44.7C219.2,532.9,201.9,585.4,197.3,576.6L197.3,576.6z"/>
	</g>
	<g transform="matrix(-.1907 0 0 .1907 263.78 852.53)">
		
			<linearGradient id="SVGID_119_" gradientUnits="userSpaceOnUse" x1="14456.5059" y1="-13232.8086" x2="14449.1953" y2="-13552.6992" gradientTransform="matrix(-0.1907 0 0 -0.1907 2967.3621 -1652.5013)">
			<stop  offset="0" style="stop-color:#80C93B"/>
			<stop  offset="1" style="stop-color:#2B4900"/>
		</linearGradient>
		<path class="st120" d="M175.9,675.8c13,87.8,15.4,304.1,3.6,390.5l65.7-8.9C241.3,967.8,226,726.2,175.9,675.8L175.9,675.8z"/>
		
			<linearGradient id="SVGID_120_" gradientUnits="userSpaceOnUse" x1="14386.79" y1="-12783.7666" x2="14401.7598" y2="-13189.5273" gradientTransform="matrix(-0.1907 0 0 -0.1907 2967.3621 -1652.5013)">
			<stop  offset="0" style="stop-color:#80C93B"/>
			<stop  offset="1" style="stop-color:#2B4900"/>
		</linearGradient>
		<path class="st121" d="M224,507.4c11.1,129.2-5.6,435-28.8,555.4h66.3C269.6,934.8,266.9,588.8,224,507.4L224,507.4z"/>
	</g>
	<g transform="matrix(-.1907 0 0 .1907 773.22 852.03)">
		
			<linearGradient id="SVGID_121_" gradientUnits="userSpaceOnUse" x1="13835.6455" y1="-12496.3545" x2="13865.0459" y2="-12949.1143" gradientTransform="matrix(-0.1907 0 0 -0.1907 3476.802 -1652.0013)">
			<stop  offset="0" style="stop-color:#80C93B"/>
			<stop  offset="1" style="stop-color:#2B4900"/>
		</linearGradient>
		<path class="st122" d="M850,585.4c1.1,109.3-9.6,373.9-32.8,477.4h66.3c6-82,6.2-293.1-10.8-411.5c-1.2-8.3-8.5,16.8-9.9,9.2
			c-1.3-7,5.3-21.7,3.9-28.1C862.2,612.4,856.6,596.2,850,585.4L850,585.4z"/>
		
			<linearGradient id="SVGID_122_" gradientUnits="userSpaceOnUse" x1="14152.4951" y1="-12884.7754" x2="14153.4551" y2="-13270.5352" gradientTransform="matrix(-0.1907 0 0 -0.1907 3476.802 -1652.0013)">
			<stop  offset="0" style="stop-color:#80C93B"/>
			<stop  offset="1" style="stop-color:#2B4900"/>
		</linearGradient>
		<path class="st123" d="M720,567.4c19.7,18.4,20.2,26.2,32.3,51.8c4.7,9.9,7.9,11.3,11.6,22c50.6,146.5,13.7,359.1-4.6,425.6h64.3
			c6.1-67.2,32.6-228.8-20.9-370.2C785,650,758.6,605.5,720,567.4L720,567.4z"/>
		
			<linearGradient id="SVGID_123_" gradientUnits="userSpaceOnUse" x1="13160.6787" y1="-13104.8691" x2="13133.0186" y2="-13456.6289" gradientTransform="matrix(-0.1907 0 0 -0.1907 3476.802 -1652.0013)">
			<stop  offset="0" style="stop-color:#80C93B"/>
			<stop  offset="1" style="stop-color:#2B4900"/>
		</linearGradient>
		<path class="st124" d="M1076,609.4c-131.1,122.7-166.4,375.4-143.2,459.4h-64.3c-6.5-72.5-11.2-225.6,105.6-365.6
			c5.7-6.8-0.4,15.4,5.9,8.7c4.6-5,21.4-38.9,26.3-43.8C1026.5,648,1049.7,628.3,1076,609.4L1076,609.4z"/>
	</g>
	<g transform="matrix(-.1907 0 0 .1907 1130.9 852.03)">
		
			<linearGradient id="SVGID_124_" gradientUnits="userSpaceOnUse" x1="15710.4072" y1="-12496.2988" x2="15739.8076" y2="-12949.0586" gradientTransform="matrix(-0.1907 0 0 -0.1907 3834.4819 -1652.0013)">
			<stop  offset="0" style="stop-color:#80C93B"/>
			<stop  offset="1" style="stop-color:#2B4900"/>
		</linearGradient>
		<path class="st125" d="M850,585.4c1.1,109.3-9.6,373.9-32.8,477.4h66.3C891.6,952.8,892.9,655.3,850,585.4L850,585.4z"/>
		
			<linearGradient id="SVGID_125_" gradientUnits="userSpaceOnUse" x1="16031.7314" y1="-12884.7842" x2="16032.6914" y2="-13270.5439" gradientTransform="matrix(-0.1907 0 0 -0.1907 3834.4819 -1652.0013)">
			<stop  offset="0" style="stop-color:#80C93B"/>
			<stop  offset="1" style="stop-color:#2B4900"/>
		</linearGradient>
		<path class="st126" d="M704,543.4c131.1,122.7,78.4,439.4,55.2,523.4h64.3C831.6,977.5,924.9,702.2,704,543.4L704,543.4z"/>
		
			<linearGradient id="SVGID_126_" gradientUnits="userSpaceOnUse" x1="15036.2949" y1="-13104.8691" x2="15008.6348" y2="-13456.6289" gradientTransform="matrix(-0.1907 0 0 -0.1907 3834.4819 -1652.0013)">
			<stop  offset="0" style="stop-color:#80C93B"/>
			<stop  offset="1" style="stop-color:#2B4900"/>
		</linearGradient>
		<path class="st127" d="M1076,609.4c-131.1,122.7-166.4,375.4-143.2,459.4h-64.3C860.4,979.5,855.1,768.2,1076,609.4L1076,609.4z"
			/>
	</g>
</g>
</svg>
