<svg id="레이어_1" data-name="레이어 1" xmlns="http://www.w3.org/2000/svg" viewBox="0 0 340 120"><defs><style>.cls-1{fill:#eaa;}</style></defs><path class="cls-1" d="M53.09,9.65c17.47-.8,39.21,1,61,1.32,8.9.14,17.83.87,26.75.79,13.95-.13,27.71-2.94,41.6-3.76,11.66-.69,23.17-2.87,34.81-3.55q26.73-1.55,53.47-2.51,18-.67,36-.61c8.45,0,16.84-.58,25.26-1.16,3-.21,6.67-.92,7.65,3.51s.32,8.27-3.52,11.11c-4,3-7.81,6.24-11.69,9.39-.65.52-1.32,1-1.92,1.6-6.67,6.47-6.56,8.39.69,13.68,3.9,2.84,7.86,5.58,11.61,8.63,7,5.66,6.82,12.46-.32,17.82-2.51,1.88-5.32,3.31-7.95,5C324.17,72.44,324,74,326,76.28c3.54,3.83,7.24,7.51,10.27,11.88,2.19,3.15,2.65,6.21,1.08,9.72-1.48,3.33-4.12,4.22-7.24,4.15-20.95-.48-41.81,1.89-62.74,2.41-19.06.48-38.07,3.36-57.13,4.68-16.65,1.16-33.24,3.46-50,3.34-18.83-.13-37.5,2.4-56.23,4q-17.44,1.5-34.94,2.2c-6.81.26-13.53,1.69-20.39,1.24q-19.41-1.26-38.62-4.35c-7.2-1.16-9-4.92-9.94-12.85-1-9.32,2.2-15.31,9.62-19.46,2.72-1.53,5.2-3.56,7.8-5.36,4.17-2.89,4.34-5.18.66-8.49-3-2.68-5.95-5.4-8.92-8.1-5.7-5.17-5.65-10.75.24-15.59a57.48,57.48,0,0,1,5.65-4.09c3.33-2.11,3.35-4.6,1.32-7.84s-4.92-6-7.49-8.93c-2.32-2.61-5.77-5.12-4-9.22s5.65-6,10.06-6Z"/></svg>