<svg id="l0nzi6835g" xmlns="http://www.w3.org/2000/svg" viewBox="0 0 1080 1080"><defs><style>.cls-1{fill:#fff;fill-rule:evenodd;}</style></defs><path class="cls-1" d="M425.18,220.23c-11.36,27.2,9.92,44.9,32.44,45.68,25.79.9,47.49-21.59,50.21-46.5,6.34-58.44-40.84-70.59-78.26-59.75C352.25,182,333.11,283.29,368,354.74l7.2-23.15c-3.35,25,1.36,46.25,17.73,62l8.29-13c22.95,33.95,49.12,21.31,66.12,43.6,20.11,26.22,11.87,68-17,72.27-23.33,1.06-34.15-16.61-19.41-36.57,1.21-8.34-10-14.47-14.93-12.14-4.44,1-9.65,9.44-10.23,17.79-2.45,34.35,50.68,46.54,68.88,23.64C539.73,407.33,287.37,285,390,194.46c7.85-6.91,30-3.51,39.9-7.85,31.55-14,31.9-33,57-16.07,11.51,7.73,17.15,24.05,15.83,48-4.63,34.19-49.63,43.52-56,21.84-1.29-4.62-.43-14.52,6.69-19.26,6.14-4,1.82-12.07-7.43-12.88-6.38-.58-16.85,2.2-20.85,12Z"/><path class="cls-1" d="M373.87,234.22c1.21,97.41,67.84,64.2,98.06,170.66,11.94-31.94.27-56.73-5.29-65.52l13.58,22.7c8.51-86.78-102.3-70.22-106.35-127.84Zm17.55,35.94c8.44,59.14,46.28,33.17,73,95.13,4.74-20.37-4.24-34.48-8.37-39.26l10,12.55c-1.64-53.45-67.68-33.78-74.64-68.42Z"/><path class="cls-1" d="M479,418c4.36,11.9,8.25,18.89,13.85,24.33,37.92,37,64.22-23.76,32.51-31.41-20-4.83-26.76,25.23-10,29.2,5.6,1.31,8.36-1.1,10.07-1.23-3.65,6.42-14.9,7.12-24.23,2.87C489.78,436.49,484.46,427.9,479,418Z"/><path class="cls-1" d="M453.65,247.22c10.74,3,20,1.88,26.76-1.68,26.45-13.78,24.89-37.87,13.85-49.28-8.29-8.63-22.6-9.28-30.38,3-11.4,17.95,12.87,35.21,22.44,20.12,3.19-5,2-8.63,2.41-10.27,4.48,5.85,1.17,17.14-6,24.83-8.76,9.36-18.29,11.53-29.06,13.33Z"/><path class="cls-1" d="M421.17,191.15c-12.06,1.47-19.49,3.76-25.83,8.1-43.4,29.61,6.11,71.28,20.93,40.9,9.34-19.23-16.61-33.5-24.47-17.39-2.64,5.4-1,8.88-1.32,10.56-5.05-5.32-3-16.94,3.31-25.4,7.66-10.39,16.84-13.7,27.38-16.77Z"/><path class="cls-1" d="M467.61,428.19c5.6,9.12,8.13,15.46,8.87,22.21,4.9,45.8-47.69,34.1-36.72,7.6,6.93-16.77,29.76-6.58,23.93,7.49-1.91,4.66-4.94,5.39-5.84,6.58,6,.57,12.1-7.07,14.08-15.95,2.3-10.84-.62-19-4.32-27.93Z"/><path class="cls-1" d="M424.87,162c10.73-.57,17.38-2.21,23.18-5.6,39.71-23.64-1.79-63.06-16.38-37.14-8.32,14.85,9.07,27.69,18.13,19.76a8.56,8.56,0,0,1-5.17-.53c-4.36-1.8-6.66-6.59-5.14-10.72a8,8,0,0,1,10.74-4.17,9.15,9.15,0,0,1,5,5.15c2.26,5.36-.27,13.82-5.48,20-7.2,8.75-15.52,11.13-24.93,13.21Z"/><path class="cls-1" d="M653.89,220.23c11.4,27.2-9.92,44.9-32.44,45.68-25.75.9-47.53-21.59-50.18-46.5-6.34-58.44,40.84-70.59,78.3-59.75C726.86,182,746,283.29,711.14,354.74l-7.23-23.15c3.34,25-1.28,46.25-17.7,62l-8.24-13c-23,33.95-49.13,21.31-66.17,43.6-20.11,26.22-11.86,68,17,72.27,23.38,1.06,34.15-16.61,19.45-36.57-1.24-8.34,10-14.47,14.94-12.14,4.39,1,9.6,9.44,10.19,17.79,2.45,34.35-50.65,46.54-68.89,23.64-65-81.84,187.33-204.2,84.64-294.71-7.82-6.91-30-3.51-39.91-7.85-31.54-14-31.89-33-57-16.07-11.47,7.73-17.15,24.05-15.79,48C581,252.74,626,262.07,632.3,240.39c1.32-4.62.51-14.52-6.69-19.26-6.11-4-1.87-12.07,7.43-12.88,6.38-.58,16.84,2.2,20.85,12Z"/><path class="cls-1" d="M705.15,234.22c-1.24,97.41-67.79,64.2-98,170.66-11.91-31.94-.28-56.73,5.29-65.52l-13.54,22.7c-8.56-86.78,102.34-70.22,106.3-127.84Zm-17.54,35.94c-8.36,59.14-46.21,33.17-73,95.13C609.94,344.92,619,330.81,623,326l-10,12.55c1.67-53.45,67.68-33.78,74.64-68.42Z"/><path class="cls-1" d="M600,418c-4.32,11.9-8.25,18.89-13.81,24.33-38,37-64.22-23.76-32.56-31.41,20-4.83,26.76,25.23,10,29.2-5.56,1.31-8.4-1.1-10.07-1.23,3.65,6.42,14.85,7.12,24.23,2.87C589.28,436.49,594.61,427.9,600,418Z"/><path class="cls-1" d="M625.46,247.22c-10.78,3-20,1.88-26.77-1.68-26.44-13.78-24.89-37.87-13.92-49.28,8.32-8.63,22.68-9.28,30.42,3,11.39,17.95-12.84,35.21-22.41,20.12-3.19-5-2-8.63-2.45-10.27-4.43,5.85-1.13,17.14,6.07,24.83,8.67,9.36,18.28,11.53,29.06,13.33Z"/><path class="cls-1" d="M657.86,191.15c12.09,1.47,19.52,3.76,25.9,8.1,43.41,29.61-6.14,71.28-21,40.9-9.3-19.23,16.6-33.5,24.5-17.39,2.61,5.4,1.05,8.88,1.32,10.56,5-5.32,3-16.94-3.3-25.4-7.63-10.39-17-13.7-27.46-16.77Z"/><path class="cls-1" d="M611.45,428.19c-5.6,9.12-8.09,15.46-8.87,22.21-4.86,45.8,47.69,34.1,36.72,7.6-6.92-16.77-29.75-6.58-24,7.49,2,4.66,4.94,5.39,5.88,6.58-6,.57-12.14-7.07-14.08-15.95-2.34-10.84.58-19,4.31-27.93Z"/><path class="cls-1" d="M654.2,162c-10.7-.57-17.35-2.21-23.14-5.6-39.72-23.64,1.75-63.06,16.33-37.14,8.33,14.85-9.06,27.69-18.12,19.76a8.42,8.42,0,0,0,5.13-.53c4.4-1.8,6.69-6.59,5.18-10.72a8,8,0,0,0-10.7-4.17,9.07,9.07,0,0,0-5.06,5.15c-2.22,5.36.27,13.82,5.49,20,7.15,8.75,15.44,11.13,24.89,13.21Z"/><path class="cls-1" d="M509.74,153.94c93.47,83,5.44,126.45,83.28,248.07a91.89,91.89,0,0,1-59-60.48L544.59,375c-91.25-63.55,17.74-168.49-34.85-221Zm20.19,48.87c50.25,58.52-6.66,77.29,31.11,158a57.17,57.17,0,0,1-31.11-42l3.81,21.27c-50.49-46.46,24-100.73-3.81-137.29Z"/><path class="cls-1" d="M518.72,69.73c31.12,19.42,10.51,63.76-15.09,58.52a20,20,0,0,0,9.45-6.79c6.69-8.34,6.27-20.16-.81-26.5s-18.32-4.5-25,3.89a21.72,21.72,0,0,0-4.59,15.66c1.09,12.68,14.15,26.13,30.3,32.55,9.25,2.7,18.32,4.79,27.73,5,9.37-.2,18.48-2.29,27.69-5,16.15-6.38,29.18-19.87,30.3-32.55a21.66,21.66,0,0,0-4.62-15.66c-6.66-8.39-17.86-10.1-25-3.89s-7.5,18.16-.81,26.5a20.07,20.07,0,0,0,9.45,6.79c-25.63,5.24-46.21-39.1-15.13-58.52,54.38-33.95,84.95,88.54-15.72,89.93-119.6,1.64-88.1-127.31-28.16-89.93Z"/><path class="cls-1" d="M473.88,527.44,540,597l66.16-69.53L540,457.88Zm113.3,0L540,577,492.9,527.44,540,477.88Z"/><path class="cls-1" d="M503.75,38.12,540,76.27l36.29-38.15L540,0Zm62.12,0L540,65.31,514.21,38.12,540,10.92Z"/><path class="cls-1" d="M163.72,595.46c21.12,19.79,43.68,4,51.34-18.37,8.79-25.39-4.86-54.14-26.49-64.57-50.95-24.38-76.51,19.06-78.3,59.87C106.65,656.6,192.34,707,267.76,694.3l-18.71-14.39c21.55,11,42.21,13,61.5,1.39l-9.22-12.23c37.85-12.47,34.46-42.53,59.82-52.68,30-12,65.23,9.17,60.18,39.35-6.3,23.64-25.6,29-39.06,8-7.19-3.8-16.18,5.57-15.63,11.21-.43,4.7,5.56,12.56,12.91,15.7,30.38,13.13,57.8-36.23,42.75-61.5-53.95-90.35-242.6,124.12-292.74-6.51-3.85-9.93,6.11-31,5.22-42.37-3-35.82-19.92-42,3.15-61.91,10.5-9.12,27-9.78,48.27-.9,29.48,15.09,24,63,2.49,62.61-4.59-.08-13.31-4-15.37-12.6-1.75-7.4-10.38-5.64-14,3.4-2.49,6.13-3.15,17.46,4.4,24.54Z"/><path class="cls-1" d="M160.49,651c88.56,28.88,79.07-48,184.72-45.31-25.25-21.8-51.23-17.83-60.88-15L309,584.21c-75.81-35.34-95.1,80.61-148.5,66.78Zm37.92-6.42c56.09,9.86,44.3-36,108.68-43.55-17-11-32.52-6.38-38.16-3.81l14.51-6.13c-48.86-14.93-51.5,57.21-85,53.49Z"/><path class="cls-1" d="M359.25,602.65c12.13-.61,19.72-2.41,26.29-6.29,45.2-26.51-1.67-71.53-18.36-42.21-10.54,18.49,14.51,34.52,23.38,19,2.88-5.2,1.52-8.76,1.94-10.43,4.71,5.68,1.91,17-4.9,25.15-8.24,9.81-17.69,12.43-28.35,14.8Z"/><path class="cls-1" d="M196.93,575.29c6.07-9.77,7.9-19.42,6.77-27.32-4.32-30.71-26.6-36.6-40.3-29.07-10.38,5.64-15.4,19.79-6.72,31.28,12.71,16.93,35.86-2,25.12-16.19-3.58-4.75-7.23-4.62-8.59-5.65,6.73-2.61,15.87,4.22,20.61,13.75,5.84,11.65,4.86,21.92,3.11,33.2Z"/><path class="cls-1" d="M136.22,590.43c-2.42,12.51-2.65,20.61-.7,28.38,13.34,52.59,66.39,15.87,43.44-8.26-14.51-15.3-35.39,6.21-23.26,19.1,4.05,4.25,7.67,3.72,9.18,4.54-6.38,3.35-16.22-2.25-22-11.13-7-10.88-7.16-21.18-6.65-32.63Z"/><path class="cls-1" d="M365,617.25c10-2.78,16.5-3.39,22.76-2,42.94,9.24,16.14,58.2-4.55,39-13-12.15,3.3-31.82,14.27-21.64,3.66,3.44,3.35,6.67,4.09,7.89,2.41-5.8-2.61-14.27-10-19-9.06-5.69-17.35-5.32-26.53-4.3Z"/><path class="cls-1" d="M110.93,577.71c2.8-10.92,3.39-18,2-24.91-9.11-47-57.57-17.71-38.59,4.87,10.85,12.84,27.81-.53,23.45-12.07a9.49,9.49,0,0,1-2,5c-3,3.81-8,4.66-11.28,1.84s-3.46-8.22-.5-12A8.92,8.92,0,0,1,90.24,537c5.56-.57,12.45,4.54,16.45,11.66,5.64,10,5.25,19,4.24,29.08Z"/><path class="cls-1" d="M234.43,366.68c28.16-2.94,37.61,23.84,31.27,46.58-7.12,26-34.19,40.82-57.56,35.83-54.81-11.7-51.19-62.7-29.84-96.76,44.11-70.43,141.66-58.24,195.53-1.27l-23.22,0c23.65,4.37,41.43,15.58,50.61,36.81l-14.28,4.25c23.61,33.53,4.09,55.74,18.94,79.67,17.55,28.21,57.84,32.88,70.64,5.31,8.13-23-4.47-39.26-27.07-30.67-7.94-1.39-10-14.52-6.38-18.69,2.26-4,11.51-6.75,19.21-4.79,31.94,8.22,26.49,65.15.16,76.28C368.35,538.94,335.6,248.77,222,323.49c-8.67,5.73-12.37,28.92-19.41,37.46-22.4,27.24-39.67,21.76-32.16,52.15,3.46,13.82,16.45,24.54,38.54,30.59,32.36,5.93,54.73-36.24,37.07-49.16-3.73-2.82-13-5-19.49.7-5.52,4.9-11.51-1.89-9.37-11.37,1.4-6.59,7.16-16.12,17.27-17.18Z"/><path class="cls-1" d="M262.86,319.73C350.61,351.1,300,407.37,386.94,470.56c-32.59,2-51.42-17.26-57.6-25.52l16.33,20.53c-81.13-18.24-31.85-124-82.81-145.84ZM290,348.36c50.84,26.7,15.72,56.48,63.56,102.4a41.33,41.33,0,0,1-33-20.49l8.28,13.87C281,426,319.18,366.07,290,348.36Z"/><path class="cls-1" d="M396.67,481.68c9.49,8,14.58,14.11,17.73,21.35,21.75,49.4-41.34,56.89-38.43,22.86,1.87-21.51,31-19,29.49-1-.51,6.05-3.66,8.06-4.24,9.69,6.92-1.68,11.08-12.64,10.07-23.35-1.2-13.13-7.35-21.06-14.62-29.57Z"/><path class="cls-1" d="M250,403.53c-.59,11.61-4.48,20.57-9.77,26.25-20.61,22.17-42,13.13-48.89-1.35-5.25-11-1.4-25.47,12.06-29.52,19.76-5.85,27.89,23.76,11.28,28.66-5.56,1.64-8.48-.69-10.11-.73,4,6.22,15.2,6.42,24.38,1.63,11.21-5.88,16.15-14.76,21.05-24.94Z"/><path class="cls-1" d="M209.34,353.72c5.06-11.62,9.41-18.33,15.29-23.4,40.22-34.23,62.62,28.14,30.49,33.54C234.9,367.29,230,337,247,334.09c5.68-1,8.33,1.71,10,1.88-3.27-6.63-14.35-8.18-24-4.5-11.75,4.41-17.62,12.68-23.65,22.25Z"/><path class="cls-1" d="M409.42,473.42c6.5,8.38,11.48,12.92,17.35,15.66,39.87,19.06,45.55-37.17,18.13-34.35-17.31,1.76-15.09,27.73-.59,26.26,4.83-.54,6.46-3.28,7.74-3.89-1.24,6.22-10.07,9.94-18.7,9.2-10.51-1-17-6.46-23.93-12.88Z"/><path class="cls-1" d="M181.8,348.36c-3.85,10.55-7.35,16.72-12.29,21.43C135.9,402.18,113.07,348.48,141,342c16-3.8,22.29,17.58,12.29,24.17a9.93,9.93,0,0,0,1.13-5.28c-.31-5-3.89-8.75-8.09-8.46s-7.35,4.46-7.12,9.4a9.45,9.45,0,0,0,3.07,6.67c4.17,3.89,12.61,4.05,19.84.74,10.15-4.54,14.86-12.11,19.68-20.9Z"/><path class="cls-1" d="M129.88,490.35c104-67.81,116.06,33.66,250.14-6.54-25.32,36.6-59.79,40.61-73,40.28l33.53-.24c-85.65,71.57-146.88-69.86-210.7-33.5Zm50.48-5.07c68.46-32.1,67.92,30.51,152.52,17.79-18.29,20-39.52,19.47-47.54,18.16L305.77,524C248.12,560,222,468.8,180.36,485.28Z"/><path class="cls-1" d="M56.52,455.34c27.15-25.11,60.87,9.25,48.23,33.17A21.69,21.69,0,0,0,101.56,477c-5.49-9.24-16.38-12.56-24.23-7.36s-9.73,16.93-4.24,26.17a20.23,20.23,0,0,0,12.72,9.49c11.82,2.78,28-6.09,38.78-20.25,5.32-8.42,10-16.84,13.06-26.17,2.69-9.49,3.62-19.14,4-29.28-.82-18.08-8.91-35.34-20.07-40.33a19.16,19.16,0,0,0-15.6-.2c-9.68,4.09-14.62,14.76-11.24,23.76s14.08,13.13,23.73,9.08a20.87,20.87,0,0,0,9.06-7.36c-3.23,27.2-49.67,34.11-57.61-3C56.09,346.64,176.36,354,146.45,455.1c-35.36,120-142.29,48.58-89.93.24Z"/><path class="cls-1" d="M456.64,641.63,540,597l-42.44-87.6L414.21,554Zm35-113.24,30.26,62.44-59.39,31.78-30.26-62.45Z"/><path class="cls-1" d="M23.3,460.58,69,436.12,45.7,388,0,412.48Zm19.21-62.12L59,432.69,26.45,450.15,9.88,415.88Z"/><path class="cls-1" d="M422.34,972.77c24.43-15,17.07-42.41-.7-57-20.34-16.65-50.49-11.9-66.59,6.58-37.81,43.31-6.42,82.37,29.91,96.76,75,29.7,147.14-40.48,158.93-119.82L525.1,913.59c16.65-18.16,24.78-38.24,20.31-61.06l-14,5.32c.43-41.67-27.85-47.56-29.17-76.07-1.59-33.74,28.43-62.33,54.18-48,19.45,13.58,18.28,34.56-4.78,41.51-5.64,6,0,18,5.29,19.06,4.12,2,13.11-1.64,18.2-8,21.24-26.34-14.93-69-42.43-61.79-98.37,26.09,37.34,281-96.35,290.77-10.19.82-26.22-15.7-36.68-18.24-33.37-8.18-44.19,6.91-55.12-22.25-4.94-13.33-.38-30,14.12-48.62,22.84-24.78,64.45-4.54,57.45,16.93-1.51,4.5-7.7,12-16.18,11.37-7.19-.49-8.24,8.67-1.24,15.09,4.82,4.38,14.86,8.55,23.61,3.15Z"/><path class="cls-1" d="M471.58,993.18c53.48-79.55-18.94-93.86,16.1-198.68a71.92,71.92,0,0,0-32.32,56.19l1.75-26.7c-55.46,64.94,43.49,120.07,14.47,169.19Zm5.91-40c26.26-53-18.9-55.37-5.83-122a44.85,44.85,0,0,0-15.25,36.93l-1-16.35c-28.59,44.25,35.86,69.15,22.09,101.46Z"/><path class="cls-1" d="M489.28,779.53c3.19-12.35,3.89-20.49,2.41-28.22-10-53.41-65.19-20.53-43.87,5.24,13.53,16.23,35.74-3.81,24.38-17.46-3.77-4.54-7.39-4.26-8.87-5.24,6.62-2.94,16.07,3.39,21.28,12.68,6.38,11.33,5.84,21.59,4.67,33Z"/><path class="cls-1" d="M414.36,933.39c-7-9.12-15.13-13.91-22.59-15.22C362.71,913,350.54,933.43,353,949.54c1.9,12.06,13.14,21.47,26.25,16.36,19.25-7.49,9.3-36.48-6.84-30.14-5.41,2.08-6.46,5.8-7.75,6.83-.27-7.49,8.68-14.56,18.79-16.36,12.25-2.21,21.24,1.88,30.92,7.16Z"/><path class="cls-1" d="M409.31,998.74c10.58,6.34,17.85,9.08,25.4,9.49,51.73,2.94,34.93-61.47,5.91-46-18.28,9.81-5.25,37.38,10.11,29.2,5.14-2.74,5.76-6.5,6.93-7.73,1.09,7.36-7,15.5-16.92,18.52-11.91,3.6-21.24.58-31.43-3.47Z"/><path class="cls-1" d="M504.29,778.26c.59-10.79,2-17.5,5.25-23.39,21.63-40.12,57.61,2,33.88,16.56-15,9.29-27.73-13.12-15.17-20.89,4.2-2.62,7.08-1.35,8.44-1.68C532.22,744.61,523,747,516.47,753c-8.05,7.32-10.23,15.75-12.18,25.23Z"/><path class="cls-1" d="M390,1020.09c-9-6.14-15.29-8.92-21.94-9.74-45.28-5.4-33.8,52.11-7.51,40.12,15-6.83,8.17-28-3.62-27.23a10,10,0,0,1,3.89,3.64c2.49,4.13,1.71,9.44-1.83,11.77s-8.47.94-11-3.19a9.75,9.75,0,0,1-1.21-7.32c1.21-5.68,7.9-11,15.6-12.88,10.77-2.45,18.79.74,27.62,4.83Z"/><path class="cls-1" d="M237.23,831.43c6-29.08,33.14-30.22,51.85-16.93,21.31,15.17,26.33,46.83,14.58,68.62-27.53,51.21-72.54,31.9-96.77,0-50-65.84-8.91-159.66,59.28-195.89l-7.12,23.15c11.28-22.25,26.92-36.61,49-39.14l-.58,15.58C345,673.53,359.09,700,385.31,692.5c31-8.83,47.61-47.72,26.68-69-18.24-15.25-36.91-7.65-36.09,17.63-3.7,7.48-16.26,5.48-18.95.57-3-3.52-2.45-13.58,1.68-20.65,17.27-29.41,67.05-6.42,69,23.35,6.84,106.45-265.7,49.48-233.22,186.2,2.41,10.39,22.24,21.27,27.85,31,17.69,30.8,7.39,46.34,37.14,48.18,13.62.86,27.35-8.8,39.64-29.08,15.36-30.55-15.83-65.89-33.06-52.27-3.62,2.91-8.48,11.5-5.33,19.76,2.72,7-5.29,10.88-13.23,5.89-5.4-3.52-12.29-12.23-10.15-22.62Z"/><path class="cls-1" d="M203.62,788.49c55.43-78.11,90.75-10.06,174.73-77.5-8.25,33.25-31.51,46-40.88,49.73l23.61-10c-41.58,75.46-122-6.5-157.46,37.75Zm34.27-18.28c39.83-42.62,55.93,1.72,112.22-31.9-7.59,19.42-22.72,25.23-28.71,26.62l15.13-4c-31.19,42.33-73.63-14.43-98.64,9.33Z"/><path class="cls-1" d="M391.42,704.73c10.15-7,17.23-10.22,24.77-11.12,51.35-6.5,38.7,58.93,8.79,45.48-18.86-8.47-7.62-36.89,8.29-29.82,5.29,2.46,6.18,6.14,7.43,7.28.66-7.48-8-15-18-17.3-12.22-2.86-21.36.78-31.27,5.48Z"/><path class="cls-1" d="M275.39,827.18c10.38,4.21,17.23,10.83,20.73,18,13.69,27.48-1.09,46-16.34,48.46-11.55,1.8-23.53-6.5-22.95-21.18.82-21.55,30.11-20.57,29.41-2.41-.23,6-3.23,8.17-3.73,9.85,6.84-2,10.42-13.17,8.94-23.88-1.83-13.05-8.36-20.7-16.06-28.79Z"/><path class="cls-1" d="M217.78,852.45c-9-8.63-13.69-15.09-16.41-22.53-18.56-50.8,44.84-53.86,39.79-20.08-3.19,21.34-32.17,16.8-29.52-1.11.93-6,4.16-7.77,4.9-9.4-7,1.22-11.87,11.86-11.59,22.65.42,13.09,6.06,21.51,12.83,30.47Z"/><path class="cls-1" d="M387.88,689.4c9.64-3.89,15.2-7.45,19.56-12.48,29.56-34-19.53-57-25.48-28.79-3.77,17.87,20.42,23.68,23.57,8.71,1.05-5-1-7.48-1.08-9,5.25,3.19,5.87,13.16,2.52,21.63-4.24,10.14-11.12,15-19.09,19.88Z"/><path class="cls-1" d="M204.44,878.34c8.36,7.16,12.84,12.55,15.6,18.93,18.94,43.64-36.68,49.86-34,20,1.56-17.18,22.76-16.85,25.71-4.87a9.94,9.94,0,0,0-4.43-2.74c-4.55-1.26-9.14,1.23-10.19,5.48s1.79,8.76,6.3,10a8.4,8.4,0,0,0,7-1c4.82-2.94,7.54-11.33,6.84-19.59-1.05-11.57-6.45-18.61-12.87-26.17Z"/><path class="cls-1" d="M316.77,974.2c-29.17-125,66.36-105.76,71.42-252.21,25.28,36.6,18.24,72.35,13.88,85.43l10.12-33.65C450.5,881.61,303.66,899.11,316.77,974.2Zm11.09-52.06c-7.94-78.44,48.62-58.48,63.17-147,12.48,24.41,5.4,45.51,1.71,53.08l8.79-19.55c14.82,68.83-75.77,66.7-73.67,113.45Z"/><path class="cls-1" d="M262.43,1036.69c-14.27-34.93,27.19-58.07,45-38a19.39,19.39,0,0,0-11.44-.37c-10,2.62-16.37,12.51-14.12,22s12.26,14.93,22.37,12.27a19.8,19.8,0,0,0,12.49-9.81c6.14-10.92,3.15-29.9-6.38-45-6-7.94-12.14-15.17-19.65-21.23-7.7-5.56-16.18-9.49-25.2-13-16.61-4.79-34.7-2-42.71,7.64a21.69,21.69,0,0,0-5,15.5c.7,10.88,8.79,19.18,18.09,18.53s16.18-10,15.48-20.9a22.11,22.11,0,0,0-3.89-11.33C271,964.51,263,1013.13,227,1009.58c-63-6.1-19.25-124.13,63-63,97.71,72.64.12,157.46-27.5,90.14Z"/><path class="cls-1" d="M554.66,694.18,540,597l-92.42,15.42,14.66,97.13ZM463,624.12l65.82-10.87,10.46,69.15-65.85,11Z"/><path class="cls-1" d="M257,1071.53l-8-53.28-50.68,8.46,8.05,53.25Zm-50.29-38.36,36.13-6,5.76,38-36.14,6Z"/><path class="cls-1" d="M843.55,830.82c-6-29.08-33.14-30.23-51.77-17-21.36,15.18-26.41,46.87-14.63,68.63,27.54,51.24,72.54,31.9,96.74,0,50.06-65.89,8.9-159.66-59.28-195.94l7.12,23.19c-11.24-22.25-26.92-36.56-48.93-39.14l.58,15.58c-37.61-13.29-51.66,13.09-77.87,5.69-31-8.88-47.57-47.73-26.68-69,18.32-15.22,36.91-7.65,36.13,17.58,3.66,7.53,16.26,5.52,18.86.61,3-3.55,2.49-13.57-1.63-20.69-17.31-29.36-67.1-6.38-69,23.43-6.85,106.38,265.74,49.45,233.26,186.13-2.49,10.42-22.29,21.26-27.89,31-17.7,30.83-7.39,46.37-37.14,48.17-13.62.9-27.31-8.83-39.6-29.12-15.4-30.42,15.79-65.84,33-52.14,3.62,2.9,8.48,11.41,5.33,19.67-2.68,7,5.25,10.92,13.27,5.85,5.44-3.39,12.33-12.1,10.11-22.53Z"/><path class="cls-1" d="M877.23,787.83c-55.5-78.11-90.78-10.06-174.76-77.5,8.25,33.21,31.51,46.1,40.88,49.69l-23.61-9.93c41.62,75.49,122-6.42,157.49,37.74ZM843,769.59C803.1,727,787,771.35,730.75,737.74c7.58,19.42,22.71,25.27,28.7,26.66l-15.09-4c31.16,42.25,73.59-14.48,98.6,9.24Z"/><path class="cls-1" d="M689.44,704.16c-10.19-7.08-17.27-10.27-24.82-11.21-51.38-6.46-38.7,58.94-8.79,45.52,18.87-8.46,7.63-36.93-8.24-29.85-5.29,2.37-6.19,6.13-7.43,7.28-.7-7.53,8-15,18-17.34,12.21-2.78,21.35.86,31.27,5.6Z"/><path class="cls-1" d="M805.47,826.56c-10.39,4.13-17.23,10.8-20.77,17.87C771,872,785.79,890.48,801.07,892.9c11.52,1.88,23.54-6.46,23-21.15-.85-21.59-30.1-20.61-29.44-2.45.23,6.05,3.22,8.22,3.81,9.86-6.89-2-10.5-13.21-9-23.89,1.83-12.88,8.33-20.61,16.07-28.71Z"/><path class="cls-1" d="M863.07,851.84c8.95-8.59,13.7-15.09,16.34-22.5,18.63-50.75-44.81-53.82-39.75-20.08,3.15,21.31,32.13,16.73,29.44-1.14-.89-6-4.12-7.77-4.86-9.33,7,1.19,11.83,11.78,11.55,22.58-.35,13.17-5.95,21.55-12.72,30.47Z"/><path class="cls-1" d="M692.94,688.78c-9.61-3.92-15.21-7.48-19.56-12.47-29.57-34,19.52-57,25.47-28.71,3.74,17.83-20.42,23.68-23.57,8.71-1-5,1-7.52,1.09-9-5.25,3.23-5.87,13.21-2.49,21.56,4.2,10.22,11.09,15,19.06,19.91Z"/><path class="cls-1" d="M876.38,877.77c-8.33,7.07-12.8,12.51-15.6,18.89-18.9,43.6,36.68,49.85,34,19.92-1.59-17.18-22.79-16.85-25.71-4.83a8.83,8.83,0,0,1,4.48-2.74,8,8,0,0,1,10.11,5.44c1.09,4.29-1.79,8.79-6.3,10.06a8.38,8.38,0,0,1-7-1.06c-4.83-3-7.51-11.29-6.81-19.59,1.05-11.54,6.42-18.57,12.84-26.09Z"/><path class="cls-1" d="M658.48,972.16c-24.43-15-17.08-42.46.74-57,20.3-16.65,50.49-12,66.59,6.54,37.84,43.39,6.42,82.41-29.87,96.76-75.07,29.69-147.19-40.4-158.94-119.83L555.79,913c-16.68-18.12-24.78-38.2-20.3-61.14l14,5.52c-.43-41.72,27.81-47.65,29.17-76.15,1.56-33.7-28.43-62.41-54.14-48-19.49,13.57-18.36,34.55,4.71,41.55,5.68,6,0,18-5.29,19.1-4.09,1.88-13.07-1.68-18.21-8-21.23-26.34,14.94-69.07,42.44-61.75,98.37,26-37.3,281,96.31,290.73,10.19.78,26.17-15.7,36.72-18.28,33.33-8.22,44.18,6.91,55-22.25,5-13.37.43-30.06-14.08-48.62-22.83-24.79-64.49-4.5-57.45,16.89,1.52,4.54,7.74,12,16.18,11.41,7.2-.41,8.25,8.71,1.21,15.09-4.78,4.33-14.82,8.5-23.57,3.11Z"/><path class="cls-1" d="M609.24,992.56C555.75,913,628.18,898.7,593.13,793.89a71.87,71.87,0,0,1,32.33,56.19l-1.75-26.67c55.46,65-43.49,120.08-14.47,169.15Zm-5.88-39.91c-26.25-53,18.87-55.42,5.84-122.08a44.68,44.68,0,0,1,15.21,36.93l1.05-16.36c28.55,44.25-35.91,69.12-22.1,101.51Z"/><path class="cls-1" d="M591.58,778.92c-3.23-12.35-3.93-20.45-2.45-28.26,10-53.37,65.26-20.49,43.87,5.23-13.5,16.28-35.74-3.8-24.39-17.42,3.82-4.58,7.43-4.25,8.83-5.23-6.53-3-16,3.39-21.2,12.67-6.34,11.37-5.87,21.64-4.66,33Z"/><path class="cls-1" d="M666.45,932.73c7-9.08,15.17-13.82,22.6-15.17,29.1-5.2,41.31,15.25,38.78,31.28-1.87,12.15-13.15,21.52-26.25,16.4-19.22-7.48-9.3-36.44,6.88-30.1,5.41,2.05,6.42,5.81,7.82,6.83.19-7.48-8.75-14.56-18.87-16.4-12.29-2.25-21.23,2-31,7.16Z"/><path class="cls-1" d="M671.59,998.17c-10.62,6.29-17.9,9-25.44,9.48-51.73,2.87-35-61.46-5.95-46,18.28,9.78,5.25,37.38-10.08,29.16-5.13-2.7-5.75-6.54-6.92-7.69-1.13,7.37,7,15.46,16.84,18.45,11.94,3.68,21.32.69,31.55-3.35Z"/><path class="cls-1" d="M576.56,777.65c-.54-10.8-2-17.5-5.21-23.35-21.63-40.08-57.64,1.92-33.88,16.56,15,9.29,27.77-13.09,15.13-20.94-4.2-2.53-7-1.31-8.44-1.63,4.55-4.22,13.69-1.84,20.27,4.21,8,7.28,10.19,15.66,12.13,25.15Z"/><path class="cls-1" d="M690.88,1019.47c9-6.17,15.29-8.91,21.9-9.69,45.23-5.48,33.76,52.06,7.51,40.08-15-6.83-8.17-28,3.57-27.24a10,10,0,0,0-3.81,3.64c-2.53,4.13-1.75,9.49,1.79,11.86s8.48.94,11-3.19a9.91,9.91,0,0,0,1.24-7.32c-1.2-5.68-8-11-15.67-12.84-10.74-2.62-18.79.57-27.54,4.7Z"/><path class="cls-1" d="M812.2,936.82c-122-9.45-75.11-99-206-149.31,41-14,71.11,4,81.61,12.47l-27.35-20.53c109.42-5,79.86,147.23,151.78,157.37Zm-43.64-27.24C695.16,893.27,730.67,843,655.06,801c26-4.9,42.86,8.63,48.62,14.64l-15-14.84c66.87,6.5,37,96.47,79.9,108.78Z"/><path class="cls-1" d="M852,1010.35c-36,3.56-44.11-45-20.46-56.64A21.8,21.8,0,0,0,827.64,965c-.66,11,6.26,20.28,15.52,20.9s17.35-7.65,18.05-18.53a21.4,21.4,0,0,0-5-15.5c-8-9.57-26.06-12.35-42.67-7.57-9,3.52-17.5,7.45-25.24,13.09-7.47,6-13.66,13.25-19.61,21.15-9.49,15.17-12.56,34.1-6.38,45a20.27,20.27,0,0,0,12.49,9.86c10.07,2.66,20.07-2.86,22.36-12.31s-4.08-19.3-14.11-22a19.28,19.28,0,0,0-11.44.37c17.78-20,59.24,3,45,38-25,61.1-118.24-19.1-37.53-82.45,95.8-75.25,142.36,48.54,73,55.29Z"/><path class="cls-1" d="M632.42,612.39,540,597l-14.63,97.21,92.46,15.34Zm-91.64,70,10.46-69.15,65.81,10.87-10.42,69.24Z"/><path class="cls-1" d="M881.82,1026.71l-50.68-8.46-8,53.28,50.68,8.47Zm-50.29,38.4,5.68-38,36.13,6L867.63,1071Z"/><path class="cls-1" d="M845.3,365.74c-28.12-3-37.54,23.76-31.27,46.54,7.11,26,34.19,40.86,57.56,35.83,54.85-11.74,51.23-62.7,29.91-96.77C857.4,281,759.84,293.15,706,350.08h23.18c-23.65,4.37-41.42,15.66-50.56,36.88l14.27,4.22c-23.61,33.53-4.08,55.74-18.94,79.62C656.34,499,616,503.64,603.25,476.12c-8.09-23,4.47-39.26,27.11-30.67,7.89-1.31,9.95-14.52,6.34-18.69-2.3-4.09-11.52-6.75-19.22-4.75-31.89,8.22-26.49,65.11-.15,76.23C711.46,538,744.21,247.83,857.78,322.51c8.68,5.73,12.33,28.87,19.45,37.46,22.41,27.2,39.64,21.72,32.09,52.06-3.38,13.87-16.41,24.58-38.54,30.59-32.33,6-54.69-36.15-37-49.15,3.69-2.74,13-5,19.44.73,5.57,4.91,11.52-1.84,9.42-11.41-1.44-6.46-7.2-16.07-17.31-17.05Z"/><path class="cls-1" d="M816.87,318.75c-87.76,31.37-37.11,87.72-124.12,150.83,32.59,2,51.42-17.26,57.6-25.48L734,464.67c81.17-18.32,31.89-124.12,82.85-145.92Zm-27.12,28.67C738.92,374.08,774,403.9,726.24,449.78a41.26,41.26,0,0,0,33-20.53l-8.32,13.91c47.84-18.08,9.64-78.08,38.85-95.74Z"/><path class="cls-1" d="M683.14,480.7c-9.53,8.06-14.59,14.11-17.78,21.31-21.78,49.44,41.35,57,38.43,22.9-1.86-21.51-31-19-29.52-.94.55,6,3.66,8.06,4.24,9.65-6.92-1.68-11.09-12.6-10.11-23.35,1.24-13.09,7.39-21.1,14.74-29.57Z"/><path class="cls-1" d="M829.7,402.51c.55,11.65,4.51,20.57,9.76,26.25,20.7,22.21,42,13.17,48.94-1.39,5.25-10.92,1.4-25.44-12.06-29.45-19.76-5.84-27.93,23.72-11.32,28.63,5.56,1.64,8.48-.73,10.11-.73-4,6.21-15.21,6.42-24.39,1.63-11.16-5.89-16.14-14.72-21-24.94Z"/><path class="cls-1" d="M870.39,352.73c-5.06-11.65-9.42-18.36-15.33-23.35-40.18-34.31-62.58,28.14-30.49,33.62,20.22,3.35,25.12-27,8.09-29.86-5.68-.94-8.29,1.68-9.92,2,3.23-6.71,14.35-8.22,24-4.54,11.74,4.41,17.62,12.64,23.65,22.16Z"/><path class="cls-1" d="M670.3,472.44c-6.49,8.42-11.47,12.88-17.34,15.7-39.91,19.1-45.55-37.17-18.13-34.35,17.27,1.76,15.09,27.73.54,26.3-4.82-.54-6.45-3.28-7.74-3.85,1.29,6.22,10.08,10,18.71,9.12,10.58-1.06,17-6.46,24-12.92Z"/><path class="cls-1" d="M898,347.42c3.82,10.51,7.36,16.68,12.26,21.35,33.6,32.43,56.44-21.23,28.51-27.73-16-3.81-22.25,17.62-12.25,24.21a9.91,9.91,0,0,1-1.13-5.32c.31-4.91,3.89-8.71,8.09-8.42s7.35,4.45,7.12,9.44a9.46,9.46,0,0,1-3.12,6.59c-4.12,3.88-12.56,4-19.79.82-10.16-4.62-14.9-12.19-19.69-20.94Z"/><path class="cls-1" d="M916,594.47c-21.12,19.8-43.72,3.93-51.38-18.36-8.79-25.44,4.86-54.15,26.57-64.53,50.91-24.38,76.47,19.05,78.26,59.79,3.65,84.24-82.07,134.67-157.49,121.87l18.7-14.35c-21.54,11.12-42.16,13-61.49,1.47l9.18-12.31c-37.81-12.48-34.46-42.49-59.82-52.64-30-12-65.23,9.12-60.18,39.26,6.27,23.68,25.56,29.08,39.06,8.14,7.19-3.8,16.18,5.52,15.63,11.17.39,4.78-5.56,12.55-13,15.74-30.34,13.13-57.8-36.23-42.71-61.55,53.95-90.3,242.64,124.17,292.77-6.46,3.86-10-6.1-31-5.21-42.33,2.92-35.86,20-42-3.11-62-10.5-9.12-27-9.77-48.27-1-29.48,15.14-24,63.11-2.49,62.66,4.55-.08,13.26-4,15.36-12.64,1.76-7.32,10.35-5.56,14,3.44,2.49,6.17,3.23,17.5-4.4,24.57Z"/><path class="cls-1" d="M919.24,650c-88.57,28.88-79-47.93-184.72-45.27,25.25-21.84,51.23-17.87,60.87-15l-24.66-6.54c75.85-35.34,95.11,80.61,148.51,66.78Zm-38-6.46c-56,9.9-44.27-35.95-108.64-43.51,17-11,32.52-6.38,38.2-3.85l-14.51-6.05c48.81-14.93,51.46,57.17,84.95,53.41Z"/><path class="cls-1" d="M720.52,601.67c-12.18-.61-19.72-2.33-26.33-6.3-45.2-26.46,1.63-71.52,18.35-42.2,10.51,18.52-14.5,34.56-23.37,19-3-5.19-1.6-8.75-2-10.42-4.66,5.6-1.86,17,4.87,25.11,8.32,9.81,17.81,12.55,28.47,14.84Z"/><path class="cls-1" d="M882.79,574.31c-6-9.77-7.85-19.42-6.76-27.32,4.24-30.67,26.6-36.56,40.29-29.12,10.35,5.69,15.41,19.76,6.69,31.37-12.72,16.89-35.86-2-25.12-16.27,3.54-4.67,7.19-4.58,8.55-5.61-6.69-2.53-15.87,4.22-20.61,13.79-5.76,11.65-4.75,21.79-3,33.16Z"/><path class="cls-1" d="M943.55,589.44c2.45,12.52,2.65,20.66.7,28.35-13.38,52.59-66.43,15.9-43.49-8.35,14.51-15.25,35.4,6.3,23.27,19.14-4,4.26-7.67,3.76-9.15,4.62,6.34,3.4,16.19-2.25,22-11.2,7-10.84,7.16-21.15,6.69-32.56Z"/><path class="cls-1" d="M714.76,616.23c-10-2.78-16.53-3.35-22.79-2-42.94,9.24-16.1,58.28,4.51,39,13-12.14-3.27-31.81-14.24-21.63-3.61,3.39-3.38,6.67-4.16,7.93-2.41-5.84,2.65-14.27,10.12-19,9.1-5.65,17.38-5.28,26.56-4.34Z"/><path class="cls-1" d="M968.76,576.73c-2.77-11-3.35-18-2-25,9.07-46.95,57.53-17.67,38.59,4.91-10.81,12.92-27.81-.49-23.46-12a9.85,9.85,0,0,0,2.07,5c3,3.85,8,4.62,11.28,1.88s3.46-8.22.46-12a8.92,8.92,0,0,0-6.26-3.48c-5.52-.61-12.41,4.5-16.45,11.66-5.6,9.94-5.18,19-4.2,29Z"/><path class="cls-1" d="M931.45,429.82c-46.24,119.1-112.72,44.5-198.72,159.83,0-45.19,25.75-69.77,36.49-77.71l-27,21c29.37-110.87,157.88-34.31,189.23-103.1Zm-38,35.22c-37.41,68.33-72,17.3-133.26,79.95,3.58-27.52,21.05-40.2,28.28-44.05l-18,10.35c26.53-64.82,98.61-7.16,123-46.25Z"/><path class="cls-1" d="M1010.38,412.81c-7.94,37.09-54.42,30.18-57.61,2.95a20.63,20.63,0,0,0,9.06,7.4c9.65,4,20.23,0,23.65-9.08s-1.55-19.71-11.12-23.76a19.05,19.05,0,0,0-15.64.2c-11.12,5-19.25,22.25-20,40.33.39,10.14,1.32,19.79,4,29.28,3.11,9.32,7.77,17.71,13.1,26.13,10.78,14.19,27,23.11,38.74,20.33a20,20,0,0,0,12.72-9.57c5.57-9.2,3.66-20.9-4.2-26.14s-18.71-1.88-24.27,7.41a21.6,21.6,0,0,0-3.15,11.49c-12.64-23.93,21-58.28,48.23-33.13,47.49,43.84-53.87,112.26-86.19,12-38.39-119.06,88-127.36,72.7-55.83Z"/><path class="cls-1" d="M582.55,509.37,540,597l83.39,44.66L665.87,554Zm35,113.24-59.36-31.78,30.23-62.44,59.39,31.77Z"/><path class="cls-1" d="M1034.34,388,1011,436.12l45.7,24.46,23.26-48.1Zm19.17,62.12L1021,432.69l16.6-34.23,32.56,17.38Z"/></svg>