<svg id="l56coychas" xmlns="http://www.w3.org/2000/svg" viewBox="0 0 1080 1080"><defs><style>.cls-1{fill:#fff;}</style></defs><g id="typ9096q8hlayer_1" data-name="typ9096q8hlayer 1"><path class="cls-1" d="M1075.19,427c-12.25-20.51-32.33-20.24-52.3-23-13-1.82-19.12,1.07-23.27,13.51-5.31,15.93-6,15.69-23,14a450.32,450.32,0,0,1,5.51-65.43c1.59-10.51-6.25-12.25-15.09-5.89-13.45,9.68-21.44,23.75-30.32,37.18-9.27,14-16.71,30-28.34,41.57C895,452.22,873.26,456,858.21,450.6c-8.57-3.08-6.05-27.26,1.71-41.44,3.18-5.81,5.23-12.13-1.24-17-6.75-5.14-11.25,0-16.17,4.14-16.48,13.83-26.21,32.8-36.45,51-14,24.9-36.68,25.41-61.69,26.68,13.3-12.37,4.5-29.09,11.13-42.28,2.09-4.15,3.8-9.37-.51-13.79-5-5.14-9.92-2-15.2-.16-24.19,8.46-38.92,28-48.19,49.75-8.61,20.15-22,25.44-40.72,27.65-8.72,1-12.79-.51-15.27-8.93-6.36-21.61,6.71-49.27-19.23-64.84-.35-.19-.28-1.3-.24-2,.93-13.12,31.18-48,43.86-50.22,4.53-.79,7.79-2.85,9.42-7.11,5.39-13.87,18.07-18.77,29.62-24.82,36.14-18.84,67.35-45.44,101.9-66.85,5-3.08,14.23-7.43,8.14-16.08-5.93-8.42-13.14-3.76-19.89.75-11.55,7.7-23.14,15.37-35.2,22.13-27.49,15.37-52.54,35.28-83.87,49.5,2.67-9.08,3.14-15.92,6.39-20.94,19.08-29.55,27-64.44,44.17-94.87,3.22-5.69,10.16-14.54.31-20.27-10.16-5.88-17,.91-21.4,9.92-6.17,12.57-11.56,25.57-17.84,38.05-6.36,12.69-9.89,27.5-23.38,36.39-8.45-26.15-16.48-50.77-24.43-75.43-2.68-8.33-6.44-18.09-16.44-14.54-10.35,3.68-6.13,13.91-3.84,22q10.94,38.58,21.91,77.09c3.72,13.2,5.81,26.51-3.06,38.44-16.76,22.57-28.46,48-40.14,73.38-2.63,5.77-7.25,11.62-11.74,10-15.48-5.5-19.47,5.8-27.61,14.58-9.23,10-23.38,19.67-36.06,17.3C507.3,436,508.39,419,507,408.25c-1.16-9.25-9.65-20.91-.27-27.7,21.64-15.69,28.54-40.42,41.18-61.68,2.29-3.83,5.23-7.31,1.86-11.18-4.61-5.3-8.8-1.31-12.33,2.09-12.84,12.29-25.55,24.74-39.82,38.57-2.83-15.53-7.21-29-7.1-42.36.08-10.27,2.75-24.85,9.66-30,20.78-15.41,27.68-38,36.37-60,2.6-6.64,9.26-16,1.7-21.3-8.18-5.73-15,3.91-20.51,9.17-11.24,10.67-21.44,22.52-35.21,37.22-4.73-25.92-8.8-47.3-12.48-68.67-1.55-9,.58-16.64,9.15-21.61C505.64,135.49,515.72,108.35,527,82c1.55-3.68,1.82-6.76-.81-9.65-3.57-3.95-7.41-2.92-10.94.08C510.44,76.5,506,80.89,501.14,85c-12.88,10.94-20.86,27.3-37.46,36.15-2.75-19.28-19.27-35.32-2.87-55,12.56-15.05,9.66-45-3.41-55.32C437.7-4.85,414.2-3,400.21,15.46,384.54,36,384.12,61.13,404.82,72.51c28,15.41,23.81,40.7,29.59,64.21-7.53,1.5-10.94-2.57-14.78-5.06-11.09-7.15-21.63-15.17-33-21.77-7.06-4.07-15.75-3.83-20.63,3.48-5.59,8.3,2.79,12.25,7.68,16.79,15.89,14.74,32,29.24,53.85,34.18,6.32,1.42,12.18,3.71,13.57,11.22,4.42,23.79,8.73,47.61,13.89,75.78-21.64-10.55-34-24.85-51.23-30.22-4.34-1.35-9.42-4-13.33,1.3-4.31,5.77-2.1,12.21,2.28,15,13.07,8.41,21.87,21.53,34.63,30.74,10.7,7.7,28.62,7.31,32.45,22.87,5.32,21.58,8.34,43.74,12.49,66.38-14,1.27-20.4-6.28-28.15-10.07-11.28-5.57-22.45-10.75-35.32-10.63-5,0-10.09-.16-12.68,5.06-2.72,5.53.69,10.07,4.57,12.72,19.35,13.2,36.6,30.31,61.23,33.86,12.48,1.82,30.71,48.88,23.07,59.27-1.44,2-4.54,2.88-7.06,3.79-25.09,9-95.38-8.45-112.37-28-1.28-1.5-1.82-3.68-2.67-5.53-19.27-41.93-41.38-82.66-51.42-128.46-1.74-7.9-6.44-13-14.69-11.22-7.53,1.62-8.69,8.54-8.07,15.13.47,4.83,2.37,9.53,3.45,14.31,7.6,33.11,21.41,63.73,39,95.42-22.06-7.59-37.3-22.84-58.12-23.59-5.7-.2-13.34-2.92-15.9,5.61-1.9,6.4,2.91,10.28,7.17,14,7,6.16,16.13,10,21.17,18.73-14.77,10.94-32.45,11-47.19,18.77-5.73,3-14.54,5.65-10.89,14.81,3.26,8.18,9.69,6.8,17.29,3.72,12.8-5.18,26.52-7.79,39.63-12.25,24.93-8.5,48.93-13.44,72.66,4.9,7.76,6,19.08,8,29.12,9.84,13.22,2.41,19.39,10.82,19.93,22.83.86,19.17,4.66,37.54,9.27,56,1.43,5.81,3.88,12.45-1.51,18-10.12,10.47-53.43,13.71-65.34,5-18.45-13.47-36.87-27-55.68-40-4.53-3.12-10.58-8.61-15.78.32-3.76,6.48-2.95,12,2.37,17.07,4,3.83,7.75,8.1,12.13,11.5,12.72,9.91,25.67,19.52,38.51,29.24-.28,1.89-.55,3.83-.82,5.72-13.38,2.53-27.33,3.44-40,8-20.79,7.42-37.42,1.77-53.63-11.38-11.82-9.64-24.35-18.5-37.07-26.91-5.23-3.48-11.9-10.16-18-1.62-5.89,8.22,1.17,12.76,6.44,17.19,13.53,11.38,27.18,22.56,44,36.47-15.63,3-27.3,4.07-38.23,7.5-16.6,5.22-29.9,2.93-43.55-9.24-17.09-15.21-36.25-28.06-55-41.29-4.88-3.48-10.58-12.13-17.56-3.64-5.66,6.92,0,12.49,3.64,18.73,5.55,9.37,13,16.12,21.44,22.4,9,6.68,19.86,11.27,27.84,22.13C117.31,624,106.72,629,97.57,627c-12.95-2.85-26.4,9.12-38.73-3.28-13.54-13.6-31.18-16-45-3.44C1.49,631.61-3.86,648.84,2.73,666.66,7.34,679.18,35.92,700.2,46,698.19c11.25-2.29,25.79-2.93,27.53-17.82,3.11-26.44,20.05-17.7,37.19-18.22-8.49,18.41-16.13,34.06-22.92,50.06a344.15,344.15,0,0,0-12.87,35.64c-3.06,10.4,1.94,18.57,11.28,22,10.51,3.87,10.63-5.25,13.88-12.52,13.15-29.44,27.57-58.28,41.76-87.21,3.38-6.83,6.36-14.93,14.51-17.11,20.16-5.37,40.51-10,64.13-15.76-11,17.78-20,31.89-28.62,46.23-4.65,7.74-7,16.75,1.9,22.44,7.8,5,15.36-1.7,19.78-6.87,8-9.45,16.24-18.81,22.14-30.27,19.23-37.54,66.42-62.86,109.69-59.51-12.76,25.17-28.73,48.33-37.69,75.08-2.25,6.75-2.75,12.92,3.72,16.67,6,3.48,11.48-1.58,14.43-5.41,24-31.45,52.81-60,65.84-98.62,4.88-14.46,16.24-11.86,24.89-14,11-2.81,7.56,9.32,9,14.86,4.07,15.64,5.39,32.12,10.27,47.45,3.14,9.84.74,15.57-5.23,22.32-15.78,17.75-31.25,35.8-42.93,56.78-2.48,4.51-5,7.71-10.93,8-40.83,2.1-74.76,27.27-113.76,36-12.64,2.81-10.32,13.43-.74,19.72,15.94,10.47,32.69,14.22,51,4.58,13.3-7,27.33-12.56,46.37-21.14-15.43,21.54-27.76,38.25-39.47,55.4-4.19,6.16-10.27,14.34-3.95,21,6.86,7.27,15.12-2.29,23.07-2.41,1.9,0,3.49-4.07,5.58-5.81,15.16-12.57,24.74-29.83,38.15-47.38,10.86,29.76,20.9,57.42,31.1,85,1.71,4.62,4.42,9.91,10,9.12,7.22-1,7.29-7.54,6.79-13.27-1.9-21.1-5.39-41.81-14.08-61.33s-18.34-43.06-9.69-60.57c22.14-44.69,36-100.2,98.41-107.59,8.18-1,20.2-10.75,23.73-.43,5.16,15.09,16.83,35.36,5.93,47.84-25.78,29.52-36.45,65.83-51.57,100.13-4.84,11-16,28.53-1.7,35.28,9.19,4.35,16.13-15.17,21.52-26.35C515.1,776,526.19,751.25,546,728.65c9,28.21,10.82,54.13,14.89,79.66,1.59,9.91-1,17-7.79,24.53-20.59,23-38.24,48.25-51.84,76.26-3,6.13-8.26,13.63-.39,18.85,8.57,5.69,11.63-3.91,15.86-8.77,16.59-19.13,29.54-41.69,50.64-57.33,11.43,28.8,18.37,55.87-5.74,80.8-4.73,4.9-7.53,11.77-11.21,17.74-9.27,15.05-15.86,31.29-20.7,48.28-2.21,7.67-.51,15.29,6.43,18.18s7.95-6,10.82-10c5.62-8,10-16.87,15.47-25,8.26-12.29,12-27.89,26.64-40,4,22.17,16.4,44.65,4.65,59.39-17.37,21.81-7.48,35.6,3.18,52.24,8.34,13,19.7,20.42,35.17,14.93,23.61-8.37,37.26-26.55,36.72-48.52-.43-17.46-15.2-20.23-27.1-23.94-10.74-3.36-16.29-8.58-17.18-20.19-.78-9.8-3.14-19.48-5.16-29.12-2.36-11.3,2-12.37,10.94-8.3,17.06,7.78,34.35,14.82,53.12,17.42,4.46.64,9.81,5.61,12.75-.55,3.11-6.44-2.59-10.63-7.36-13.24-14-7.66-27.57-17-42.5-21.65-45.13-14.18-45.68-53.22-53.12-91.75,25.82,12,47.73,28.25,75.34,24.9,6.71-.83,17.76,3.51,18.53-7.83.58-8.77-10-9.4-15.86-10.59-28.5-5.8-50.64-25.68-77.51-34.85-3.45-1.18-6.39-2.92-6.9-6.91-2.29-19.16-8.76-37.85-7.09-60,22.29,10.63,41.56,23.59,64.63,25.8,4.58.44,10.51,4.35,13.19-1.26,3.29-7-4.08-9.84-8.19-12.49-20.47-13-41.37-25.21-62-38-9.5-5.85-19-12-21.24-24.5-2.8-15.21-5.32-30.5-8.65-45.59-2.21-10,1.59-13.28,10.74-15.77,45.17-12.25,89.65-22.52,125.75,21.18,2.44,3,7.17,3.87,10.74,6,30.63,17.79,56.18,38.69,63.31,77.69,4.31,23.47,10.2,46.7,13.61,70.45,1.17,8.17,1.09,19,12.3,18.49,10.31-.52,8.64-12.09,9.38-18.69,2.64-23.63,5.54-47.42.35-71.24-1.44-6.52-3.49-16.32,8.92-10.91,16.36,7.19,32.14,15.77,48.35,23.35,8,3.76,18,17.43,24.43,6.33,7.09-12.33-9-17.31-17.45-23-22-14.9-44.4-29.28-69.91-46,38.15-7.94,69.13-20.19,92.28-47.73,3.3-3.91,12.49-4.9,9.77-11.34-3.26-7.75-11.44-5.3-18.18-3.44-26,7.11-51.81,15.29-78.13,20.9-18.62,4-40.21,18.06-56.11,6.44-26.06-19-63.36-22.8-76.12-62.27-5.93-18.33-14.34-37.26-22.45-55.51-4.42-10-1.66-16,9.43-17.9,13.41-2.25,25-2.73,34.47,11.1,11.78,17.27,25.55,33.39,44.82,42.87,9.62,4.74,23.11,15.06,29.43,6.44,6.71-9.12-10.31-15-15.51-23.43A22.21,22.21,0,0,0,749,548c-10.71-11.69-33.47-25.29-29.71-34.37,6.83-16.56,31.41-11.74,48.08-17.31,11.29-3.75,19.74-1,26.84,9.21,11.67,16.75,27.25,29.83,43,42.27,14.89,11.74,31.48,20.63,51.61,16.88,3.37-.64,7.05-1.35,7.48-5.81s-2.87-6.56-6.17-7.19c-29.19-5.57-42.92-31.65-63.28-49-12.91-11-6.94-16.08,5.16-18.93,21.56-5.05,43.27-9.44,64.91-14.22,8.61-1.9,14,2.05,19.5,8.46,13.81,16,31.14,28.25,48.63,39.11,10.58,6.6,21.55,16.08,35.75,14.86,5.39-.47,11.94-.71,13.84-7.23,2.21-7.67-4.5-9-9.46-11.22-14.66-6.6-27.88-15.57-40.21-25.8-7.33-6.09-21.52-11.15-19.51-19.64,2.8-11.74,17.72-6.84,27.3-7.71,10.08-.91,22.53-9.6,30.44,3.28,24.66,40.19,53.16,19.32,72.31-8.73C1081.94,445.31,1080.82,436.42,1075.19,427ZM43.6,670c-8.73.94-12-9.29-13.84-17.31-1.36-6-2.33-12.64,4.88-16.68,7.68,2.57,12.6,7.83,14.15,16C50.15,659,49.92,669.3,43.6,670ZM556.24,506c10.54-17.62,13.84-37.58,18.57-57.1,1.74-7.27,6.67-11.65,15.47-15.21,1,8.06-5.78,12.88,3.64,19.68,12.14,8.77,13,26.87,18.42,41,.74,1.94-.7,6.84-2,7.23-17.1,5.1-34.24,10.44-51.69,13.83C552.75,516.51,554.3,509.28,556.24,506ZM540,460.21c.58,13.75-5.43,25.48-9.19,42.31C516.22,469,516.84,466.61,540,460.21ZM482.8,475.89c7.33-1.18,12,1,13.37,8.81,1.9,10.63,3.88,21.26,6.48,35.52-23.34-12.28-43.47-21.77-63.32-38.09C455.62,479.8,469.23,478.06,482.8,475.89ZM431.65,502.4c20.05,10.75,36.57,21.34,57,27.62C446.74,554.52,438.94,551,431.65,502.4Zm58.4,55.44c-13.69,18.69-24.51,33.43-36,49.19C440.73,568.9,441.5,567.72,490.05,557.84Zm-7.21,64.25c6.55-8.85,12.09-15.53,16.75-22.76,4.77-7.43,8.76-15.37,15-26.48C528.78,615.69,527,618.49,482.84,622.09ZM420.91,57.3c-1.9,2.45-9.26-8.5-10.54-14.66-2.83-13.47,7.83-21.45,16.79-25.33,9.26-4,12.56,7.16,14.26,11.46C447.24,50.54,427.66,48.53,420.91,57.3Zm207.6,968.28c6.32-3,11.09,3.17,13.53,9.45-.77,11.73-8.33,17.5-17.91,20.86-7.37,2.61-7-3.28-7.83-8.34C614.51,1036.69,620.45,1029.38,628.51,1025.58Zm7.37-434.75c-1,4.15-2.56,8.14-7.06,9.68-23.15,8.06-47.3,9.21-71.42,10.32-6.24.27-7.29-5.3-8.38-10.2-1.7-7.55-3.45-15.09-5.19-22.64-.08,0-.2,0-.27.08-1.28-5.49-2.56-10.94-3.84-16.44-1.55-6.44-1.94-12.92,3.88-17.34,6.35-4.9,9.53,2.92,14.3,4.54,25.59,8.61,46.65,27.07,72.63,34.89C634.13,584.79,637,586.33,635.88,590.83Zm-51.07-56.78c33-20.7,42.31-14.34,54,40.54C618.59,559.42,601.72,546.78,584.81,534.05Zm450.29-73.84c-3.22,1.65-8.49-3-6.71-4.55,10.51-9.32-9.46-26.51,7.29-31.49,7.06-2.09,14.39,6.44,17,15.84C1052.4,451.39,1043.52,455.9,1035.1,460.21Z"/><path class="cls-1" d="M286.68,865.56c-6.6-3.67-15.05-5.29-20.28,3-7.41,11.86-14.08,24.14-13.07,33.79.58,14,6,19.32,12.6,23.31,4.46,2.68,10.2,2.68,13.07-2,6.86-11.14,16.67-20.82,19.7-34C301.18,879,295.52,870.46,286.68,865.56Z"/><path class="cls-1" d="M246.85,796.69c-8.25-11.85-22.76-12.8-36.72-12.8-9.77,0-15.54,8-13,17.23,5.27,19.12,23.26,13.79,36.13,15.33C240.46,817.32,248.29,810.05,246.85,796.69Z"/><path class="cls-1" d="M338.56,866.59c-4.54,3.08-5.7,8.26-4.27,13.08,3.8,12.84,10.2,24.3,21,32.4,4.26,3.24,9.65,6.59,15,2.17,4.89-4,4.11-10,3.26-17.23-5.7-10.19-12.6-21.22-23.5-29C346.5,865.52,342.47,863.94,338.56,866.59Z"/><path class="cls-1" d="M845.34,779.7c-14.39,1.94-13,14.78-12.53,24.54.47,8.65,8.88,17.94,15.71,15.13,8.88-3.63,18.26-11.3,21.09-22.92C863.52,786.93,857.17,778.08,845.34,779.7Z"/><path class="cls-1" d="M239.18,374.9c1.78-1,2.87-4.62,3-7.11.51-8-25.63-28.89-34.31-26.56-1.13,1.23-3.92,2.93-4.62,5.26-4,13.31,5.74,20.31,13.42,28C223.86,381.69,231.81,379.05,239.18,374.9Z"/><path class="cls-1" d="M797.45,199.46c8.22-.9,15.36-6.36,14.89-17.22-6.86-8.06-9.81-21.85-23.77-20.15-11.82,1.42-12.91,12.32-11.67,21.29C778.41,194.33,787,200.61,797.45,199.46Z"/><path class="cls-1" d="M649.1,173c7.6-.91,17.95-5.65,15.59-15.49-2.41-10.15-8.22-20.62-19.78-21.65-13.72,2.41-13.88,11.85-13.1,21C632.66,167.18,639.17,174.14,649.1,173Z"/><path class="cls-1" d="M284.35,265.92c5.54-1,16.13-8,12.79-15.92-4-9.6-5.73-25.68-22-22.84-10.66,1.9-9.93,11.62-7.76,23.59C269.15,257.27,272.56,268.06,284.35,265.92Z"/><path class="cls-1" d="M721.65,143.83c7.83-1.1,16.55-4.5,13.22-14.62-3.37-10.35-8.41-22.2-22.22-21.06-10.2.83-10.12,9.76-9,20.82C706.25,135.38,708.78,145.69,721.65,143.83Z"/><path class="cls-1" d="M911,769.39c-8.6,3.4-10.62,10-8.49,16,4.5,12.68,15.32,17.78,27.77,17.94,4.61.08,10.08-3.91,6.59-10.08C930.68,782.35,922.69,772.9,911,769.39Z"/><path class="cls-1" d="M225,429.19c5.82-.16,9.15-6.13,5.7-12.61-4.92-9.2-10.08-18.45-22.45-19.44-7.13,4.15-7.64,12.17-6.05,18.1C205.13,426.07,215.33,429.5,225,429.19Z"/><path class="cls-1" d="M907.42,707.71c-4-10.35-7.22-22.09-20-23.59-7.06-.83-11.13,5.22-9.58,12.68,2.6,12.69,13,17.71,23.42,20.67C907.22,719.17,908.66,713.2,907.42,707.71Z"/></g></svg>