<svg id="_296ptl9a3c" data-name="296ptl9a3c" xmlns="http://www.w3.org/2000/svg" viewBox="0 0 1080 1080"><defs><style>.cls-1{fill:#098a33;}.cls-2{fill:#9bc1cf;}</style></defs><path class="cls-1" d="M1052.33,973.14s-60.7-125.6-191.44-128.83C860.89,844.31,917.77,964.37,1052.33,973.14Z"/><polygon class="cls-2" points="862.82 841.37 1054.08 970.25 1050.72 976.14 859.47 847.26 862.82 841.37"/><path class="cls-1" d="M1079.5,777.81S928,730.25,806.13,810.14C806.13,810.14,950.46,856.31,1079.5,777.81Z"/><polygon class="cls-2" points="1079.25 774.49 1079.94 781.37 806.88 813.49 806.2 806.6 1079.25 774.49"/><path class="cls-1" d="M1035.36,668.83s-168.53-11.54-281.44,96.51C754.34,764.88,914.37,776.89,1035.36,668.83Z"/><polygon class="cls-2" points="1034.59 665.07 1036.5 671.68 755.08 768.02 753.16 761.41 1034.59 665.07"/><path class="cls-1" d="M957.25,561.24S793,591.26,708.5,725.17C708.92,725.17,865.13,697.93,957.25,561.24Z"/><polygon class="cls-2" points="955.9 558.31 959.19 564.24 710.46 728.09 707.16 722.16 955.9 558.31"/><path class="cls-1" d="M883.81,498.44S722.08,539.08,646.52,679C646.52,679,800.61,641.13,883.81,498.44Z"/><polygon class="cls-2" points="881.95 495.7 885.6 501.38 648.38 681.89 644.73 676.22 881.95 495.7"/><path class="cls-1" d="M799.76,463.81S652.89,501.21,583.69,628.2C583.69,627.74,723.78,593.57,799.76,463.81Z"/><polygon class="cls-2" points="797.89 460.8 801.54 466.47 585.53 630.84 581.88 625.17 797.89 460.8"/><path class="cls-1" d="M778.11,383.46S610.44,435.18,522.57,573.25C522.57,573.25,682.18,524.76,778.11,383.46Z"/><polygon class="cls-2" points="776.16 380.46 779.75 386.18 524.17 576.01 520.58 570.29 776.16 380.46"/><path class="cls-1" d="M787,1079.35s46.27-166.7-29.29-314.93C757.74,764.42,712.74,922.81,787,1079.35Z"/><polygon class="cls-2" points="760.98 764.2 790.1 1079.39 783.76 1080.08 754.65 764.89 760.98 764.2"/><path class="cls-1" d="M629.54,1027.63s100.6-135.76,79-299.69C708.5,727.94,612.14,856.31,629.54,1027.63Z"/><polygon class="cls-2" points="705.62 727.03 711.75 728.94 632.75 1028.54 626.63 1026.63 705.62 727.03"/><path class="cls-1" d="M528.94,982.38S651.19,855.85,648.22,683.15C648.22,683.15,531.48,802.75,528.94,982.38Z"/><polygon class="cls-2" points="645.27 681.79 651.11 684.54 531.92 983.66 526.08 980.9 645.27 681.79"/><path class="cls-1" d="M481.82,888.64S590.91,775.5,588.36,621.27C588.36,621.27,483.94,728.4,481.82,888.64Z"/><polygon class="cls-2" points="585.44 619.89 591.28 622.65 484.76 889.99 478.91 887.23 585.44 619.89"/><path class="cls-1" d="M407.53,858.16s116.31-121,113.76-285.37C521.29,573.25,409.65,687.3,407.53,858.16Z"/><polygon class="cls-2" points="518.08 571.7 523.92 574.46 410.31 859.59 404.46 856.84 518.08 571.7"/><path class="cls-1" d="M667.74,342.82S519.17,380.23,449.55,509.06C449.13,508.6,590.91,474,667.74,342.82Z"/><polygon class="cls-2" points="665.7 339.9 669.35 345.58 450.91 511.8 447.26 506.13 665.7 339.9"/><path class="cls-1" d="M334.52,794.44s116.31-121,113.76-285.38C448.28,509.06,336.64,623.12,334.52,794.44Z"/><polygon class="cls-2" points="445.14 507.52 450.98 510.27 337.36 795.41 331.52 792.65 445.14 507.52"/><path class="cls-1" d="M396.07,72.23S247.5,109.63,177.88,238.46C177.88,238.46,319.66,203.37,396.07,72.23Z"/><polygon class="cls-2" points="394.16 69.15 397.81 74.82 179.38 241.04 175.72 235.37 394.16 69.15"/><path class="cls-1" d="M337.91,3S189.34,40.36,119.72,169.2C119.72,169.2,261.08,134.57,337.91,3Z"/><polygon class="cls-2" points="336.11 0.08 339.75 5.75 121.32 171.98 117.67 166.3 336.11 0.08"/><path class="cls-1" d="M62.84,523.84s116.31-121,113.77-285.38C176.61,238.46,65.39,352.52,62.84,523.84Z"/><polygon class="cls-2" points="173.9 237.02 179.74 239.78 66.12 524.91 60.28 522.16 173.9 237.02"/><path class="cls-1" d="M619.78,263.86S458,304.5,382.48,444.41C382.48,444.41,536.58,406.55,619.78,263.86Z"/><polygon class="cls-2" points="618.01 260.82 621.66 266.49 384.44 447.01 380.8 441.33 618.01 260.82"/><path class="cls-1" d="M278.48,713.16s108.67-112.67,106.13-266C384.61,447.18,280.61,553.39,278.48,713.16Z"/><polygon class="cls-2" points="381.4 445.71 387.25 448.46 281.23 714.53 275.38 711.77 381.4 445.71"/><path class="cls-1" d="M540.82,207.06s-154.51,39.25-227.1,172.71C313.72,379.77,461,343.29,540.82,207.06Z"/><polygon class="cls-2" points="539.09 203.95 542.74 209.63 315.61 382.47 311.96 376.79 539.09 203.95"/><path class="cls-1" d="M199.1,665.6s116.32-121,113.77-285.37C312.87,380.23,201.65,494.75,199.1,665.6Z"/><polygon class="cls-2" points="310.06 379.21 315.9 381.96 202.28 667.1 196.44 664.34 310.06 379.21"/><path class="cls-1" d="M485.21,130S323.48,170.58,247.92,310.5C247.92,310.5,401.59,272.63,485.21,130Z"/><polygon class="cls-2" points="482.92 127.09 486.57 132.77 249.35 313.29 245.7 307.61 482.92 127.09"/><path class="cls-1" d="M133.73,597.26S250,476.28,247.5,311.89C247.5,311.89,135.85,426.4,133.73,597.26Z"/><polygon class="cls-2" points="244.25 310.79 250.1 313.55 136.48 598.68 130.64 595.92 244.25 310.79"/><path class="cls-1" d="M3,456S119.3,335,116.75,170.58C116.75,171.05,5.11,285.1,3,456Z"/><polygon class="cls-2" points="113.55 169.47 119.39 172.22 5.78 457.35 -0.06 454.6 113.55 169.47"/><path class="cls-1" d="M893.57,1073.35s-98.05-124.68-80.22-270.6C813.35,802.75,907.58,921,893.57,1073.35Z"/><polygon class="cls-2" points="816.18 801.71 896.3 1071.98 890.24 1074.11 810.12 803.84 816.18 801.71"/><path class="cls-1" d="M63.69,126.25l11-19.85c1.7,1.84,161.3,195.79,367.61,384.19,204.6,187,444.87,356,447,357.87l-9.76,20.78c-2.55-1.84-241.12-175-445.72-362.49C227.12,317.89,65,128.1,63.69,126.25Z"/></svg>