<svg id="_296ptl9a3c" data-name="296ptl9a3c" xmlns="http://www.w3.org/2000/svg" viewBox="0 0 1080 1080"><defs><style>.cls-1{fill:#098a33;}.cls-2{fill:#9bc1cf;}</style></defs><path class="cls-1" d="M219,844.31C88.24,847.54,27.54,973.14,27.54,973.14,162.1,964.37,219,844.31,219,844.31Z"/><polygon class="cls-2" points="220.41 847.26 29.15 976.14 25.8 970.25 217.05 841.37 220.41 847.26"/><path class="cls-1" d="M273.74,810.14C151.91,730.25.37,777.81.37,777.81,129.41,856.31,273.74,810.14,273.74,810.14Z"/><polygon class="cls-2" points="273.67 806.6 272.99 813.49 -0.06 781.37 0.62 774.49 273.67 806.6"/><path class="cls-1" d="M326,765.34C213,657.29,44.52,668.83,44.52,668.83,165.5,776.89,325.53,764.88,326,765.34Z"/><polygon class="cls-2" points="326.71 761.41 324.8 768.02 43.37 671.68 45.28 665.07 326.71 761.41"/><path class="cls-1" d="M371.38,725.17C286.9,591.26,122.62,561.24,122.62,561.24,214.74,697.93,371,725.17,371.38,725.17Z"/><polygon class="cls-2" points="372.71 722.16 369.41 728.09 120.68 564.24 123.97 558.31 372.71 722.16"/><path class="cls-1" d="M433.35,679C357.79,539.08,196.06,498.44,196.06,498.44,279.26,641.13,433.35,679,433.35,679Z"/><polygon class="cls-2" points="435.14 676.22 431.5 681.89 194.28 501.38 197.93 495.7 435.14 676.22"/><path class="cls-1" d="M496.18,628.2c-69.2-127-216.07-164.39-216.07-164.39C356.09,593.57,496.18,627.74,496.18,628.2Z"/><polygon class="cls-2" points="497.99 625.17 494.34 630.84 278.33 466.47 281.98 460.8 497.99 625.17"/><path class="cls-1" d="M557.3,573.25C469.43,435.18,301.76,383.46,301.76,383.46,397.69,524.76,557.3,573.25,557.3,573.25Z"/><polygon class="cls-2" points="559.29 570.29 555.7 576.01 300.12 386.18 303.71 380.46 559.29 570.29"/><path class="cls-1" d="M322.13,764.42c-75.56,148.23-29.29,314.93-29.29,314.93C367.13,922.81,322.13,764.42,322.13,764.42Z"/><polygon class="cls-2" points="325.23 764.89 296.11 1080.08 289.77 1079.39 318.89 764.2 325.23 764.89"/><path class="cls-1" d="M371.38,727.94c-21.65,163.93,78.95,299.69,78.95,299.69C467.74,856.31,371.38,727.94,371.38,727.94Z"/><polygon class="cls-2" points="453.24 1026.63 447.12 1028.54 368.13 728.94 374.25 727.03 453.24 1026.63"/><path class="cls-1" d="M431.65,683.15c-3,172.7,119.29,299.23,119.29,299.23C548.39,802.75,431.65,683.15,431.65,683.15Z"/><polygon class="cls-2" points="553.79 980.9 547.95 983.66 428.76 684.54 434.6 681.79 553.79 980.9"/><path class="cls-1" d="M491.51,621.27C489,775.5,598.06,888.64,598.06,888.64,595.93,728.4,491.51,621.27,491.51,621.27Z"/><polygon class="cls-2" points="600.96 887.23 595.12 889.99 488.59 622.65 494.43 619.89 600.96 887.23"/><path class="cls-1" d="M558.58,572.79C556,737.18,672.34,858.16,672.34,858.16,670.22,687.3,558.58,573.25,558.58,572.79Z"/><polygon class="cls-2" points="675.41 856.84 669.56 859.59 555.95 574.46 561.79 571.7 675.41 856.84"/><path class="cls-1" d="M630.32,509.06C560.7,380.23,412.13,342.82,412.13,342.82,489,474,630.74,508.6,630.32,509.06Z"/><polygon class="cls-2" points="632.61 506.13 628.96 511.8 410.52 345.58 414.17 339.9 632.61 506.13"/><path class="cls-1" d="M631.59,509.06C629,673.45,745.35,794.44,745.35,794.44,743.23,623.12,631.59,509.06,631.59,509.06Z"/><polygon class="cls-2" points="748.35 792.65 742.51 795.41 628.89 510.27 634.74 507.52 748.35 792.65"/><path class="cls-1" d="M902,238.46C832.38,109.63,683.8,72.23,683.8,72.23,760.21,203.37,902,238.46,902,238.46Z"/><polygon class="cls-2" points="904.15 235.37 900.5 241.04 682.06 74.82 685.71 69.15 904.15 235.37"/><path class="cls-1" d="M960.15,169.2C890.53,40.36,742,3,742,3,818.79,134.57,960.15,169.2,960.15,169.2Z"/><polygon class="cls-2" points="962.2 166.3 958.55 171.98 740.12 5.75 743.77 0.08 962.2 166.3"/><path class="cls-1" d="M903.27,238.46C900.72,402.85,1017,523.84,1017,523.84,1014.48,352.52,903.27,238.46,903.27,238.46Z"/><polygon class="cls-2" points="1019.59 522.16 1013.75 524.91 900.13 239.78 905.97 237.02 1019.59 522.16"/><path class="cls-1" d="M697.39,444.41c-75.56-139.91-237.3-180.55-237.3-180.55C543.3,406.55,697.39,444.41,697.39,444.41Z"/><polygon class="cls-2" points="699.08 441.33 695.43 447.01 458.21 266.49 461.86 260.82 699.08 441.33"/><path class="cls-1" d="M695.26,447.18c-2.54,153.31,106.13,266,106.13,266C799.26,553.39,695.26,447.18,695.26,447.18Z"/><polygon class="cls-2" points="804.49 711.77 798.64 714.53 692.63 448.46 698.47 445.71 804.49 711.77"/><path class="cls-1" d="M766.15,379.77c-72.58-133.46-227.1-172.71-227.1-172.71C618.86,343.29,766.15,379.77,766.15,379.77Z"/><polygon class="cls-2" points="767.91 376.79 764.26 382.47 537.13 209.63 540.78 203.95 767.91 376.79"/><path class="cls-1" d="M767,380.23C764.46,544.62,880.77,665.6,880.77,665.6,878.22,494.75,767,380.23,767,380.23Z"/><polygon class="cls-2" points="883.43 664.34 877.59 667.1 763.97 381.96 769.81 379.21 883.43 664.34"/><path class="cls-1" d="M832,310.5C756.39,170.58,594.66,130,594.66,130,678.28,272.63,832,310.5,832,310.5Z"/><polygon class="cls-2" points="834.17 307.61 830.52 313.29 593.3 132.77 596.95 127.09 834.17 307.61"/><path class="cls-1" d="M832.38,311.89c-2.55,164.39,113.76,285.37,113.76,285.37C944,426.4,832.38,311.89,832.38,311.89Z"/><polygon class="cls-2" points="949.23 595.92 943.39 598.68 829.77 313.55 835.62 310.79 949.23 595.92"/><path class="cls-1" d="M963.12,170.58C960.57,335,1076.88,456,1076.88,456,1074.76,285.1,963.12,171.05,963.12,170.58Z"/><polygon class="cls-2" points="1079.94 454.6 1074.09 457.35 960.48 172.22 966.32 169.47 1079.94 454.6"/><path class="cls-1" d="M266.53,802.75c17.82,145.92-80.23,270.6-80.23,270.6C172.29,921,266.53,802.75,266.53,802.75Z"/><polygon class="cls-2" points="269.75 803.84 189.63 1074.11 183.57 1071.98 263.69 801.71 269.75 803.84"/><path class="cls-1" d="M646,506.75C441.42,694.23,202.85,867.4,200.31,869.24l-9.77-20.78c2.12-1.84,242.39-170.85,447-357.87,206.31-188.4,365.92-382.35,367.61-384.19l11,19.85C1014.91,128.1,852.75,317.89,646,506.75Z"/></svg>