<?xml version="1.0" encoding="utf-8"?>
<!-- Generator: Adobe Illustrator 25.2.1, SVG Export Plug-In . SVG Version: 6.00 Build 0)  -->
<svg version="1.1" id="레이어_1" xmlns="http://www.w3.org/2000/svg" xmlns:xlink="http://www.w3.org/1999/xlink" x="0px"
	 y="0px" viewBox="0 0 400 1200" style="enable-background:new 0 0 400 1200;" xml:space="preserve">
<style type="text/css">
	.st0{fill:#161C24;}
	.st1{opacity:0.8;fill:#FFFFFF;enable-background:new    ;}
</style>
<path class="st0" d="M400,1198H180.2c-59.2,1.3-81.5,4.1-124.8,0c-23.7-2.2-42.9-5.5-55.5-7.9V0c65.5,2.9,132.9,4.9,202,5.9
	c64.2,0.9,126.9,0.9,188.1,0c-59.9,3.4-122.7,5.5-188.1,5.9c-69,0.4-135.1-1-198-4v1176.2c17.6,4.4,35.5,7.7,53.5,9.9
	c40.3,5,62.6,2.2,124.8,0c33.3-1.2,60.5-1.4,114.9-2c41.9-0.4,76.2-0.2,99,0c-0.3-68.6-0.6-34.2-1-102.9
	C396.5,1159.8,398.1,1127.4,400,1198z"/>
<path class="st1" d="M4,7.9c63,2.9,129,4.4,198,4c65.4-0.4,128.2-2.5,188.1-5.9c2,429.7,4,756.4,5.9,1186.1c-22.8-0.2-57.1-0.4-99,0
	c-54.4,0.5-81.6,0.8-114.9,2c-62.2,2.2-84.4,5-124.8,0c-18-2.2-35.9-5.6-53.5-10V7.9z"/>
</svg>
